<svg width="592" height="514" viewBox="0 0 592 514" fill="none" xmlns="http://www.w3.org/2000/svg">
<g opacity="0.15">
<g opacity="0.3">
<path d="M247.481 349.57L219 333.129V366.012L247.481 382.437L275.945 366.012V333.129L247.481 349.57Z" fill="#42E8E0"/>
<path d="M247.481 382.437L219 366.012V333.129L247.481 349.57V382.437Z" fill="#42E8E0"/>
<path d="M275.945 366.012L247.481 382.437V349.57L275.945 333.129V366.012Z" fill="#2FD3C7"/>
<path d="M247.481 349.57L219 333.129L247.465 316.704L275.945 333.129L247.481 349.57Z" fill="#42E8E0"/>
<path d="M247.481 349.57L219 333.129V334.556L247.481 350.997L275.945 334.556V333.129L247.481 349.57Z" fill="white"/>
</g>
<path d="M186.495 260.308L186.495 260.308C203.687 250.378 226.319 245.391 248.993 245.391C271.666 245.391 294.298 250.378 311.49 260.308L311.49 260.308C328.211 269.96 337.25 282.711 337.25 296.131C337.25 309.552 328.226 322.303 311.506 331.955L311.881 332.605L311.506 331.955C294.321 341.877 271.678 346.867 249.008 346.867C226.339 346.867 203.695 341.877 186.511 331.955L186.136 332.605L186.511 331.955C169.79 322.302 160.75 309.551 160.75 296.131C160.75 282.711 169.775 269.96 186.495 260.308Z" stroke="#42E8E0" stroke-opacity="0.4" stroke-width="1.5"/>
<path d="M248.258 335.996C230.662 335.887 213.165 331.965 199.833 324.255L199.833 324.255C186.668 316.659 179.606 306.63 179.606 296.116C179.606 285.602 186.683 275.588 199.834 267.976C213.355 260.165 231.161 256.237 249.008 256.237C266.855 256.237 284.661 260.165 298.183 267.976L298.183 267.976C311.348 275.572 318.41 285.602 318.41 296.116C318.41 306.629 311.333 316.643 298.183 324.255C284.662 332.059 266.855 335.983 249.008 335.983H248.258V335.996Z" stroke="#42E8E0" stroke-opacity="0.6" stroke-width="1.5"/>
<path d="M210.327 274.053L210.328 274.052C220.951 267.919 234.955 264.83 249.003 264.83C263.05 264.83 277.058 267.919 287.689 274.053C298.042 280.041 303.573 287.906 303.573 296.131C303.573 304.357 298.042 312.222 287.689 318.194L288.064 318.844L287.689 318.194C277.058 324.328 263.054 327.417 249.008 327.417C234.963 327.417 220.959 324.328 210.328 318.194C199.975 312.206 194.443 304.341 194.443 296.116C194.443 287.89 199.975 280.025 210.327 274.053Z" stroke="#42E8E0" stroke-width="1.5"/>
<path opacity="0.2" d="M247.481 329.641L219 313.216L247.465 296.774L275.945 313.216L247.481 329.641Z" fill="#03002D"/>
<path d="M247.481 271.882L219 255.441V288.308L247.481 304.749L275.945 288.308V255.441L247.481 271.882Z" fill="#42E8E0"/>
<path d="M247.481 304.749L219 288.308V255.441L247.481 271.882V304.749Z" fill="#42E8E0"/>
<path d="M275.945 288.308L247.481 304.749V271.882L275.945 255.441V288.308Z" fill="#2FD3C7"/>
<path d="M247.481 271.882L219 255.441L247.465 239L275.945 255.441L247.481 271.882Z" fill="#42E8E0"/>
<path d="M247.481 271.882L219 255.441V256.868L247.481 273.309L275.945 256.868V255.441L247.481 271.882Z" fill="white"/>
<g opacity="0.4">
<path d="M442.48 294.787L414 278.345V311.228L442.48 327.654L470.945 311.228V278.345L442.48 294.787Z" fill="#42E8E0"/>
<path d="M442.48 327.654L414 311.228V278.345L442.48 294.787V327.654Z" fill="#42E8E0"/>
<path d="M470.945 311.228L442.481 327.654V294.787L470.945 278.345V311.228Z" fill="#2FD3C7"/>
<path d="M442.48 294.787L414 278.345L442.465 261.92L470.945 278.361L442.48 294.787Z" fill="#42E8E0"/>
<path d="M442.48 294.787L414 278.345V279.772L442.48 296.214L470.945 279.772V278.345L442.48 294.787Z" fill="white"/>
</g>
<path opacity="0.2" d="M442.48 274.858L414 258.432L442.465 241.991L470.945 258.432L442.48 274.858Z" fill="#03002D"/>
<path d="M442.48 217.099L414 200.657V233.524L442.48 249.966L470.945 233.524V200.657L442.48 217.099Z" fill="#42E8E0"/>
<path d="M442.48 249.966L414 233.524V200.657L442.48 217.099V249.966Z" fill="#42E8E0"/>
<path d="M470.945 233.524L442.481 249.966V217.099L470.945 200.657V233.524Z" fill="#2FD3C7"/>
<path d="M442.48 217.099L414 200.657L442.465 184.232L470.945 200.657L442.48 217.099Z" fill="#42E8E0"/>
<path d="M442.48 217.099L414 200.657V202.084L442.48 218.526L470.945 202.084V200.657L442.48 217.099Z" fill="white"/>
<path opacity="0.2" d="M442.481 211.375L423.896 200.657L442.481 189.939L461.05 200.657L442.481 211.375Z" fill="#03002D"/>
<path d="M442.48 170.866L414 154.441V187.308L442.48 203.749L470.945 187.308V154.441L442.48 170.866Z" fill="#42E8E0"/>
<path d="M442.48 203.749L414 187.308V154.441L442.48 170.866V203.749Z" fill="#42E8E0"/>
<path d="M470.945 187.308L442.481 203.749V170.866L470.945 154.441V187.308Z" fill="#2FD3C7"/>
<path d="M442.48 170.866L414 154.441L442.465 138L470.945 154.441L442.48 170.866Z" fill="#42E8E0"/>
<path d="M442.48 170.866L414 154.441V155.868L442.48 172.293L470.945 155.868V154.441L442.48 170.866Z" fill="white"/>
</g>
<g opacity="0.5">
<path d="M472.296 253.387H470.942C470.705 253.387 470.514 253.579 470.514 253.816V255.173C470.514 255.41 470.705 255.601 470.942 255.601H472.296C472.532 255.601 472.724 255.41 472.724 255.173V253.816C472.724 253.579 472.532 253.387 472.296 253.387Z" fill="#42E8E0" fill-opacity="0.5"/>
<path d="M461.354 405.827H460C459.763 405.827 459.572 406.019 459.572 406.255V407.612C459.572 407.849 459.763 408.041 460 408.041H461.354C461.59 408.041 461.782 407.849 461.782 407.612V406.255C461.782 406.019 461.59 405.827 461.354 405.827Z" fill="#42E8E0" fill-opacity="0.5"/>
<path d="M391.71 372.797H390.356C390.119 372.797 389.928 372.988 389.928 373.225V374.582C389.928 374.819 390.119 375.011 390.356 375.011H391.71C391.946 375.011 392.138 374.819 392.138 374.582V373.225C392.138 372.988 391.946 372.797 391.71 372.797Z" fill="#42E8E0" fill-opacity="0.5"/>
<path d="M344.948 383.581H343.594C343.358 383.581 343.166 383.772 343.166 384.009V385.366C343.166 385.603 343.358 385.795 343.594 385.795H344.948C345.184 385.795 345.376 385.603 345.376 385.366V384.009C345.376 383.772 345.184 383.581 344.948 383.581Z" fill="#42E8E0" fill-opacity="0.5"/>
<path d="M320.747 337.552L319.5 337.017L319.286 336.445L319.821 335.195L320.391 334.981L321.638 335.517C321.852 335.624 321.959 335.874 321.852 336.088L321.317 337.338C321.211 337.552 320.961 337.659 320.747 337.552Z" fill="#42E8E0" fill-opacity="0.5"/>
<path d="M284.769 427.743L283.527 427.202C283.31 427.108 283.058 427.208 282.964 427.425L282.425 428.67C282.331 428.887 282.43 429.139 282.647 429.233L283.889 429.773C284.106 429.868 284.358 429.768 284.452 429.551L284.991 428.306C285.085 428.089 284.986 427.837 284.769 427.743Z" fill="#42E8E0" fill-opacity="0.5"/>
<path d="M227.437 296.988L226.189 296.452C225.976 296.345 225.869 296.095 225.976 295.881L226.51 294.631C226.617 294.417 226.867 294.309 227.08 294.417L228.328 294.952L228.542 295.524L228.007 296.773L227.437 296.988Z" fill="#42E8E0" fill-opacity="0.5"/>
<path d="M133.959 336.798L132.716 336.258C132.499 336.164 132.248 336.263 132.153 336.48L131.614 337.725C131.52 337.942 131.62 338.194 131.836 338.289L133.079 338.829C133.295 338.923 133.547 338.823 133.641 338.606L134.181 337.362C134.275 337.145 134.175 336.892 133.959 336.798Z" fill="#42E8E0" fill-opacity="0.5"/>
<path d="M180.228 475.271L178.986 474.73C178.769 474.636 178.517 474.736 178.423 474.953L177.884 476.197C177.79 476.414 177.889 476.667 178.106 476.761L179.348 477.301C179.565 477.396 179.817 477.296 179.911 477.079L180.45 475.834C180.544 475.617 180.445 475.365 180.228 475.271Z" fill="#42E8E0" fill-opacity="0.5"/>
<path d="M197.899 380.793L196.657 380.252C196.44 380.158 196.188 380.258 196.094 380.475L195.554 381.719C195.46 381.936 195.56 382.189 195.776 382.283L197.018 382.824C197.235 382.918 197.487 382.818 197.581 382.601L198.121 381.357C198.215 381.14 198.116 380.887 197.899 380.793Z" fill="#42E8E0" fill-opacity="0.5"/>
<path d="M133.058 268.707L131.81 268.171L131.596 267.6L132.131 266.35L132.701 266.135L133.949 266.671C134.162 266.778 134.269 267.028 134.162 267.242L133.628 268.492C133.521 268.707 133.271 268.814 133.058 268.707Z" fill="#42E8E0" fill-opacity="0.5"/>
<path d="M59.1306 358.862L57.8882 358.321C57.6715 358.227 57.4196 358.327 57.3256 358.544L56.7864 359.789C56.6923 360.006 56.7918 360.258 57.0085 360.352L58.2509 360.893C58.4676 360.987 58.7195 360.887 58.8135 360.67L59.3527 359.425C59.4467 359.208 59.3473 358.956 59.1306 358.862Z" fill="#42E8E0" fill-opacity="0.5"/>
<path d="M58.2096 290.739L56.9621 290.203C56.7482 290.096 56.6413 289.846 56.7482 289.632L57.2829 288.382C57.3898 288.168 57.6393 288.06 57.8531 288.168L59.1006 288.703L59.3145 289.274L58.7798 290.524C58.6729 290.739 58.4234 290.846 58.2096 290.739Z" fill="#42E8E0" fill-opacity="0.5"/>
<path d="M519.767 335.481L518.525 334.94C518.308 334.846 518.056 334.946 517.962 335.163L517.423 336.408C517.329 336.625 517.428 336.877 517.645 336.971L518.888 337.511C519.104 337.606 519.356 337.506 519.45 337.289L519.989 336.044C520.083 335.827 519.984 335.575 519.767 335.481Z" fill="#42E8E0" fill-opacity="0.5"/>
<path d="M525.808 288.911L524.565 288.37C524.348 288.276 524.097 288.375 524.003 288.592L523.463 289.837C523.369 290.054 523.468 290.307 523.685 290.401L524.927 290.941C525.144 291.036 525.396 290.936 525.49 290.719L526.029 289.474C526.124 289.257 526.024 289.005 525.808 288.911Z" fill="#42E8E0" fill-opacity="0.5"/>
<path d="M433.991 354.934L432.749 354.394C432.532 354.3 432.28 354.399 432.186 354.616L431.647 355.861C431.553 356.078 431.652 356.33 431.869 356.425L433.111 356.965C433.328 357.059 433.58 356.959 433.674 356.742L434.213 355.498C434.307 355.281 434.208 355.028 433.991 354.934Z" fill="#42E8E0" fill-opacity="0.5"/>
<path d="M395.29 273.436L394.048 272.896C393.831 272.801 393.579 272.901 393.485 273.118L392.946 274.363C392.852 274.58 392.951 274.832 393.168 274.927L394.41 275.467C394.627 275.561 394.879 275.461 394.973 275.244L395.512 274C395.606 273.782 395.507 273.53 395.29 273.436Z" fill="#42E8E0" fill-opacity="0.5"/>
<path d="M292.448 511.096H291.093C290.857 511.096 290.666 511.288 290.666 511.524V512.881C290.666 513.118 290.857 513.31 291.093 513.31H292.448C292.684 513.31 292.875 513.118 292.875 512.881V511.524C292.875 511.288 292.684 511.096 292.448 511.096Z" fill="#42E8E0" fill-opacity="0.5"/>
<path d="M409.175 437.393L407.927 436.858L407.713 436.286L408.248 435.037L408.818 434.822L410.066 435.358C410.28 435.465 410.387 435.715 410.28 435.929L409.745 437.179L409.175 437.393Z" fill="#42E8E0" fill-opacity="0.5"/>
<path d="M135.338 399.721L134.091 399.185L133.877 398.614L134.412 397.364C134.518 397.15 134.768 397.043 134.982 397.15L136.229 397.685L136.443 398.257L135.909 399.506C135.802 399.721 135.552 399.828 135.338 399.721Z" fill="#42E8E0" fill-opacity="0.5"/>
<path d="M338.25 482.434L337.007 481.894C336.791 481.8 336.539 481.899 336.445 482.116L335.906 483.361C335.811 483.578 335.911 483.83 336.128 483.925L337.37 484.465C337.587 484.559 337.839 484.459 337.933 484.242L338.472 482.998C338.566 482.781 338.466 482.528 338.25 482.434Z" fill="#42E8E0" fill-opacity="0.5"/>
<path d="M362.117 305.441L360.874 304.901C360.658 304.807 360.406 304.906 360.312 305.124L359.772 306.368C359.678 306.585 359.778 306.838 359.995 306.932L361.237 307.472C361.454 307.566 361.706 307.467 361.8 307.25L362.339 306.005C362.433 305.788 362.333 305.535 362.117 305.441Z" fill="#42E8E0" fill-opacity="0.5"/>
</g>
<g opacity="0.5">
<path d="M338.461 0H337.107C336.87 0 336.679 0.191847 336.679 0.428502V1.78542C336.679 2.02208 336.87 2.21393 337.107 2.21393H338.461C338.697 2.21393 338.889 2.02208 338.889 1.78542V0.428502C338.889 0.191847 338.697 0 338.461 0Z" fill="#42E8E0" fill-opacity="0.5"/>
<path d="M327.483 152.44H326.129C325.893 152.44 325.701 152.632 325.701 152.868V154.225C325.701 154.462 325.893 154.654 326.129 154.654H327.483C327.719 154.654 327.911 154.462 327.911 154.225V152.868C327.911 152.632 327.719 152.44 327.483 152.44Z" fill="#42E8E0" fill-opacity="0.5"/>
<path d="M262.366 75.7734H261.011C260.775 75.7734 260.583 75.9653 260.583 76.2019V77.5589C260.583 77.7955 260.775 77.9874 261.011 77.9874H262.366C262.602 77.9874 262.793 77.7955 262.793 77.5589V76.2019C262.793 75.9653 262.602 75.7734 262.366 75.7734Z" fill="#42E8E0" fill-opacity="0.5"/>
<path d="M211.113 130.193H209.758C209.522 130.193 209.331 130.385 209.331 130.622V131.979C209.331 132.215 209.522 132.407 209.758 132.407H211.113C211.349 132.407 211.54 132.215 211.54 131.979V130.622C211.54 130.385 211.349 130.193 211.113 130.193Z" fill="#42E8E0" fill-opacity="0.5"/>
<path d="M168.893 35.2918L167.65 34.7516C167.433 34.6574 167.182 34.757 167.088 34.9741L166.548 36.2189C166.454 36.436 166.554 36.6884 166.77 36.7826L168.013 37.3228C168.23 37.417 168.481 37.3174 168.575 37.1003L169.115 35.8555C169.209 35.6384 169.109 35.3861 168.893 35.2918Z" fill="#42E8E0" fill-opacity="0.5"/>
<path d="M150.912 174.379L149.669 173.839C149.453 173.745 149.201 173.844 149.107 174.061L148.567 175.306C148.473 175.523 148.573 175.776 148.789 175.87L150.032 176.41C150.249 176.504 150.5 176.405 150.595 176.187L151.134 174.943C151.228 174.726 151.128 174.473 150.912 174.379Z" fill="#42E8E0" fill-opacity="0.5"/>
<path d="M94.4607 41.5285L93.2185 40.9879C93.0018 40.8936 92.7499 40.9931 92.6558 41.2102L92.1161 42.4547C92.022 42.6718 92.1214 42.9242 92.338 43.0185L93.5803 43.5591C93.7969 43.6534 94.0488 43.5539 94.143 43.3368L94.6826 42.0923C94.7767 41.8752 94.6774 41.6228 94.4607 41.5285Z" fill="#42E8E0" fill-opacity="0.5"/>
<path d="M45.5567 223.928L44.3093 223.392C44.0954 223.285 43.9885 223.035 44.0954 222.821L44.63 221.571C44.737 221.357 44.9865 221.25 45.2003 221.357L46.4478 221.893L46.6616 222.464L46.127 223.714C46.0201 223.928 45.7706 224.035 45.5567 223.928Z" fill="#42E8E0" fill-opacity="0.5"/>
<path d="M63.1637 129.443L61.9162 128.908C61.7024 128.801 61.5954 128.551 61.7023 128.336L62.237 127.087C62.3439 126.872 62.5934 126.765 62.8072 126.872L64.0547 127.408L64.2686 127.979L63.7339 129.229L63.1637 129.443Z" fill="#42E8E0" fill-opacity="0.5"/>
<path d="M385.009 84.165L383.761 83.6294C383.548 83.5223 383.441 83.2723 383.548 83.0581L384.082 81.8083C384.189 81.594 384.439 81.4869 384.652 81.594L385.9 82.1297L386.114 82.701L385.579 83.9508L385.009 84.165Z" fill="#42E8E0" fill-opacity="0.5"/>
<path d="M427.711 176.313L426.469 175.773C426.252 175.679 426 175.778 425.906 175.995L425.367 177.24C425.273 177.457 425.372 177.71 425.589 177.804L426.831 178.344C427.048 178.438 427.3 178.339 427.394 178.122L427.933 176.877C428.027 176.66 427.928 176.407 427.711 176.313Z" fill="#42E8E0" fill-opacity="0.5"/>
<path d="M526.144 167.512L524.901 166.971C524.684 166.877 524.433 166.977 524.339 167.194L523.799 168.439C523.705 168.656 523.805 168.908 524.021 169.002L525.264 169.542C525.481 169.637 525.732 169.537 525.826 169.32L526.366 168.075C526.46 167.858 526.36 167.606 526.144 167.512Z" fill="#42E8E0" fill-opacity="0.5"/>
<path d="M591.004 138.415L589.762 137.875C589.545 137.781 589.293 137.88 589.199 138.097L588.659 139.342C588.565 139.559 588.665 139.811 588.881 139.905L590.123 140.446C590.34 140.54 590.592 140.441 590.686 140.224L591.226 138.979C591.32 138.762 591.221 138.51 591.004 138.415Z" fill="#42E8E0" fill-opacity="0.5"/>
<path d="M158.577 257.673H157.222C156.986 257.673 156.795 257.864 156.795 258.101V259.458C156.795 259.695 156.986 259.887 157.222 259.887H158.577C158.813 259.887 159.004 259.695 159.004 259.458V258.101C159.004 257.864 158.813 257.673 158.577 257.673Z" fill="#42E8E0" fill-opacity="0.5"/>
<path d="M276.248 181.954L275.006 181.414C274.789 181.32 274.537 181.419 274.443 181.636L273.904 182.881C273.81 183.098 273.909 183.351 274.126 183.445L275.368 183.985C275.585 184.079 275.837 183.98 275.931 183.763L276.47 182.518C276.564 182.301 276.465 182.048 276.248 181.954Z" fill="#42E8E0" fill-opacity="0.5"/>
<path d="M1.50326 146.298L0.255798 145.762C0.0419474 145.655 -0.0649781 145.405 0.0419474 145.191L0.576574 143.941C0.6835 143.727 0.932993 143.619 1.14684 143.727L2.39431 144.262L2.60816 144.834L2.07353 146.083L1.50326 146.298Z" fill="#42E8E0" fill-opacity="0.5"/>
<path d="M204.362 229.033L203.12 228.492C202.903 228.398 202.651 228.497 202.557 228.714L202.018 229.959C201.923 230.176 202.023 230.428 202.239 230.523L203.482 231.063C203.698 231.158 203.95 231.058 204.044 230.841L204.584 229.596C204.678 229.379 204.579 229.127 204.362 229.033Z" fill="#42E8E0" fill-opacity="0.5"/>
<path d="M319.107 61.2043L317.86 60.6687C317.646 60.5616 317.539 60.3116 317.646 60.0974L318.181 58.8476C318.287 58.6333 318.537 58.5262 318.751 58.6333L319.998 59.169C320.212 59.2761 320.319 59.526 320.212 59.7403L319.678 60.9901L319.107 61.2043Z" fill="#42E8E0" fill-opacity="0.5"/>
</g>
</svg>
