<svg width="618" height="515" viewBox="0 0 618 515" fill="none" xmlns="http://www.w3.org/2000/svg">
<g opacity="0.2">
<g opacity="0.4">
<path d="M53.5018 259.408L23.5745 242.096V276.703L53.5018 294.015L83.4458 276.703V242.096L53.5018 259.408Z" fill="#42E8E0"/>
<path d="M53.5018 294.015L23.5745 276.703V242.096L53.5018 259.408V294.015Z" fill="#42E8E0"/>
<path d="M83.4457 276.703L53.5017 294.015V259.408L83.4457 242.096V276.703Z" fill="#2FD3C7"/>
<path d="M53.5018 259.408L23.5745 242.096L53.5018 224.784L83.4458 242.096L53.5018 259.408Z" fill="#42E8E0"/>
<path d="M53.5018 259.408L23.5745 242.096V243.599L53.5018 260.91L83.4458 243.599V242.096L53.5018 259.408Z" fill="white"/>
</g>
<path opacity="0.2" d="M53.5018 238.423L23.5745 221.112L53.5018 203.817L83.4458 221.112L53.5018 238.423Z" fill="#03002D"/>
<path d="M53.5017 250.894L2 221.112L53.5017 191.346L105.003 221.112L53.5017 250.894Z" stroke="#42E8E0" stroke-width="2" stroke-miterlimit="10"/>
<path d="M53.5018 177.59L23.5745 160.295V194.902L53.5018 212.214L83.4458 194.902V160.295L53.5018 177.59Z" fill="#42E8E0"/>
<path d="M53.5018 212.214L23.5745 194.902V160.295L53.5018 177.59V212.214Z" fill="#42E8E0"/>
<path d="M83.4457 194.902L53.5017 212.214V177.59L83.4457 160.295V194.902Z" fill="#2FD3C7"/>
<path d="M53.5018 177.59L23.5745 160.295L53.5018 142.984L83.4458 160.295L53.5018 177.59Z" fill="#42E8E0"/>
<path d="M53.5018 177.59L23.5745 160.295V161.798L53.5018 179.093L83.4458 161.798V160.295L53.5018 177.59Z" fill="white"/>
<g opacity="0.4">
<path d="M223.813 157.641L193.885 140.329V174.936L223.813 192.248L253.757 174.936V140.329L223.813 157.641Z" fill="#42E8E0"/>
<path d="M223.829 192.248L193.885 174.936V140.329L223.829 157.641V192.248Z" fill="#42E8E0"/>
<path d="M253.757 174.936L223.829 192.248V157.641L253.757 140.329V174.936Z" fill="#2FD3C7"/>
<path d="M223.829 157.641L193.885 140.329L223.813 123.034L253.757 140.329L223.829 157.641Z" fill="#42E8E0"/>
<path d="M223.813 157.641L193.885 140.329V141.832L223.813 159.144L253.757 141.832V140.329L223.813 157.641Z" fill="white"/>
</g>
<path opacity="0.2" d="M223.829 136.657L193.885 119.345L223.813 102.05L253.757 119.345L223.829 136.657Z" fill="#03002D"/>
<path d="M223.829 149.127L172.311 119.345L223.813 89.5796L275.331 119.345L223.829 149.127Z" stroke="#42E8E0" stroke-width="2" stroke-miterlimit="10"/>
<path d="M223.813 75.6235L193.885 58.3118V92.9185L223.813 110.23L253.757 92.9185V58.3118L223.813 75.6235Z" fill="#42E8E0"/>
<path d="M223.829 110.23L193.885 92.9185V58.3118L223.829 75.6068V110.23Z" fill="#42E8E0"/>
<path d="M253.757 92.9185L223.829 110.23V75.6068L253.757 58.3118V92.9185Z" fill="#2FD3C7"/>
<path d="M223.829 75.6067L193.885 58.3117L223.813 41L253.757 58.3117L223.829 75.6067Z" fill="#42E8E0"/>
<path d="M223.813 75.6235L193.885 58.3118V59.8142L223.813 77.1092L253.757 59.8142V58.3118L223.813 75.6235Z" fill="white"/>
<path d="M79.6111 206.438L199.554 134.653" stroke="#42E8E0" stroke-width="2" stroke-miterlimit="10"/>
<path opacity="0.1" d="M106.687 198.308C108.824 198.308 110.555 196.574 110.555 194.435C110.555 192.296 108.824 190.562 106.687 190.562C104.551 190.562 102.819 192.296 102.819 194.435C102.819 196.574 104.551 198.308 106.687 198.308Z" fill="#42E8E0"/>
<g filter="url(#filter0_d_755_890)">
<path d="M106.687 193.5C108.824 193.5 110.555 191.766 110.555 189.627C110.555 187.488 108.824 185.754 106.687 185.754C104.551 185.754 102.819 187.488 102.819 189.627C102.819 191.766 104.551 193.5 106.687 193.5Z" fill="#42E8E0"/>
</g>
<g opacity="0.8">
<path opacity="0.1" d="M118.642 191.664C120.778 191.664 122.51 189.929 122.51 187.79C122.51 185.651 120.778 183.917 118.642 183.917C116.505 183.917 114.774 185.651 114.774 187.79C114.774 189.929 116.505 191.664 118.642 191.664Z" fill="#42E8E0"/>
<path d="M118.642 186.856C120.778 186.856 122.51 185.122 122.51 182.983C122.51 180.844 120.778 179.11 118.642 179.11C116.505 179.11 114.774 180.844 114.774 182.983C114.774 185.122 116.505 186.856 118.642 186.856Z" fill="#42E8E0"/>
</g>
<g opacity="0.6">
<path opacity="0.1" d="M130.479 184.752C132.616 184.752 134.347 183.018 134.347 180.879C134.347 178.74 132.616 177.006 130.479 177.006C128.343 177.006 126.611 178.74 126.611 180.879C126.611 183.018 128.343 184.752 130.479 184.752Z" fill="#42E8E0"/>
<path d="M130.479 179.944C132.616 179.944 134.347 178.21 134.347 176.071C134.347 173.932 132.616 172.198 130.479 172.198C128.343 172.198 126.611 173.932 126.611 176.071C126.611 178.21 128.343 179.944 130.479 179.944Z" fill="#42E8E0"/>
</g>
<g opacity="0.4">
<path d="M249.508 368.714L220 351.677V385.736L249.508 402.774L279 385.736V351.677L249.508 368.714Z" fill="#42E8E0"/>
<path d="M249.508 402.774L220 385.736V351.677L249.508 368.714V402.774Z" fill="#42E8E0"/>
<path d="M279 385.736L249.508 402.774V368.714L279 351.677V385.736Z" fill="#2FD3C7"/>
<path d="M249.508 368.714L220 351.677L249.492 334.639L279 351.677L249.508 368.714Z" fill="#42E8E0"/>
<path d="M249.508 368.714L220 351.677V353.155L249.508 370.193L279 353.155V351.677L249.508 368.714Z" fill="white"/>
</g>
<path opacity="0.2" d="M249.508 348.062L220 331.024L249.492 314.002L279 331.024L249.508 348.062Z" fill="#03002D"/>
<path d="M249.508 284.062L220 267.04V301.1L249.508 318.137L279 301.1V267.04L249.508 284.062Z" fill="#42E8E0"/>
<path d="M249.508 318.137L220 301.1V267.04L249.508 284.062V318.137Z" fill="#42E8E0"/>
<path d="M279 301.1L249.508 318.137V284.062L279 267.04V301.1Z" fill="#2FD3C7"/>
<path d="M249.508 284.062L220 267.04L249.492 250.002L279 267.04L249.508 284.062Z" fill="#42E8E0"/>
<path d="M249.508 284.062L220 267.04V268.519L249.508 285.54L279 268.519V267.04L249.508 284.062Z" fill="white"/>
</g>
<g opacity="0.5">
<path d="M498.577 254.075H497.219C496.982 254.075 496.79 254.267 496.79 254.504V255.865C496.79 256.102 496.982 256.295 497.219 256.295H498.577C498.814 256.295 499.006 256.102 499.006 255.865V254.504C499.006 254.267 498.814 254.075 498.577 254.075Z" fill="#42E8E0" fill-opacity="0.5"/>
<path d="M487.605 406.928H486.247C486.01 406.928 485.818 407.12 485.818 407.357V408.718C485.818 408.955 486.01 409.148 486.247 409.148H487.605C487.842 409.148 488.034 408.955 488.034 408.718V407.357C488.034 407.12 487.842 406.928 487.605 406.928Z" fill="#42E8E0" fill-opacity="0.5"/>
<path d="M417.773 373.808H416.414C416.178 373.808 415.986 374 415.986 374.237V375.598C415.986 375.835 416.178 376.028 416.414 376.028H417.773C418.009 376.028 418.201 375.835 418.201 375.598V374.237C418.201 374 418.009 373.808 417.773 373.808Z" fill="#42E8E0" fill-opacity="0.5"/>
<path d="M370.884 384.621H369.526C369.289 384.621 369.097 384.813 369.097 385.051V386.411C369.097 386.648 369.289 386.841 369.526 386.841H370.884C371.12 386.841 371.312 386.648 371.312 386.411V385.051C371.312 384.813 371.12 384.621 370.884 384.621Z" fill="#42E8E0" fill-opacity="0.5"/>
<path d="M346.617 338.468L345.366 337.931L345.152 337.358L345.688 336.105L346.26 335.89L347.511 336.427C347.725 336.534 347.832 336.785 347.725 337L347.189 338.253C347.082 338.468 346.832 338.575 346.617 338.468Z" fill="#42E8E0" fill-opacity="0.5"/>
<path d="M310.541 428.902L309.296 428.361C309.078 428.266 308.826 428.366 308.731 428.584L308.191 429.832C308.096 430.05 308.196 430.303 308.413 430.397L309.659 430.939C309.876 431.033 310.129 430.933 310.223 430.716L310.764 429.468C310.858 429.25 310.759 428.997 310.541 428.902Z" fill="#42E8E0" fill-opacity="0.5"/>
<path d="M253.053 297.793L251.803 297.256C251.588 297.148 251.481 296.898 251.588 296.683L252.124 295.43C252.231 295.215 252.482 295.108 252.696 295.215L253.947 295.752L254.161 296.325L253.625 297.578L253.053 297.793V297.793Z" fill="#42E8E0" fill-opacity="0.5"/>
<path d="M159.322 337.711L158.076 337.17C157.859 337.075 157.606 337.175 157.512 337.393L156.971 338.641C156.877 338.859 156.977 339.112 157.194 339.206L158.44 339.748C158.657 339.842 158.91 339.743 159.004 339.525L159.545 338.277C159.639 338.059 159.539 337.806 159.322 337.711Z" fill="#42E8E0" fill-opacity="0.5"/>
<path d="M205.717 476.56L204.472 476.018C204.254 475.923 204.002 476.023 203.907 476.241L203.366 477.489C203.272 477.706 203.372 477.96 203.589 478.054L204.835 478.596C205.052 478.69 205.305 478.591 205.399 478.373L205.94 477.125C206.034 476.907 205.934 476.654 205.717 476.56Z" fill="#42E8E0" fill-opacity="0.5"/>
<path d="M223.436 381.826L222.19 381.283C221.973 381.189 221.72 381.289 221.626 381.506L221.085 382.754C220.991 382.972 221.09 383.225 221.307 383.32L222.553 383.862C222.77 383.956 223.023 383.856 223.117 383.639L223.658 382.391C223.753 382.173 223.653 381.92 223.436 381.826Z" fill="#42E8E0" fill-opacity="0.5"/>
<path d="M158.418 269.435L157.168 268.898L156.953 268.325L157.489 267.072L158.061 266.857L159.312 267.395C159.526 267.502 159.634 267.753 159.526 267.967L158.99 269.221C158.883 269.435 158.633 269.543 158.418 269.435Z" fill="#42E8E0" fill-opacity="0.5"/>
<path d="M84.2911 359.835L83.0453 359.293C82.828 359.199 82.5754 359.299 82.4811 359.516L81.9405 360.765C81.8462 360.982 81.9459 361.235 82.1631 361.33L83.4089 361.871C83.6262 361.966 83.8788 361.866 83.9731 361.648L84.5138 360.4C84.608 360.183 84.5083 359.93 84.2911 359.835Z" fill="#42E8E0" fill-opacity="0.5"/>
<path d="M83.3674 291.527L82.1166 290.99C81.9022 290.883 81.795 290.632 81.9022 290.417L82.4382 289.164C82.5455 288.949 82.7956 288.842 83.0101 288.949L84.2609 289.486L84.4753 290.059L83.9393 291.312C83.832 291.527 83.5819 291.635 83.3674 291.527Z" fill="#42E8E0" fill-opacity="0.5"/>
<path d="M546.177 336.39L544.931 335.849C544.714 335.754 544.461 335.854 544.367 336.072L543.826 337.32C543.732 337.538 543.832 337.791 544.049 337.885L545.295 338.427C545.512 338.521 545.765 338.421 545.859 338.204L546.4 336.956C546.494 336.738 546.394 336.485 546.177 336.39Z" fill="#42E8E0" fill-opacity="0.5"/>
<path d="M552.234 289.694L550.988 289.152C550.771 289.058 550.518 289.158 550.424 289.375L549.883 290.623C549.788 290.841 549.888 291.094 550.105 291.189L551.351 291.73C551.568 291.825 551.821 291.725 551.915 291.507L552.456 290.259C552.55 290.042 552.451 289.789 552.234 289.694Z" fill="#42E8E0" fill-opacity="0.5"/>
<path d="M460.168 355.897L458.922 355.355C458.705 355.26 458.452 355.36 458.358 355.578L457.817 356.826C457.723 357.044 457.823 357.297 458.04 357.391L459.286 357.933C459.503 358.027 459.756 357.928 459.85 357.71L460.391 356.462C460.485 356.244 460.385 355.991 460.168 355.897Z" fill="#42E8E0" fill-opacity="0.5"/>
<path d="M421.362 274.178L420.116 273.636C419.899 273.541 419.646 273.641 419.552 273.859L419.012 275.107C418.917 275.325 419.017 275.578 419.234 275.672L420.48 276.214C420.697 276.308 420.95 276.209 421.044 275.991L421.585 274.743C421.679 274.525 421.579 274.272 421.362 274.178Z" fill="#42E8E0" fill-opacity="0.5"/>
<path d="M318.241 512.482H316.882C316.646 512.482 316.454 512.674 316.454 512.911V514.272C316.454 514.509 316.646 514.702 316.882 514.702H318.241C318.477 514.702 318.669 514.509 318.669 514.272V512.911C318.669 512.674 318.477 512.482 318.241 512.482Z" fill="#42E8E0" fill-opacity="0.5"/>
<path d="M435.284 438.579L434.034 438.042L433.819 437.469L434.355 436.216L434.927 436.001L436.178 436.539C436.392 436.646 436.499 436.897 436.392 437.111L435.856 438.365L435.284 438.579Z" fill="#42E8E0" fill-opacity="0.5"/>
<path d="M160.705 400.805L159.454 400.268L159.24 399.695L159.776 398.442C159.883 398.227 160.133 398.12 160.348 398.227L161.599 398.764L161.813 399.337L161.277 400.59C161.17 400.805 160.92 400.912 160.705 400.805Z" fill="#42E8E0" fill-opacity="0.5"/>
<path d="M364.167 483.742L362.921 483.201C362.704 483.106 362.451 483.206 362.357 483.424L361.816 484.672C361.722 484.89 361.822 485.143 362.039 485.237L363.285 485.779C363.502 485.873 363.755 485.773 363.849 485.556L364.39 484.307C364.484 484.09 364.384 483.837 364.167 483.742Z" fill="#42E8E0" fill-opacity="0.5"/>
<path d="M388.099 306.27L386.853 305.728C386.636 305.634 386.383 305.734 386.289 305.951L385.748 307.199C385.654 307.417 385.754 307.67 385.971 307.765L387.217 308.306C387.434 308.401 387.687 308.301 387.781 308.083L388.322 306.835C388.416 306.617 388.316 306.364 388.099 306.27Z" fill="#42E8E0" fill-opacity="0.5"/>
</g>
<g opacity="0.5">
<path d="M364.379 0H363.021C362.784 0 362.592 0.192367 362.592 0.429664V1.79027C362.592 2.02756 362.784 2.21993 363.021 2.21993H364.379C364.616 2.21993 364.808 2.02756 364.808 1.79027V0.429664C364.808 0.192367 364.616 0 364.379 0Z" fill="#42E8E0" fill-opacity="0.5"/>
<path d="M353.371 152.853H352.013C351.776 152.853 351.584 153.045 351.584 153.283V154.643C351.584 154.881 351.776 155.073 352.013 155.073H353.371C353.608 155.073 353.8 154.881 353.8 154.643V153.283C353.8 153.045 353.608 152.853 353.371 152.853Z" fill="#42E8E0" fill-opacity="0.5"/>
<path d="M288.077 75.979H286.719C286.482 75.979 286.29 76.1714 286.29 76.4087V77.7693C286.29 78.0066 286.482 78.1989 286.719 78.1989H288.077C288.314 78.1989 288.506 78.0066 288.506 77.7693V76.4087C288.506 76.1714 288.314 75.979 288.077 75.979Z" fill="#42E8E0" fill-opacity="0.5"/>
<path d="M236.685 130.546H235.327C235.09 130.546 234.898 130.739 234.898 130.976V132.337C234.898 132.574 235.09 132.766 235.327 132.766H236.685C236.922 132.766 237.114 132.574 237.114 132.337V130.976C237.114 130.739 236.922 130.546 236.685 130.546Z" fill="#42E8E0" fill-opacity="0.5"/>
<path d="M194.351 35.3875L193.105 34.8459C192.888 34.7514 192.635 34.8513 192.541 35.069L192 36.3171C191.906 36.5348 192.005 36.7878 192.223 36.8823L193.469 37.424C193.686 37.5184 193.938 37.4185 194.033 37.2009L194.573 35.9527C194.668 35.735 194.568 35.482 194.351 35.3875Z" fill="#42E8E0" fill-opacity="0.5"/>
<path d="M176.321 174.852L175.075 174.31C174.858 174.216 174.605 174.316 174.511 174.533L173.97 175.781C173.876 175.999 173.976 176.252 174.193 176.347L175.439 176.888C175.656 176.983 175.909 176.883 176.003 176.665L176.544 175.417C176.638 175.199 176.538 174.946 176.321 174.852Z" fill="#42E8E0" fill-opacity="0.5"/>
<path d="M119.717 41.641L118.471 41.0989C118.254 41.0044 118.001 41.1042 117.907 41.3218L117.366 42.5698C117.272 42.7874 117.371 43.0405 117.588 43.135L118.834 43.6771C119.051 43.7717 119.304 43.6719 119.398 43.4543L119.939 42.2063C120.034 41.9887 119.934 41.7356 119.717 41.641Z" fill="#42E8E0" fill-opacity="0.5"/>
<path d="M70.6804 224.535L69.4296 223.998C69.2152 223.891 69.1079 223.64 69.2152 223.425L69.7512 222.172C69.8585 221.957 70.1086 221.85 70.3231 221.957L71.5739 222.494L71.7883 223.067L71.2522 224.32C71.145 224.535 70.8949 224.643 70.6804 224.535Z" fill="#42E8E0" fill-opacity="0.5"/>
<path d="M88.335 129.794L87.0841 129.257C86.8697 129.15 86.7625 128.899 86.8697 128.684L87.4058 127.431C87.513 127.216 87.7632 127.109 87.9776 127.216L89.2284 127.754L89.4429 128.326L88.9068 129.58L88.335 129.794Z" fill="#42E8E0" fill-opacity="0.5"/>
<path d="M411.053 84.3933L409.802 83.8562C409.588 83.7488 409.481 83.4982 409.588 83.2834L410.124 82.0302C410.231 81.8153 410.481 81.7079 410.696 81.8153L411.947 82.3524L412.161 82.9253L411.625 84.1785L411.053 84.3933Z" fill="#42E8E0" fill-opacity="0.5"/>
<path d="M453.871 176.791L452.625 176.25C452.408 176.155 452.155 176.255 452.061 176.473L451.521 177.721C451.426 177.939 451.526 178.192 451.743 178.286L452.989 178.828C453.206 178.922 453.459 178.822 453.553 178.605L454.094 177.357C454.188 177.139 454.088 176.886 453.871 176.791Z" fill="#42E8E0" fill-opacity="0.5"/>
<path d="M552.57 167.966L551.325 167.424C551.107 167.33 550.855 167.429 550.76 167.647L550.22 168.895C550.125 169.113 550.225 169.366 550.442 169.46L551.688 170.002C551.906 170.097 552.158 169.997 552.252 169.779L552.793 168.531C552.887 168.313 552.788 168.06 552.57 167.966Z" fill="#42E8E0" fill-opacity="0.5"/>
<path d="M617.607 138.791L616.361 138.249C616.144 138.154 615.891 138.254 615.797 138.471L615.256 139.719C615.161 139.937 615.261 140.19 615.478 140.285L616.724 140.827C616.941 140.921 617.194 140.822 617.288 140.604L617.829 139.356C617.924 139.138 617.824 138.885 617.607 138.791Z" fill="#42E8E0" fill-opacity="0.5"/>
<path d="M184.007 258.371H182.649C182.412 258.371 182.22 258.564 182.22 258.801V260.162C182.22 260.399 182.412 260.591 182.649 260.591H184.007C184.244 260.591 184.436 260.399 184.436 260.162V258.801C184.436 258.564 184.244 258.371 184.007 258.371Z" fill="#42E8E0" fill-opacity="0.5"/>
<path d="M301.997 182.448L300.752 181.906C300.534 181.812 300.282 181.912 300.187 182.129L299.647 183.377C299.552 183.595 299.652 183.848 299.869 183.943L301.115 184.484C301.333 184.579 301.585 184.479 301.679 184.261L302.22 183.013C302.314 182.795 302.215 182.542 301.997 182.448Z" fill="#42E8E0" fill-opacity="0.5"/>
<path d="M26.5073 146.694L25.2565 146.157C25.0421 146.05 24.9348 145.799 25.0421 145.584L25.5781 144.331C25.6854 144.116 25.9355 144.009 26.15 144.116L27.4008 144.653L27.6152 145.226L27.0792 146.48L26.5073 146.694V146.694Z" fill="#42E8E0" fill-opacity="0.5"/>
<path d="M229.916 229.654L228.671 229.112C228.453 229.017 228.201 229.117 228.106 229.335L227.565 230.582C227.471 230.8 227.571 231.053 227.788 231.148L229.033 231.69C229.251 231.784 229.503 231.685 229.598 231.467L230.139 230.219C230.233 230.001 230.134 229.748 229.916 229.654Z" fill="#42E8E0" fill-opacity="0.5"/>
<path d="M344.973 61.3704L343.722 60.8333C343.507 60.7259 343.4 60.4752 343.507 60.2604L344.043 59.0072C344.151 58.7924 344.401 58.685 344.615 58.7924L345.866 59.3295C346.081 59.4369 346.188 59.6875 346.081 59.9023L345.544 61.1555L344.973 61.3704Z" fill="#42E8E0" fill-opacity="0.5"/>
</g>
<defs>
<filter id="filter0_d_755_890" x="99.4193" y="182.354" width="14.5361" height="14.5461" filterUnits="userSpaceOnUse" color-interpolation-filters="sRGB">
<feFlood flood-opacity="0" result="BackgroundImageFix"/>
<feColorMatrix in="SourceAlpha" type="matrix" values="0 0 0 0 0 0 0 0 0 0 0 0 0 0 0 0 0 0 127 0" result="hardAlpha"/>
<feOffset/>
<feGaussianBlur stdDeviation="1.7"/>
<feColorMatrix type="matrix" values="0 0 0 0 0.258824 0 0 0 0 0.909804 0 0 0 0 0.878431 0 0 0 0.75 0"/>
<feBlend mode="normal" in2="BackgroundImageFix" result="effect1_dropShadow_755_890"/>
<feBlend mode="normal" in="SourceGraphic" in2="effect1_dropShadow_755_890" result="shape"/>
</filter>
</defs>
</svg>
