<svg width="149" height="43" viewBox="0 0 149 43" fill="none" xmlns="http://www.w3.org/2000/svg">
<path d="M18.4985 42C18.1411 42 17.7802 41.9081 17.4568 41.7243L1.05871 32.3729C0.405102 31.9984 0 31.3039 0 30.5482V11.5833C0 10.8344 0.398294 10.1399 1.0485 9.76544L17.4466 0.281286C18.1002 -0.0965819 18.907 -0.0931776 19.5572 0.288095L27.4993 4.75103L23.1351 7.30079L18.4917 4.52635L4.1974 12.7918V29.3261L18.4951 37.4792L32.7316 29.3295V15.2394L19.4994 22.4223C18.8355 22.7832 18.0253 22.7594 17.3853 22.3577L10.3012 17.9288L14.3999 15.539L18.57 18.1466L33.8243 9.86417C34.4745 9.51013 35.2609 9.52715 35.9009 9.90502C36.5375 10.2829 36.9256 10.9705 36.9256 11.7093V30.5448C36.9256 31.2971 36.5239 31.9916 35.8703 32.3661L19.5368 41.7175C19.2134 41.9013 18.8526 41.9932 18.4917 41.9932L18.4985 42Z" fill="#00A8B3"/>
<path d="M4.20082 29.3296V12.7953L18.4951 4.52989L23.1385 7.30433L27.5027 4.75457L19.5607 0.291633C18.9105 -0.0896395 18.1037 -0.0896396 17.45 0.284825L1.05192 9.76898C0.405117 10.1434 0.00341797 10.8379 0.00341797 11.5868V30.5517C0.00341797 31.0351 0.183843 31.4845 0.476606 31.8522L4.20082 29.333V29.3296Z" fill="url(#paint0_linear_137_3866)"/>
<path d="M64.1783 28.9618C65.4639 28.9618 66.7104 28.7773 67.9177 28.4084C69.1251 28.0283 70.0586 27.5476 70.7181 26.9663V23.6964H64.9497V20.0407H75.2457V28.727C73.9937 30.0126 72.3615 31.0188 70.3492 31.7454C68.3481 32.4721 66.2464 32.8354 64.0441 32.8354C61.4841 32.8354 59.3097 32.3603 57.5211 31.41C55.7436 30.4486 54.3909 29.0568 53.463 27.2346C52.5351 25.4012 52.0712 23.1821 52.0712 20.5773C52.0712 16.687 53.1108 13.7077 55.1902 11.6396C57.2695 9.56021 60.26 8.52054 64.1615 8.52054C66.934 8.52054 69.2034 9.03479 70.9697 10.0633C72.736 11.0806 73.9937 12.6177 74.7427 14.6747L70.1815 16.0498C69.6897 14.8536 68.9183 13.9481 67.8674 13.3332C66.8166 12.7183 65.5813 12.4109 64.1615 12.4109C61.8362 12.4109 60.0699 13.1152 58.8626 14.5238C57.6552 15.9324 57.0515 17.9502 57.0515 20.5773C57.0515 23.2492 57.672 25.3173 58.9129 26.7818C60.1649 28.2351 61.9201 28.9618 64.1783 28.9618ZM85.2903 26.4632L83.1942 32.5H78.2474L86.8665 8.87269H92.7021L101.288 32.5H96.3913L94.2951 26.4632H85.2903ZM89.7843 12.5115C89.6725 12.9587 89.516 13.4953 89.3148 14.1213C89.1136 14.7474 88.9682 15.189 88.8788 15.4461L86.397 22.7405H93.1884L90.6395 15.2952C90.483 14.8368 90.3377 14.3729 90.2035 13.9033C90.0694 13.4338 89.9297 12.9699 89.7843 12.5115ZM125.569 20.5103C125.569 23.0368 125.077 25.1944 124.093 26.983C123.121 28.7717 121.768 30.1412 120.035 31.0914C118.314 32.0305 116.324 32.5 114.066 32.5H104.507V8.87269H113.059C117.039 8.87269 120.119 9.87882 122.299 11.8911C124.479 13.8922 125.569 16.7652 125.569 20.5103ZM120.589 20.5103C120.589 17.9726 119.929 16.0386 118.61 14.7082C117.291 13.3667 115.407 12.696 112.959 12.696H109.454V28.6767H113.646C115.066 28.6767 116.29 28.3469 117.319 27.6873C118.358 27.0166 119.163 26.0719 119.733 24.8534C120.304 23.6349 120.589 22.1872 120.589 20.5103ZM139.99 12.696V32.5H135.043V12.696H127.414V8.87269H147.637V12.696H139.99Z" fill="#E5E7EB"/>
<defs>
<linearGradient id="paint0_linear_137_3866" x1="-11.0637" y1="42.2861" x2="22.604" y2="-4.45725" gradientUnits="userSpaceOnUse">
<stop offset="0.25" stop-color="#00A8B3"/>
<stop offset="0.35" stop-color="#35968C"/>
<stop offset="0.62" stop-color="#C36828"/>
<stop offset="0.73" stop-color="#FD5600"/>
</linearGradient>
</defs>
</svg>
