<svg width="45" height="45" viewBox="0 0 45 45" fill="none" xmlns="http://www.w3.org/2000/svg">
<path d="M22.2615 34.3636C22.0943 34.3636 21.9256 34.3207 21.7744 34.2347L14.1078 29.8626C13.8022 29.6876 13.6128 29.3629 13.6128 29.0095V20.1428C13.6128 19.7927 13.799 19.468 14.103 19.2929L21.7697 14.8588C22.0752 14.6821 22.4524 14.6837 22.7564 14.862L26.4696 16.9485L24.4292 18.1406L22.2583 16.8435L15.5752 20.7078V28.4382L22.2599 32.25L28.9159 28.4398V21.8522L22.7294 25.2104C22.419 25.3791 22.0402 25.368 21.741 25.1802L18.4289 23.1095L20.3452 21.9923L22.2949 23.2114L29.4268 19.3391C29.7308 19.1736 30.0984 19.1815 30.3976 19.3582C30.6953 19.5348 30.8767 19.8563 30.8767 20.2017V29.008C30.8767 29.3597 30.6889 29.6844 30.3833 29.8594L22.7469 34.2315C22.5957 34.3175 22.427 34.3604 22.2583 34.3604L22.2615 34.3636Z" fill="#00A8B3"/>
<path d="M15.5767 28.4397V20.7094L22.2597 16.845L24.4307 18.1422L26.4711 16.9501L22.7579 14.8635C22.4539 14.6853 22.0767 14.6853 21.7711 14.8603L14.1045 19.2945C13.8021 19.4696 13.6143 19.7942 13.6143 20.1444V29.0111C13.6143 29.2371 13.6986 29.4472 13.8355 29.6191L15.5767 28.4413V28.4397Z" fill="url(#paint0_linear_776_799)"/>
<path fill-rule="evenodd" clip-rule="evenodd" d="M39.2724 24.1364C39.2724 21.0227 38.471 18.1104 37.0616 15.5881L39.9185 13.9917C41.5956 16.993 42.5451 20.4537 42.5451 24.1364C42.5451 35.6592 33.2026 45 21.6777 45C10.1527 45 0.817871 35.6592 0.817871 24.1364C0.817871 12.6135 10.1604 3.27274 21.6853 3.27274C25.4453 3.27274 28.9679 4.26806 32.0157 6.00606L30.3945 8.84903C27.8256 7.38411 24.8597 6.54546 21.6853 6.54546C11.9673 6.54546 4.0906 14.4216 4.0906 24.1364C4.0906 33.8527 11.9612 41.7273 21.6777 41.7273C31.3957 41.7273 39.2724 33.8512 39.2724 24.1364Z" fill="#00A8B3"/>
<path fill-rule="evenodd" clip-rule="evenodd" d="M31.2378 7.34924L28.5059 1.51179L31.4701 0.124573L35.8528 9.48947L25.7915 12.2158L24.9355 9.05696L31.2378 7.34924Z" fill="#00A8B3"/>
<defs>
<linearGradient id="paint0_linear_776_799" x1="8.44002" y1="34.4973" x2="24.1808" y2="12.6433" gradientUnits="userSpaceOnUse">
<stop offset="0.25" stop-color="#00A8B3"/>
<stop offset="0.35" stop-color="#35968C"/>
<stop offset="0.62" stop-color="#C36828"/>
<stop offset="0.73" stop-color="#FD5600"/>
</linearGradient>
</defs>
</svg>
