<svg width="45" height="45" viewBox="0 0 45 45" fill="none" xmlns="http://www.w3.org/2000/svg">
<path fill-rule="evenodd" clip-rule="evenodd" d="M9.31647 15.7782C9.27757 15.7782 9.23876 15.7787 9.20006 15.7795C8.01234 15.8057 6.92009 16.2321 6.04647 16.9323C4.80109 17.9305 4 19.4852 4 21.2306V26.32C4 36.3514 11.941 44.4953 21.7224 44.4953H22.2788C32.059 44.4953 40 36.3514 40 26.3213V21.2318C40 18.2223 37.6181 15.7795 34.6835 15.7795H9.31647V15.7782ZM9.24767 19.0495C8.22217 19.0878 7.27 19.9767 7.27 21.2306V26.32C7.27 34.6237 13.8242 41.2253 21.7224 41.2253H22.2788C30.1758 41.2253 36.73 34.6237 36.73 26.3213V21.2318C36.73 19.95 35.7348 19.0495 34.6835 19.0495H9.24767Z" fill="#00A8B3"/>
<path fill-rule="evenodd" clip-rule="evenodd" d="M21.9767 4.635C18.9234 4.635 16.3784 7.185 16.3784 10.4181V18.0773H13.1084V10.4181C13.1084 5.45729 17.0402 1.365 21.9767 1.365C26.9131 1.365 30.8449 5.45729 30.8449 10.4181V18.0786H27.5749V10.4181C27.5749 7.185 25.0299 4.635 21.9767 4.635Z" fill="#00A8B3"/>
<path d="M22 32C23.6569 32 25 30.6569 25 29C25 27.3431 23.6569 26 22 26C20.3431 26 19 27.3431 19 29C19 30.6569 20.3431 32 22 32Z" fill="#FE5701"/>
</svg>
