<svg width="32" height="45" viewBox="0 0 32 45" fill="none" xmlns="http://www.w3.org/2000/svg">
<path fill-rule="evenodd" clip-rule="evenodd" d="M25.0323 15.4469L25.0316 15.4459C22.3311 11.5146 19.2876 7.77602 16.1498 3.94828L16.1454 3.943C16.08 3.86276 16.0165 3.7878 15.9553 3.71812C15.8918 3.7899 15.8259 3.8673 15.7576 3.95037C12.6203 7.77738 9.57752 11.5153 6.87745 15.4459L6.87675 15.4469C4.35227 19.1189 3.26243 23.41 3.2728 28.1636M13.2283 1.87346C14.0631 0.857938 15.0088 0.0175089 15.9545 0C16.9003 0.0175089 17.8518 0.857938 18.6808 1.87346C21.8098 5.69041 24.9388 9.5307 27.7292 13.5928C30.7064 17.9233 31.9207 22.9017 31.909 28.1719C31.8857 37.3524 24.6235 45.1439 16.1647 44.998C16.1297 44.998 16.0947 44.9965 16.0596 44.9951C16.0246 44.9936 15.9896 44.9921 15.9545 44.9921C15.9195 44.9921 15.8845 44.9936 15.8495 44.9951C15.8144 44.9965 15.7794 44.998 15.7444 44.998C7.28555 45.1439 0.0234342 37.3582 8.3338e-05 28.1719C-0.0115921 22.9017 1.20265 17.9233 4.17988 13.5928C6.97031 9.5307 10.0993 5.69041 13.2283 1.87346ZM3.2728 28.1646C3.29277 35.801 9.32051 41.8356 15.6879 41.7257L15.7077 41.7254L15.7132 41.7252C15.7278 41.7246 15.7624 41.7231 15.7997 41.7219C15.839 41.7207 15.8925 41.7194 15.9545 41.7194C16.0166 41.7194 16.0701 41.7207 16.1094 41.7219C16.1443 41.723 16.1767 41.7244 16.1928 41.725L16.1959 41.7252C16.1979 41.7253 16.2014 41.7254 16.2014 41.7254L16.2211 41.7257C22.5882 41.8356 28.6169 35.7953 28.6363 28.1636C28.6467 23.41 27.5568 19.1189 25.0323 15.4469" fill="#00A8B3"/>
<path d="M16.6454 24.5454C15.075 23.9885 13.7141 23.4935 13.7141 22.5653C13.7141 21.5546 14.6353 20.9358 16.101 20.9358C17.5666 20.9358 18.3832 21.3483 19.4719 22.1734L19.6185 22.2765L20.9376 20.8945L20.791 20.7501C19.6813 19.7394 18.5298 19.2032 17.085 19.0588V17.1818H15.2425V19.0588C12.8556 19.3682 11.3691 20.7089 11.3691 22.6065C11.3691 24.8548 13.6931 25.7211 15.745 26.4843C17.3782 27.0824 18.9066 27.66 18.9066 28.7738C18.9066 29.8876 17.9226 30.4858 16.2685 30.4858C14.8028 30.4858 13.4 30.0114 11.9553 29.0007L11.7878 28.8769L10.6362 30.5064L10.7828 30.6302C11.9344 31.5378 13.6303 32.1978 15.2425 32.3628V34.3636H17.085V32.3628C19.6395 32.0534 21.2726 30.5889 21.2726 28.6294C21.2726 26.1749 18.8229 25.3086 16.6454 24.5248V24.5454Z" fill="#FD5600" stroke="#FD5600" stroke-width="0.818182"/>
</svg>
