<svg width="45" height="45" viewBox="0 0 45 45" fill="none" xmlns="http://www.w3.org/2000/svg">
<path d="M3 22.4728C3 11.7119 11.7538 2.99674 22.5553 3C33.2689 3 42.0098 11.795 42 22.5444C41.9886 33.3835 33.2315 42.0889 22.277 41.9993C11.6008 41.9293 3 33.2532 3 22.4728ZM15.0825 17.3179C14.5681 20.7543 14.5681 24.2482 15.0825 27.6846H29.9126C30.4278 24.2483 30.4278 20.7543 29.9126 17.3179H15.0825ZM15.5708 14.6892H29.3462C29.3408 14.5926 29.3266 14.4966 29.3038 14.4026C28.9002 13.2299 28.5535 12.0344 28.0733 10.8927C27.4222 9.35032 26.5481 7.93823 25.2785 6.80791C23.6801 5.38117 21.9449 5.21992 20.2879 6.35676C20.0436 6.52655 19.8119 6.7138 19.5945 6.91703C18.1182 8.28189 17.2148 10.0116 16.5019 11.8553C16.1503 12.7722 15.8882 13.7218 15.5725 14.6925L15.5708 14.6892ZM15.6392 30.3248C15.6459 30.4214 15.6606 30.5173 15.6831 30.6114C16.0852 31.7841 16.4335 32.9796 16.9121 34.1213C17.5631 35.6523 18.4193 37.0529 19.6792 38.1751C20.5093 38.9129 21.442 39.4439 22.5928 39.408C23.6736 39.3738 24.5558 38.8592 25.3338 38.1523C26.8541 36.7695 27.7754 35.0008 28.4949 33.118C28.8399 32.2157 29.1036 31.2824 29.4162 30.3248H15.6392ZM38.5476 27.6944C38.572 27.6374 38.5965 27.5902 38.6127 27.5397C39.6392 24.2942 39.6534 20.8128 38.6534 17.559C38.5818 17.3163 38.4418 17.2984 38.2384 17.3C36.6546 17.3 35.0725 17.3 33.4887 17.3H32.5121C33.0077 20.7465 33.0077 24.2463 32.5121 27.6928L38.5476 27.6944ZM12.3724 17.3179C12.3233 17.3106 12.2738 17.3062 12.2243 17.3049C10.3849 17.3049 8.54562 17.3049 6.70468 17.2968C6.45564 17.2968 6.37912 17.4059 6.32704 17.6046C5.64799 19.7812 5.43611 22.0767 5.70526 24.3409C5.84524 25.4712 6.12521 26.5853 6.33681 27.6814H12.3691C12.2763 25.9419 12.1152 24.2285 12.1152 22.5151C12.1152 20.8017 12.278 19.0704 12.3724 17.3179ZM28.9067 6.87632L28.8318 6.95449L28.9815 7.19066C30.4013 9.38472 31.4147 11.8166 31.9733 14.37C32.0351 14.6436 32.1361 14.7136 32.3949 14.712C33.9916 14.7022 35.5884 14.712 37.1852 14.712C37.2585 14.712 37.3317 14.7039 37.4587 14.6941C35.4859 11.0539 32.6472 8.46756 28.9067 6.8812V6.87632ZM28.8302 38.1702C32.6537 36.5415 35.5038 33.9568 37.4701 30.3117C35.6975 30.3117 34.0063 30.3117 32.3151 30.3117C32.0807 30.3117 32.0335 30.4176 31.9896 30.6179C31.6558 32.2053 31.1311 33.7464 30.427 35.2076C29.9468 36.1865 29.395 37.1327 28.8302 38.1751V38.1702ZM16.0868 38.136L16.1584 38.0562L16.0071 37.8217C14.5846 35.6295 13.5689 33.1986 13.0088 30.6456C12.9486 30.3687 12.846 30.3052 12.5856 30.3068C11.0035 30.3166 9.41969 30.3068 7.83593 30.3068C7.74966 30.3068 7.67315 30.3199 7.52829 30.3297C9.51084 33.9714 12.3463 36.5546 16.0868 38.1409V38.136ZM7.51364 14.712C9.30413 14.712 11.0214 14.712 12.737 14.6974C12.8249 14.6974 12.9616 14.5068 12.9893 14.3846C13.5614 11.8488 14.574 9.43311 15.981 7.24766C16.0445 7.14994 16.0982 7.04733 16.1552 6.94798C12.3479 8.46267 9.51085 11.0491 7.51364 14.712Z" fill="#00A8B3"/>
</svg>
