<svg width="45" height="45" viewBox="0 0 45 45" fill="none" xmlns="http://www.w3.org/2000/svg">
<path fill-rule="evenodd" clip-rule="evenodd" d="M20.4148 23.3641C25.3978 23.3641 29.4374 19.3245 29.4374 14.3414C29.4374 9.35836 25.3978 5.31877 20.4148 5.31877C15.4317 5.31877 11.3921 9.35836 11.3921 14.3414C11.3921 19.3245 15.4317 23.3641 20.4148 23.3641ZM32.7074 14.3414C32.7074 21.1305 27.2038 26.6341 20.4148 26.6341C13.6257 26.6341 8.12207 21.1305 8.12207 14.3414C8.12207 7.55239 13.6257 2.04877 20.4148 2.04877C27.2038 2.04877 32.7074 7.55239 32.7074 14.3414Z" fill="#00A8B3"/>
<path fill-rule="evenodd" clip-rule="evenodd" d="M44.6082 29.8014L30.5238 44.2118L23.938 38.5868L26.0617 36.1003L30.3224 39.7394L42.2696 27.5157L44.6082 29.8014Z" fill="#FD5600"/>
<path fill-rule="evenodd" clip-rule="evenodd" d="M20.6073 27.2448C11.6736 27.2448 4.63475 33.9593 4.63475 42H1.36475C1.36475 31.9366 10.0922 23.9748 20.6073 23.9748C26.2659 23.9748 31.377 26.2655 34.91 29.94L32.5529 32.2064C29.6378 29.1745 25.3783 27.2448 20.6073 27.2448Z" fill="#00A8B3"/>
</svg>
