<svg width="47" height="45" viewBox="0 0 47 45" fill="none" xmlns="http://www.w3.org/2000/svg">
<path fill-rule="evenodd" clip-rule="evenodd" d="M14.5 25L0.970215 31.09L23.5602 41.02L46.1502 31.09L32.5 25L31.1677 27.9863L38.0747 31.0678L23.5602 37.448L9.01565 31.0546L15.8422 27.9819L14.5 25Z" fill="#00A8B3"/>
<path fill-rule="evenodd" clip-rule="evenodd" d="M14.5 16L0.970215 22.1L23.5602 32.03L46.1502 22.1L32.5 16L31.1659 18.9855L38.0803 22.0754L23.5602 28.458L9.01009 22.0621L15.844 18.981L14.5 16Z" fill="#00A8B3"/>
<path fill-rule="evenodd" clip-rule="evenodd" d="M0.970215 13.12L23.5602 23.05L46.1502 13.12L23.5602 3.17999L0.970215 13.12ZM9.09278 13.1185L23.5602 19.478L38.0277 13.1185L23.5602 6.75256L9.09278 13.1185Z" fill="#FD5600"/>
</svg>
