<svg width="45" height="45" viewBox="0 0 45 45" fill="none" xmlns="http://www.w3.org/2000/svg">
<path fill-rule="evenodd" clip-rule="evenodd" d="M36.7322 8.58231C31.8513 8.44302 26.7729 7.50105 22.4282 4.19442C21.7443 4.69533 20.9603 5.24177 20.0815 5.71707C16.2159 7.82555 12.1337 8.50594 8.1953 8.58969C8.20635 10.9695 8.20594 13.3133 8.20553 15.6482C8.20489 19.3371 8.20426 23.0036 8.24879 26.7544L8.24885 26.7599C8.27985 29.7953 9.41974 32.4329 11.6029 34.7891C14.4933 37.8924 18.1653 39.9185 22.4145 41.5954C22.763 41.4336 23.105 41.276 23.4414 41.1211C25.1191 40.3484 26.6556 39.6408 28.1495 38.7929C31.1996 37.0525 33.4048 35.0461 34.8189 32.7273C36.2157 30.4369 36.967 27.637 36.7938 24.0701L36.7937 24.0696C36.603 20.1288 36.6505 16.1178 36.6966 12.2231C36.7111 10.996 36.7255 9.78049 36.7322 8.58231ZM29.7676 41.6377C36.5594 37.7634 40.4653 32.2036 40.0626 23.9114C39.8768 20.0721 39.9225 16.2262 39.9683 12.3784C39.9886 10.6677 40.0089 8.95658 40.0089 7.24547C40.0089 6.28037 40.0089 5.801 39.7693 5.563C39.5228 5.31827 39.0229 5.32875 38.009 5.32875C32.2508 5.31516 26.8146 4.29563 22.6134 0C22.1202 0.342268 21.6518 0.692404 21.193 1.03542C20.3033 1.70053 19.4494 2.33886 18.5196 2.84109C14.7344 4.90734 10.6003 5.41031 6.37223 5.31516C6.32451 5.31434 6.27722 5.31322 6.2305 5.31212C5.50185 5.29493 4.90918 5.28095 4.90918 6.44344C4.93334 9.49591 4.93304 12.5484 4.93274 15.6009C4.93237 19.3317 4.932 23.0625 4.97629 26.7933C5.01656 30.7355 6.5333 34.1339 9.20437 37.0158C12.7479 40.822 17.2042 43.1194 21.9557 44.9273C22.3181 45.0633 22.855 44.9953 23.2174 44.8322C23.7193 44.5966 24.2233 44.3646 24.7274 44.1326C26.4339 43.3469 28.1407 42.5612 29.7676 41.6377ZM8.18197 6.43815C8.18208 6.43443 8.18229 6.43703 8.18202 6.44541C8.18201 6.44299 8.18199 6.44057 8.18197 6.43815Z" fill="#00A8B3"/>
<path d="M27.8185 21.1344C25.2325 24.9255 22.8489 28.4173 20.4652 31.9091L20.2404 31.7719L21.2635 23.9029H17.1821L25.0751 13.0909L25.3112 13.2031L24.2768 21.1344H27.8072H27.8185Z" fill="#FD5600" stroke="#FD5600" stroke-width="0.818182"/>
</svg>
