<svg width="45" height="45" viewBox="0 0 45 45" fill="none" xmlns="http://www.w3.org/2000/svg">
<path d="M23.7453 44.3402C22.5821 44.3402 21.4287 44.3402 20.2656 44.3207C18.6919 44.3011 17.4798 43.2553 17.1964 41.662C16.9716 40.4304 16.7565 39.1988 16.561 37.9575C16.3753 37.889 16.1994 37.8206 16.0332 37.7424C15.2513 38.2898 14.4595 38.8372 13.6678 39.3748L13.1009 39.7658C11.5663 40.8214 10.0023 40.665 8.69255 39.3454L5.73087 36.3349C4.49928 35.0838 4.38198 33.4807 5.41808 32.0537C6.12185 31.0762 6.82561 30.0988 7.53915 29.1311C7.50006 29.0333 7.46096 28.9356 7.42186 28.8378C7.39254 28.7694 7.37299 28.7108 7.34366 28.6423C6.49328 28.4762 5.6429 28.3296 4.78274 28.1732L3.89326 28.0168C1.9579 27.6649 1 26.5017 1 24.5468C1 23.1784 1 21.8197 1.01955 20.4513C1.0391 18.555 2.02632 17.3919 3.89326 17.0791C5.05643 16.8836 6.21959 16.6979 7.38276 16.5219C7.45118 16.3558 7.51961 16.1798 7.5978 16.0137C7.05043 15.2317 6.50306 14.44 5.95568 13.6482L5.58425 13.1106C4.50905 11.5565 4.65567 10.0317 5.99478 8.69255L8.96623 5.76019C9.64068 5.09552 10.3835 4.73387 11.2437 4.65567L11.664 4.61657L12.0452 4.79251C12.1234 4.83161 12.2016 4.86094 12.2798 4.89026C12.5535 4.99778 12.8956 5.13462 13.2377 5.37899C14.2347 6.07298 15.2122 6.78652 16.1896 7.50006C16.3655 7.42186 16.5415 7.34366 16.7272 7.27524C16.9031 6.23914 17.0986 5.22259 17.2844 4.19627L17.3821 3.66844C17.6851 2.02632 18.9167 1 20.5881 1C22.0543 1 23.5205 1 24.9964 1.01955C26.7168 1.02932 27.9581 2.09475 28.2416 3.79551C28.4371 4.988 28.6326 6.19027 28.8085 7.38276C28.9747 7.45118 29.1311 7.50983 29.2875 7.58803C29.8251 7.20682 30.3627 6.82561 30.91 6.43463L32.1905 5.5256C33.6762 4.46996 35.2597 4.6068 36.5499 5.89704C37.5567 6.90381 38.5537 7.92036 39.5605 8.93691C40.7921 10.1881 40.9191 11.8106 39.883 13.2573C39.1793 14.2445 38.4755 15.2317 37.7815 16.2287C37.8206 16.3265 37.8597 16.4242 37.8988 16.5219C37.9184 16.5806 37.9477 16.6295 37.9672 16.6881C38.7199 16.8152 39.4725 16.9422 40.2349 17.0693L41.574 17.2941C43.3139 17.5874 44.3598 18.819 44.35 20.5881C44.35 22.0445 44.3305 23.5009 44.3207 24.9574C44.3011 26.6874 43.265 27.8897 41.5447 28.1829L40.3131 28.3882C39.5116 28.5251 38.7101 28.6619 37.9086 28.789C37.8499 28.9356 37.7815 29.092 37.7131 29.2386C38.2312 29.9619 38.7492 30.6852 39.2673 31.4183L39.8439 32.2394C40.8507 33.6469 40.7139 35.2792 39.4823 36.5011C38.4266 37.5469 37.371 38.583 36.3056 39.6191C35.1424 40.753 33.5394 40.8898 32.2198 39.9612C31.1837 39.2379 30.1476 38.5048 29.1213 37.762C28.9649 37.8304 28.7987 37.8988 28.6423 37.9575C28.4371 39.1891 28.2318 40.4109 28.0168 41.6327C27.7333 43.2846 26.5213 44.3109 24.8596 44.3109C24.4882 44.3109 24.107 44.3109 23.7355 44.3109L23.7453 44.3402ZM20.3438 41.1146C21.8784 41.1342 23.3641 41.144 24.8498 41.1342H24.8694V41.0951C25.1137 39.7169 25.3483 38.3387 25.5731 36.9507C25.7686 35.7582 26.531 35.289 27.1371 35.1131C27.4694 35.0153 27.8115 34.8785 28.1536 34.7025C29.2288 34.1552 30.089 34.5071 30.6168 34.898C31.7506 35.7387 32.904 36.5402 34.0574 37.3514H34.077C35.1326 36.3056 36.1883 35.2792 37.2341 34.2334C37.2537 34.2138 37.2732 34.1943 37.2928 34.1747C37.283 34.1552 37.2635 34.1259 37.2439 34.0965L36.6575 33.2755C36.0417 32.4055 35.4259 31.5356 34.8003 30.6754C34.292 29.9717 34.2138 29.1702 34.5853 28.398C34.8003 27.9581 34.9665 27.5574 35.1033 27.1664C35.3086 26.5995 35.768 25.8957 36.8627 25.7198C37.8402 25.5634 38.8078 25.3972 39.7755 25.231L41.0071 25.0258C41.0071 25.0258 41.0853 25.0062 41.1146 25.0062C41.1146 24.9867 41.1146 24.9574 41.1146 24.9183C41.1342 23.4716 41.144 22.025 41.144 20.5784C41.144 20.5393 41.144 20.5002 41.144 20.4806C41.1146 20.4806 41.0755 20.4611 41.0364 20.4611L39.6876 20.2265C38.7492 20.0701 37.8206 19.9039 36.8823 19.7573C36.0514 19.6205 35.4356 19.1122 35.162 18.3205C35.0935 18.125 35.0153 17.9392 34.9371 17.7438C34.8101 17.4407 34.6928 17.1377 34.595 16.825C34.38 16.1701 34.4875 15.3979 34.8492 14.8505C35.6409 13.6873 36.462 12.5437 37.2732 11.4001C37.3123 11.3414 37.3417 11.3023 37.3612 11.2632C37.3417 11.2437 37.3221 11.2144 37.283 11.1753C36.286 10.1685 35.289 9.16173 34.292 8.15495C34.2431 8.10608 34.204 8.07675 34.1845 8.0572C34.1552 8.07675 34.1063 8.0963 34.0574 8.1354L32.777 9.04443C32.083 9.53316 31.389 10.0219 30.7048 10.5204C30.0206 11.0091 29.2288 11.0873 28.4664 10.7159C28.1145 10.5399 27.7431 10.3738 27.3814 10.2565C26.7265 10.0512 25.9153 9.55271 25.7393 8.31134C25.5536 6.97223 25.3288 5.6429 25.1137 4.31356C25.1137 4.27446 25.104 4.24514 25.0942 4.21582C25.0746 4.21582 25.0453 4.21582 25.0062 4.21582C23.54 4.21582 22.0836 4.19627 20.6175 4.19627C20.6175 4.19627 20.5784 4.19627 20.5588 4.19627C20.5588 4.21582 20.5588 4.22559 20.549 4.25492L20.4513 4.78274C20.2363 5.91658 20.0212 7.0602 19.8355 8.19405C19.6107 9.52338 18.7408 10.0219 18.0468 10.2076C17.7633 10.2858 17.4407 10.4422 17.1377 10.5888C16.3362 10.9993 15.4858 10.9211 14.743 10.3738C13.6482 9.56248 12.5437 8.76097 11.4294 7.97901C11.4099 7.96923 11.3708 7.94968 11.3317 7.93014C11.3023 7.94968 11.273 7.97901 11.2437 8.01811L8.27224 10.9505C8.20382 11.0189 8.16472 11.0678 8.1354 11.1069C8.15495 11.146 8.19405 11.2046 8.24292 11.2828L8.61435 11.8204C9.25947 12.7588 9.90459 13.6971 10.5693 14.6257C11.0482 15.3099 11.1166 16.0919 10.755 16.8445C10.5497 17.2844 10.3542 17.7242 10.188 18.1738C9.89481 18.9558 9.27902 19.4543 8.45796 19.5814C7.11885 19.7769 5.78952 19.9919 4.45041 20.2167C4.36244 20.2265 4.30379 20.246 4.25492 20.2558C4.25492 20.3047 4.24514 20.3731 4.24514 20.4611C4.23537 21.8197 4.22559 23.1784 4.22559 24.537C4.22559 24.6446 4.22559 24.7325 4.23537 24.7814C4.28424 24.801 4.36244 24.8205 4.46995 24.8401L5.35944 24.9965C6.41508 25.1822 7.46096 25.3777 8.51661 25.5829C9.28879 25.7393 9.82639 26.3453 10.061 26.8145C10.1881 27.0784 10.2956 27.3521 10.4031 27.6258C10.4813 27.8311 10.5693 28.0363 10.667 28.2318C11.058 29.0236 10.9798 29.8544 10.4422 30.5679C9.6309 31.6627 8.82939 32.777 8.02788 33.8913C7.99856 33.9304 7.96923 33.9695 7.95946 33.9988C7.97901 34.0183 7.99856 34.0477 8.02788 34.077L10.9896 37.0778C11.058 37.1462 11.1069 37.1853 11.146 37.2146C11.1851 37.1951 11.2437 37.156 11.3219 37.1071L11.8986 36.7161C12.8272 36.0808 13.7557 35.4454 14.6746 34.8003C15.6618 34.1063 16.561 34.3898 17.0009 34.6146C17.3235 34.7807 17.6167 34.9274 17.8415 34.986C18.5746 35.162 19.4934 35.68 19.7084 37.1364C19.9039 38.456 20.1385 39.7658 20.3731 41.0755V41.1049L20.3438 41.1146Z" fill="#00A8B3"/>
<path d="M22.6312 29.6589H22.6019C20.7545 29.6589 19.0244 28.9258 17.7244 27.6062C16.4048 26.2671 15.6815 24.4881 15.7011 22.6017C15.7304 18.7701 18.8973 15.652 22.6899 15.7009C24.5763 15.7106 26.3357 16.4437 27.6455 17.7731C28.9553 19.1024 29.6689 20.8716 29.6591 22.7678C29.6298 26.6385 26.541 29.6589 22.6312 29.6589V29.6589ZM22.6508 18.0956C20.1583 18.0956 18.1154 20.1189 18.0958 22.6212C18.0861 23.8724 18.5552 25.0453 19.4252 25.925C20.2755 26.7852 21.4094 27.2641 22.6117 27.2641H22.6312C25.2117 27.2641 27.2448 25.2799 27.2643 22.7483C27.2643 21.4971 26.8049 20.334 25.9448 19.4543C25.0846 18.5843 23.9214 18.0956 22.6801 18.0956H22.6508V18.0956Z" fill="#FE5701"/>
</svg>
