<svg width="45" height="45" viewBox="0 0 45 45" fill="none" xmlns="http://www.w3.org/2000/svg">
<path fill-rule="evenodd" clip-rule="evenodd" d="M11 27L11 19L13 19L13 27L11 27Z" fill="#00A8B3"/>
<path fill-rule="evenodd" clip-rule="evenodd" d="M32 27L32 19L34 19L34 27L32 27Z" fill="#00A8B3"/>
<path fill-rule="evenodd" clip-rule="evenodd" d="M26 13L18 13V11L26 11V13Z" fill="#00A8B3"/>
<path fill-rule="evenodd" clip-rule="evenodd" d="M26 34H18V32H26V34Z" fill="#00A8B3"/>
<path fill-rule="evenodd" clip-rule="evenodd" d="M15.948 8.052H8.052V15.948H15.948V8.052ZM5 5V19H19V5H5Z" fill="#00A8B3"/>
<path fill-rule="evenodd" clip-rule="evenodd" d="M15.948 29.052H8.052V36.948H15.948V29.052ZM5 26V40H19V26H5Z" fill="#00A8B3"/>
<path fill-rule="evenodd" clip-rule="evenodd" d="M36.948 8.052H29.052V15.948H36.948V8.052ZM26 5V19H40V5H26Z" fill="#00A8B3"/>
<path fill-rule="evenodd" clip-rule="evenodd" d="M36.948 29.052H29.052V36.948H36.948V29.052ZM26 26V40H40V26H26Z" fill="#FE5701"/>
</svg>
