<svg width="45" height="45" viewBox="0 0 45 45" fill="none" xmlns="http://www.w3.org/2000/svg">
<path fill-rule="evenodd" clip-rule="evenodd" d="M19.5 38.73C28.4636 38.73 35.73 31.4636 35.73 22.5C35.73 13.5364 28.4636 6.27 19.5 6.27C10.5364 6.27 3.27 13.5364 3.27 22.5C3.27 31.4636 10.5364 38.73 19.5 38.73ZM19.5 42C30.2696 42 39 33.2696 39 22.5C39 11.7304 30.2696 3 19.5 3C8.73045 3 0 11.7304 0 22.5C0 33.2696 8.73045 42 19.5 42Z" fill="#00A8B3"/>
<path fill-rule="evenodd" clip-rule="evenodd" d="M17.5913 23V10H20.8613V19.165L24.8677 15.3203L27.1318 17.6797L20.3584 24.1797L17.5913 23Z" fill="#00A8B3"/>
<rect x="15" y="29" width="29" height="13" rx="1.86062" fill="#FD5600"/>
<path d="M18 39.2727V32H22.8153V33.2678H19.5376V35.0007H22.4957V36.2685H19.5376V39.2727H18Z" fill="white"/>
<path d="M23.8496 39.2727V32H26.7189C27.2682 32 27.7369 32.0982 28.1252 32.2947C28.5158 32.4889 28.8129 32.7647 29.0165 33.1222C29.2225 33.4773 29.3255 33.8951 29.3255 34.3757C29.3255 34.8587 29.2213 35.2741 29.013 35.6222C28.8046 35.9678 28.5028 36.233 28.1074 36.4176C27.7144 36.6023 27.2386 36.6946 26.6799 36.6946H24.7587V35.4588H26.4313C26.7248 35.4588 26.9687 35.4186 27.1628 35.3381C27.3569 35.2576 27.5014 35.1368 27.5961 34.9759C27.6931 34.8149 27.7417 34.6148 27.7417 34.3757C27.7417 34.1342 27.6931 33.9306 27.5961 33.7649C27.5014 33.5992 27.3558 33.4737 27.1593 33.3885C26.9651 33.3009 26.7201 33.2571 26.4242 33.2571H25.3873V39.2727H23.8496ZM27.7772 35.9631L29.5847 39.2727H27.8873L26.1188 35.9631H27.7772Z" fill="white"/>
<path d="M30.4121 39.2727V32H35.3127V33.2678H31.9498V35.0007H35.0605V36.2685H31.9498V38.005H35.3269V39.2727H30.4121Z" fill="white"/>
<path d="M36.5352 39.2727V32H41.4357V33.2678H38.0728V35.0007H41.1836V36.2685H38.0728V38.005H41.4499V39.2727H36.5352Z" fill="white"/>
</svg>
