<svg width="45" height="45" viewBox="0 0 45 45" fill="none" xmlns="http://www.w3.org/2000/svg">
<path fill-rule="evenodd" clip-rule="evenodd" d="M19.5 38.73C28.4636 38.73 35.73 31.4636 35.73 22.5C35.73 13.5364 28.4636 6.27 19.5 6.27C10.5364 6.27 3.27 13.5364 3.27 22.5C3.27 31.4636 10.5364 38.73 19.5 38.73ZM19.5 42C30.2696 42 39 33.2696 39 22.5C39 11.7304 30.2696 3 19.5 3C8.73045 3 0 11.7304 0 22.5C0 33.2696 8.73045 42 19.5 42Z" fill="#00A8B3"/>
<path fill-rule="evenodd" clip-rule="evenodd" d="M17.5913 23V10H20.8613V19.165L24.8677 15.3203L27.1318 17.6797L20.3584 24.1797L17.5913 23Z" fill="#00A8B3"/>
<rect x="15" y="28" width="30" height="14" rx="1.86062" fill="#FD5600"/>
<path d="M22.7582 33.4103V34.6789H19V33.4103H22.7582ZM19.8603 39.4996V32.9703C19.8603 32.5289 19.9462 32.1629 20.118 31.8722C20.2924 31.5814 20.5303 31.3634 20.8315 31.218C21.1328 31.0727 21.4751 31 21.8583 31C22.1173 31 22.3539 31.0198 22.5679 31.0595C22.7847 31.0991 22.9459 31.1348 23.0516 31.1665L22.7503 32.4351C22.6842 32.414 22.6023 32.3941 22.5045 32.3756C22.4094 32.3571 22.3116 32.3479 22.2111 32.3479C21.9627 32.3479 21.7896 32.406 21.6918 32.5223C21.594 32.636 21.5451 32.7959 21.5451 33.002V39.4996H19.8603Z" fill="white"/>
<path d="M23.79 39.4996V33.4103H25.4273V34.4728H25.4907C25.6017 34.0949 25.788 33.8094 26.0497 33.6165C26.3113 33.4209 26.6126 33.3231 26.9535 33.3231C27.0381 33.3231 27.1293 33.3284 27.2271 33.339C27.3249 33.3496 27.4108 33.3641 27.4848 33.3826V34.8811C27.4055 34.8573 27.2958 34.8362 27.1557 34.8177C27.0157 34.7992 26.8875 34.79 26.7712 34.79C26.5227 34.79 26.3007 34.8441 26.1052 34.9525C25.9122 35.0582 25.7589 35.2062 25.6453 35.3965C25.5343 35.5868 25.4788 35.8062 25.4788 36.0546V39.4996H23.79Z" fill="white"/>
<path d="M30.8495 39.6186C30.2232 39.6186 29.684 39.4917 29.2321 39.238C28.7828 38.9816 28.4366 38.6195 28.1934 38.1517C27.9503 37.6813 27.8287 37.125 27.8287 36.4827C27.8287 35.8564 27.9503 35.3066 28.1934 34.8336C28.4366 34.3605 28.7788 33.9918 29.2202 33.7275C29.6642 33.4632 30.1848 33.3311 30.7821 33.3311C31.1839 33.3311 31.5578 33.3958 31.9041 33.5253C32.2529 33.6522 32.5569 33.8438 32.8159 34.1001C33.0775 34.3565 33.281 34.6789 33.4264 35.0675C33.5717 35.4533 33.6444 35.9053 33.6444 36.4233V36.8871H28.5026V35.8405H32.0547C32.0547 35.5974 32.0019 35.382 31.8961 35.1943C31.7904 35.0067 31.6437 34.86 31.4561 34.7543C31.2711 34.6459 31.0557 34.5917 30.8099 34.5917C30.5535 34.5917 30.3262 34.6512 30.128 34.7701C29.9324 34.8864 29.7792 35.0437 29.6682 35.2419C29.5572 35.4375 29.5003 35.6555 29.4977 35.896V36.8911C29.4977 37.1924 29.5532 37.4527 29.6642 37.6721C29.7778 37.8914 29.9377 38.0606 30.1439 38.1795C30.35 38.2984 30.5945 38.3579 30.8773 38.3579C31.0649 38.3579 31.2367 38.3315 31.3927 38.2786C31.5486 38.2257 31.6821 38.1465 31.7931 38.0407C31.9041 37.935 31.9886 37.8055 32.0468 37.6522L33.6088 37.7553C33.5295 38.1306 33.3669 38.4583 33.1211 38.7385C32.878 39.016 32.5635 39.2327 32.1776 39.3886C31.7944 39.5419 31.3517 39.6186 30.8495 39.6186Z" fill="white"/>
<path d="M37.5216 39.6186C36.8952 39.6186 36.3561 39.4917 35.9041 39.238C35.4548 38.9816 35.1086 38.6195 34.8655 38.1517C34.6223 37.6813 34.5007 37.125 34.5007 36.4827C34.5007 35.8564 34.6223 35.3066 34.8655 34.8336C35.1086 34.3605 35.4509 33.9918 35.8922 33.7275C36.3362 33.4632 36.8569 33.3311 37.4542 33.3311C37.8559 33.3311 38.2299 33.3958 38.5761 33.5253C38.925 33.6522 39.2289 33.8438 39.4879 34.1001C39.7496 34.3565 39.9531 34.6789 40.0984 35.0675C40.2438 35.4533 40.3165 35.9053 40.3165 36.4233V36.8871H35.1747V35.8405H38.7268C38.7268 35.5974 38.6739 35.382 38.5682 35.1943C38.4625 35.0067 38.3158 34.86 38.1281 34.7543C37.9431 34.6459 37.7277 34.5917 37.482 34.5917C37.2256 34.5917 36.9983 34.6512 36.8001 34.7701C36.6045 34.8864 36.4512 35.0437 36.3402 35.2419C36.2292 35.4375 36.1724 35.6555 36.1697 35.896V36.8911C36.1697 37.1924 36.2252 37.4527 36.3362 37.6721C36.4499 37.8914 36.6098 38.0606 36.8159 38.1795C37.0221 38.2984 37.2666 38.3579 37.5493 38.3579C37.737 38.3579 37.9088 38.3315 38.0647 38.2786C38.2206 38.2257 38.3541 38.1465 38.4651 38.0407C38.5761 37.935 38.6607 37.8055 38.7188 37.6522L40.2808 37.7553C40.2015 38.1306 40.039 38.4583 39.7932 38.7385C39.55 39.016 39.2355 39.2327 38.8497 39.3886C38.4664 39.5419 38.0238 39.6186 37.5216 39.6186Z" fill="white"/>
</svg>
