<svg width="45" height="45" viewBox="0 0 45 45" fill="none" xmlns="http://www.w3.org/2000/svg">
<path fill-rule="evenodd" clip-rule="evenodd" d="M19.5 38.73C28.4636 38.73 35.73 31.4636 35.73 22.5C35.73 13.5364 28.4636 6.27 19.5 6.27C10.5364 6.27 3.27 13.5364 3.27 22.5C3.27 31.4636 10.5364 38.73 19.5 38.73ZM19.5 42C30.2696 42 39 33.2696 39 22.5C39 11.7304 30.2696 3 19.5 3C8.73045 3 0 11.7304 0 22.5C0 33.2696 8.73045 42 19.5 42Z" fill="#00A8B3"/>
<path fill-rule="evenodd" clip-rule="evenodd" d="M17.5913 23V10H20.8613V19.165L24.8677 15.3203L27.1318 17.6797L20.3584 24.1797L17.5913 23Z" fill="#00A8B3"/>
<rect x="15" y="28" width="29" height="13" rx="1.86062" fill="#FD5600"/>
<path d="M18 38.2727V31H22.8153V32.2678H19.5376V34.0007H22.4957V35.2685H19.5376V38.2727H18Z" fill="white"/>
<path d="M23.8496 38.2727V31H26.7189C27.2682 31 27.7369 31.0982 28.1252 31.2947C28.5158 31.4889 28.8129 31.7647 29.0165 32.1222C29.2225 32.4773 29.3255 32.8951 29.3255 33.3757C29.3255 33.8587 29.2213 34.2741 29.013 34.6222C28.8046 34.9678 28.5028 35.233 28.1074 35.4176C27.7144 35.6023 27.2386 35.6946 26.6799 35.6946H24.7587V34.4588H26.4313C26.7248 34.4588 26.9687 34.4186 27.1628 34.3381C27.3569 34.2576 27.5014 34.1368 27.5961 33.9759C27.6931 33.8149 27.7417 33.6148 27.7417 33.3757C27.7417 33.1342 27.6931 32.9306 27.5961 32.7649C27.5014 32.5992 27.3558 32.4737 27.1593 32.3885C26.9651 32.3009 26.7201 32.2571 26.4242 32.2571H25.3873V38.2727H23.8496ZM27.7772 34.9631L29.5847 38.2727H27.8873L26.1188 34.9631H27.7772Z" fill="white"/>
<path d="M30.4121 38.2727V31H35.3127V32.2678H31.9498V34.0007H35.0605V35.2685H31.9498V37.005H35.3269V38.2727H30.4121Z" fill="white"/>
<path d="M36.5352 38.2727V31H41.4357V32.2678H38.0728V34.0007H41.1836V35.2685H38.0728V37.005H41.4499V38.2727H36.5352Z" fill="white"/>
</svg>
