<svg width="1013" height="1825" viewBox="0 0 1013 1825" fill="none" xmlns="http://www.w3.org/2000/svg">
<path d="M712.518 193.069C734.179 296.113 665.749 504.547 699.033 547.373C742.792 603.693 784.106 548.518 886.057 590.853C924.451 606.801 979.232 629.536 1012.33 689.809C1084.09 820.441 1044.65 1110.46 936.896 1217.03C860.218 1292.86 905.108 1256.8 722.847 1282.61C522.994 1310.91 479.491 1270.1 366.207 1316.88C239.839 1369.06 116.647 1307.2 62.4864 1131.37C23.9465 1006.28 36.8844 874.198 113.544 769.982C177.905 682.476 232.96 746.674 309.528 666.338C314.93 660.667 351.608 621.031 361.681 554.679C367.521 516.132 365.951 488.872 356.481 453.57C293.598 218.803 353.634 94.277 425.495 46.2713C497.356 -1.76159 664.964 -33.1111 712.518 193.069V193.069Z" fill="url(#paint0_linear_818_868)" fill-opacity="0.7"/>
<path d="M465.494 363.627C535.225 392.059 615.633 590.713 657.732 571.996C713.089 547.397 704.337 465.638 783.257 360.308C812.979 320.644 855.378 264.041 907.203 254.978C1019.53 235.326 1161.55 441.597 1163.35 634.665C1164.63 772.057 1168.57 696.125 1084.64 939.26C992.609 1205.86 946.126 1238.51 911.268 1406.24C872.381 1593.33 770.995 1714.82 642.718 1687.94C551.449 1668.82 484.06 1581.19 466.786 1428.49C452.278 1300.29 518.174 1265.74 514.299 1126.06C514.024 1116.2 511.518 1048.67 479.594 1000.15C461.042 971.986 444.843 959.232 419.846 952.069C253.667 904.311 215.975 761.543 227.763 645.245C239.536 528.933 312.431 301.233 465.494 363.627Z" fill="url(#paint1_linear_818_868)" fill-opacity="0.7"/>
<defs>
<linearGradient id="paint0_linear_818_868" x1="712.921" y1="61.94" x2="253.945" y2="1092.07" gradientUnits="userSpaceOnUse">
<stop stop-color="#42E8E0" stop-opacity="0"/>
<stop offset="0.34375" stop-color="#00A8B3" stop-opacity="0"/>
<stop offset="1" stop-opacity="0.6"/>
</linearGradient>
<linearGradient id="paint1_linear_818_868" x1="452.52" y1="454.241" x2="907.356" y2="1050.88" gradientUnits="userSpaceOnUse">
<stop stop-color="#42E8E0" stop-opacity="0"/>
<stop offset="0.34375" stop-color="#00A8B3" stop-opacity="0"/>
<stop offset="1" stop-opacity="0.6"/>
</linearGradient>
</defs>
</svg>
