<svg width="140" height="161" viewBox="0 0 140 161" fill="none" xmlns="http://www.w3.org/2000/svg">
<path d="M130.569 100.91C130.569 114.097 126.691 123.966 120.161 129.836C118.112 131.685 105.774 140.348 103.243 141.373C94.6629 144.851 93.5578 136.308 81.4216 129.293C54.2757 113.614 32.2737 75.4829 32.2737 44.1256C32.2737 32.1657 24.357 30.3968 29.8223 24.3867C31.2489 22.8188 43.9277 14.0146 45.6557 12.9091C54.6173 7.09996 67.3363 7.58237 81.4216 15.7232C108.567 31.4018 130.569 69.5331 130.569 100.89V100.91Z" fill="url(#paint0_linear_800_781)"/>
<path d="M104.634 140.657C123.826 129.572 123.821 93.6202 104.623 60.3555C85.4252 27.0908 54.3039 9.11037 35.1119 20.1951C15.9199 31.2798 15.9248 67.2321 35.1229 100.497C54.321 133.761 85.4423 151.742 104.634 140.657Z" fill="url(#paint1_linear_800_781)"/>
<path d="M100.463 133.597C117.435 123.795 117.43 91.9992 100.451 62.5802C83.4728 33.1611 55.9504 17.2588 38.9784 27.0613C22.0064 36.8638 22.0118 68.6592 38.9904 98.0782C55.9691 127.497 83.4915 143.4 100.463 133.597Z" stroke="#23E4A1" stroke-width="1.5" stroke-miterlimit="10"/>
<path d="M69.9284 112.971C69.4462 112.83 68.9639 112.549 68.5219 112.127L46.6003 91.0813C45.7162 90.237 45.1937 88.9908 45.2339 87.825L45.9171 58.4175C45.9372 57.2516 46.5199 56.3471 47.404 56.0255L70.0088 47.8846C70.913 47.563 71.998 47.8846 72.8821 48.7289L83.4913 58.8195L77.4835 61.0306L71.2747 54.8797L51.5834 61.9753L50.9806 87.624L70.0892 105.976L89.7001 99.0211L90.2024 77.1715L71.998 83.0209C71.0737 83.3224 69.9887 82.9606 69.1247 82.0761L59.6809 72.3875L65.3271 70.3172L70.8929 76.0258L91.8903 69.2719C92.7944 68.9905 93.8594 69.3121 94.7033 70.1563C95.5472 71.0006 96.0495 72.2066 96.0294 73.3725L95.3463 102.579C95.3262 103.745 94.7435 104.669 93.8393 104.991L71.3349 112.971C70.8929 113.132 70.3906 113.132 69.9083 112.971H69.9284Z" fill="white"/>
<path d="M50.9805 87.624L51.5833 61.9753L71.2746 54.8797L77.4834 61.0306L83.4913 58.8195L72.8821 48.7289C72.0181 47.8846 70.9129 47.563 70.0087 47.8846L47.4039 56.0255C46.5198 56.3471 45.9371 57.2516 45.917 58.4175L45.2339 87.825C45.2339 88.5687 45.4549 89.3526 45.8367 90.036L50.9805 87.624V87.624Z" fill="white"/>
<defs>
<linearGradient id="paint0_linear_800_781" x1="193.019" y1="39.1004" x2="78.3795" y2="75.4578" gradientUnits="userSpaceOnUse">
<stop offset="0.09" stop-color="#23E4A1"/>
<stop offset="0.97" stop-color="#2B52DB"/>
</linearGradient>
<linearGradient id="paint1_linear_800_781" x1="-76.7354" y1="-51.4272" x2="-120.081" y2="33.9513" gradientUnits="userSpaceOnUse">
<stop offset="0.09" stop-color="#23E4A1"/>
<stop offset="0.97" stop-color="#2B52DB"/>
</linearGradient>
</defs>
</svg>
