<svg width="335" height="290" viewBox="0 0 335 290" fill="none" xmlns="http://www.w3.org/2000/svg">
<g opacity="0.5">
<path d="M266.988 143.116H266.225C266.092 143.116 265.984 143.224 265.984 143.358V144.121C265.984 144.255 266.092 144.363 266.225 144.363H266.988C267.122 144.363 267.23 144.255 267.23 144.121V143.358C267.23 143.224 267.122 143.116 266.988 143.116Z" fill="#E5E7EB"/>
<path d="M260.82 228.927H260.056C259.923 228.927 259.815 229.035 259.815 229.168V229.932C259.815 230.065 259.923 230.173 260.056 230.173H260.82C260.953 230.173 261.061 230.065 261.061 229.932V229.168C261.061 229.035 260.953 228.927 260.82 228.927Z" fill="#E5E7EB"/>
<path d="M221.558 210.313H220.794C220.661 210.313 220.553 210.421 220.553 210.555V211.318C220.553 211.452 220.661 211.56 220.794 211.56H221.558C221.691 211.56 221.799 211.452 221.799 211.318V210.555C221.799 210.421 221.691 210.313 221.558 210.313Z" fill="#E5E7EB"/>
<path d="M195.196 216.404H194.432C194.299 216.404 194.191 216.512 194.191 216.645V217.409C194.191 217.542 194.299 217.65 194.432 217.65H195.196C195.329 217.65 195.437 217.542 195.437 217.409V216.645C195.437 216.512 195.329 216.404 195.196 216.404Z" fill="#E5E7EB"/>
<path d="M181.552 190.494L180.849 190.193L180.729 189.871L181.03 189.167L181.352 189.047L182.055 189.348C182.175 189.409 182.236 189.549 182.175 189.67L181.874 190.374C181.814 190.494 181.673 190.554 181.552 190.494Z" fill="#E5E7EB"/>
<path d="M161.28 241.258L160.579 240.954C160.457 240.901 160.315 240.957 160.262 241.079L159.958 241.78C159.905 241.902 159.961 242.044 160.083 242.097L160.784 242.401C160.906 242.454 161.048 242.398 161.101 242.276L161.405 241.575C161.458 241.453 161.402 241.311 161.28 241.258Z" fill="#E5E7EB"/>
<path d="M128.948 167.639L128.245 167.338C128.125 167.278 128.064 167.137 128.125 167.016L128.426 166.313C128.486 166.192 128.627 166.132 128.747 166.192L129.451 166.494L129.571 166.815L129.27 167.519L128.948 167.639Z" fill="#E5E7EB"/>
<path d="M76.2597 190.064L75.5593 189.76C75.4371 189.707 75.2951 189.763 75.2421 189.885L74.9381 190.586C74.8851 190.708 74.9411 190.85 75.0633 190.903L75.7637 191.207C75.8859 191.26 76.0279 191.204 76.0809 191.082L76.3849 190.381C76.4379 190.259 76.3818 190.117 76.2597 190.064Z" fill="#E5E7EB"/>
<path d="M102.342 268.05L101.641 267.745C101.519 267.692 101.377 267.748 101.324 267.871L101.02 268.571C100.967 268.694 101.023 268.836 101.145 268.889L101.845 269.193C101.968 269.246 102.11 269.19 102.163 269.068L102.467 268.367C102.52 268.245 102.464 268.103 102.342 268.05Z" fill="#E5E7EB"/>
<path d="M112.283 214.848L111.583 214.544C111.461 214.491 111.319 214.547 111.266 214.669L110.961 215.369C110.908 215.492 110.964 215.634 111.086 215.687L111.787 215.991C111.909 216.044 112.051 215.988 112.104 215.866L112.408 215.165C112.461 215.043 112.405 214.901 112.283 214.848Z" fill="#E5E7EB"/>
<path d="M75.7419 151.72L75.0386 151.418L74.9181 151.096L75.2194 150.393L75.5409 150.272L76.2442 150.574C76.3648 150.634 76.4251 150.775 76.3648 150.895L76.0634 151.599C76.0031 151.72 75.8624 151.78 75.7419 151.72Z" fill="#E5E7EB"/>
<path d="M34.0938 202.492L33.3934 202.188C33.2712 202.135 33.1292 202.191 33.0762 202.314L32.7722 203.014C32.7192 203.136 32.7753 203.279 32.8974 203.332L33.5978 203.636C33.72 203.689 33.862 203.633 33.915 203.51L34.219 202.81C34.272 202.687 34.2159 202.545 34.0938 202.492Z" fill="#E5E7EB"/>
<path d="M33.5661 164.142L32.8629 163.84C32.7423 163.78 32.6821 163.639 32.7423 163.519L33.0437 162.815C33.104 162.695 33.2447 162.634 33.3652 162.695L34.0685 162.996L34.189 163.318L33.8876 164.021C33.8274 164.142 33.6867 164.202 33.5661 164.142Z" fill="#E5E7EB"/>
<path d="M293.76 189.323L293.06 189.019C292.938 188.966 292.796 189.022 292.743 189.144L292.439 189.845C292.386 189.967 292.442 190.109 292.564 190.162L293.264 190.466C293.387 190.519 293.529 190.463 293.582 190.341L293.886 189.64C293.939 189.518 293.883 189.376 293.76 189.323Z" fill="#E5E7EB"/>
<path d="M297.144 163.137L296.444 162.833C296.321 162.78 296.179 162.836 296.126 162.958L295.822 163.659C295.769 163.781 295.825 163.923 295.947 163.976L296.648 164.28C296.77 164.333 296.912 164.277 296.965 164.155L297.269 163.454C297.322 163.332 297.266 163.19 297.144 163.137Z" fill="#E5E7EB"/>
<path d="M245.404 200.253L244.704 199.949C244.581 199.896 244.439 199.952 244.386 200.074L244.082 200.775C244.029 200.897 244.086 201.039 244.208 201.092L244.908 201.396C245.03 201.449 245.172 201.393 245.225 201.271L245.529 200.57C245.582 200.448 245.526 200.306 245.404 200.253Z" fill="#E5E7EB"/>
<path d="M223.586 154.397L222.886 154.093C222.764 154.04 222.622 154.096 222.569 154.218L222.265 154.919C222.212 155.041 222.268 155.183 222.39 155.236L223.09 155.54C223.213 155.593 223.355 155.537 223.408 155.415L223.712 154.714C223.765 154.592 223.709 154.45 223.586 154.397Z" fill="#E5E7EB"/>
<path d="M165.598 288.184H164.835C164.702 288.184 164.594 288.292 164.594 288.425V289.189C164.594 289.322 164.702 289.43 164.835 289.43H165.598C165.731 289.43 165.839 289.322 165.839 289.189V288.425C165.839 288.292 165.731 288.184 165.598 288.184Z" fill="#E5E7EB"/>
<path d="M231.424 246.696L230.72 246.394L230.6 246.073L230.901 245.369L231.223 245.249L231.926 245.55C232.047 245.61 232.107 245.751 232.047 245.872L231.745 246.575L231.424 246.696Z" fill="#E5E7EB"/>
<path d="M77.0278 225.49L76.3245 225.188L76.2039 224.866L76.5053 224.163C76.5656 224.042 76.7063 223.982 76.8268 224.042L77.5301 224.344L77.6507 224.665L77.3493 225.369C77.289 225.49 77.1483 225.55 77.0278 225.49Z" fill="#E5E7EB"/>
<path d="M191.429 272.025L190.729 271.721C190.607 271.668 190.465 271.724 190.412 271.846L190.108 272.546C190.055 272.669 190.111 272.811 190.233 272.864L190.934 273.168C191.056 273.221 191.198 273.165 191.251 273.043L191.555 272.342C191.608 272.22 191.552 272.078 191.429 272.025Z" fill="#E5E7EB"/>
<path d="M204.885 172.393L204.184 172.089C204.062 172.036 203.92 172.092 203.867 172.214L203.563 172.915C203.51 173.037 203.566 173.179 203.688 173.232L204.389 173.536C204.511 173.589 204.653 173.533 204.706 173.411L205.01 172.71C205.063 172.588 205.007 172.446 204.885 172.393Z" fill="#E5E7EB"/>
</g>
<g opacity="0.5">
<path d="M191.539 0.481079H190.775C190.642 0.481079 190.534 0.58907 190.534 0.722287V1.48612C190.534 1.61934 190.642 1.72733 190.775 1.72733H191.539C191.672 1.72733 191.78 1.61934 191.78 1.48612V0.722287C191.78 0.58907 191.672 0.481079 191.539 0.481079Z" fill="#E5E7EB"/>
<path d="M185.37 86.2914H184.606C184.473 86.2914 184.365 86.3994 184.365 86.5326V87.2964C184.365 87.4296 184.473 87.5376 184.606 87.5376H185.37C185.503 87.5376 185.611 87.4296 185.611 87.2964V86.5326C185.611 86.3994 185.503 86.2914 185.37 86.2914Z" fill="#E5E7EB"/>
<path d="M148.66 43.135H147.896C147.763 43.135 147.655 43.243 147.655 43.3762V44.1401C147.655 44.2733 147.763 44.3813 147.896 44.3813H148.66C148.793 44.3813 148.901 44.2733 148.901 44.1401V43.3762C148.901 43.243 148.793 43.135 148.66 43.135Z" fill="#E5E7EB"/>
<path d="M119.746 73.7687H118.982C118.849 73.7687 118.741 73.8767 118.741 74.0099V74.7737C118.741 74.9069 118.849 75.0149 118.982 75.0149H119.746C119.879 75.0149 119.987 74.9069 119.987 74.7737V74.0099C119.987 73.8767 119.879 73.7687 119.746 73.7687Z" fill="#E5E7EB"/>
<path d="M95.9621 20.3238L95.2617 20.0197C95.1395 19.9667 94.9975 20.0228 94.9445 20.145L94.6405 20.8457C94.5875 20.9679 94.6436 21.1099 94.7657 21.163L95.4662 21.4671C95.5883 21.5201 95.7303 21.464 95.7833 21.3418L96.0873 20.6411C96.1403 20.5189 96.0843 20.3769 95.9621 20.3238Z" fill="#E5E7EB"/>
<path d="M85.8172 98.6162L85.1167 98.3121C84.9946 98.2591 84.8526 98.3151 84.7996 98.4373L84.4956 99.138C84.4426 99.2602 84.4986 99.4023 84.6208 99.4553L85.3212 99.7594C85.4434 99.8125 85.5854 99.7564 85.6384 99.6342L85.9424 98.9335C85.9954 98.8113 85.9393 98.6692 85.8172 98.6162Z" fill="#E5E7EB"/>
<path d="M53.9879 23.8791L53.2876 23.5747C53.1655 23.5217 53.0235 23.5777 52.9704 23.6999L52.6662 24.4005C52.6131 24.5226 52.6691 24.6647 52.7913 24.7178L53.4916 25.0221C53.6137 25.0752 53.7557 25.0192 53.8088 24.897L54.113 24.1964C54.1661 24.0742 54.1101 23.9322 53.9879 23.8791Z" fill="#E5E7EB"/>
<path d="M26.4128 126.513L25.7096 126.212C25.589 126.151 25.5287 126.011 25.589 125.89L25.8904 125.187C25.9507 125.066 26.0914 125.006 26.2119 125.066L26.9152 125.367L27.0357 125.689L26.7343 126.393C26.674 126.513 26.5334 126.573 26.4128 126.513Z" fill="#E5E7EB"/>
<path d="M36.359 73.3264L35.6557 73.0249C35.5352 72.9646 35.4749 72.8239 35.5352 72.7033L35.8366 71.9997C35.8969 71.8791 36.0375 71.8188 36.1581 71.8791L36.8613 72.1806L36.9819 72.5023L36.6805 73.2058L36.359 73.3264Z" fill="#E5E7EB"/>
<path d="M217.78 47.8586L217.077 47.5571C216.957 47.4968 216.896 47.3561 216.957 47.2355L217.258 46.532C217.318 46.4113 217.459 46.3511 217.58 46.4114L218.283 46.7129L218.403 47.0345L218.102 47.738L217.78 47.8586Z" fill="#E5E7EB"/>
<path d="M241.882 99.7129L241.182 99.4088C241.06 99.3557 240.918 99.4118 240.865 99.534L240.561 100.235C240.508 100.357 240.564 100.499 240.686 100.552L241.386 100.856C241.508 100.909 241.65 100.853 241.703 100.731L242.007 100.03C242.06 99.908 242.004 99.7659 241.882 99.7129Z" fill="#E5E7EB"/>
<path d="M297.355 94.7503L296.655 94.4462C296.533 94.3932 296.391 94.4493 296.338 94.5715L296.034 95.2722C295.981 95.3944 296.037 95.5364 296.159 95.5895L296.859 95.8936C296.981 95.9466 297.123 95.8905 297.176 95.7683L297.48 95.0676C297.533 94.9454 297.477 94.8034 297.355 94.7503Z" fill="#E5E7EB"/>
<path d="M333.924 78.3996L333.223 78.0953C333.101 78.0422 332.959 78.0982 332.906 78.2204L332.602 78.921C332.549 79.0432 332.605 79.1853 332.727 79.2383L333.427 79.5426C333.549 79.5957 333.691 79.5397 333.744 79.4175L334.049 78.7169C334.102 78.5948 334.046 78.4527 333.924 78.3996Z" fill="#E5E7EB"/>
<path d="M90.1485 145.529H89.385C89.2518 145.529 89.1439 145.637 89.1439 145.77V146.534C89.1439 146.667 89.2518 146.775 89.385 146.775H90.1485C90.2817 146.775 90.3897 146.667 90.3897 146.534V145.77C90.3897 145.637 90.2817 145.529 90.1485 145.529Z" fill="#E5E7EB"/>
<path d="M156.476 102.9L155.776 102.596C155.653 102.543 155.511 102.599 155.458 102.722L155.154 103.422C155.101 103.545 155.157 103.687 155.28 103.74L155.98 104.044C156.102 104.097 156.244 104.041 156.297 103.918L156.601 103.218C156.654 103.096 156.598 102.954 156.476 102.9Z" fill="#E5E7EB"/>
<path d="M1.5777 82.8341L0.87444 82.5326C0.753881 82.4723 0.693591 82.3316 0.753871 82.2109L1.05527 81.5074C1.11555 81.3868 1.25621 81.3265 1.37677 81.3868L2.08003 81.6883L2.20058 82.0099L1.8992 82.7135L1.5777 82.8341V82.8341Z" fill="#E5E7EB"/>
<path d="M115.927 129.42L115.226 129.116C115.104 129.062 114.962 129.118 114.909 129.241L114.605 129.941C114.552 130.063 114.608 130.205 114.73 130.259L115.43 130.563C115.552 130.616 115.694 130.56 115.748 130.438L116.052 129.737C116.105 129.615 116.049 129.473 115.927 129.42Z" fill="#E5E7EB"/>
<path d="M180.648 34.9338L179.945 34.6323C179.824 34.572 179.764 34.4313 179.824 34.3107L180.126 33.6072C180.186 33.4865 180.327 33.4262 180.447 33.4865L181.15 33.7881C181.271 33.8484 181.331 33.9891 181.271 34.1097L180.97 34.8132L180.648 34.9338Z" fill="#E5E7EB"/>
</g>
</svg>
