<svg width="719" height="745" viewBox="0 0 719 745" fill="none" xmlns="http://www.w3.org/2000/svg">
<g opacity="0.1">
<path d="M144.315 441.015L118.797 426.275V455.741L144.315 470.481L169.819 455.741V426.275L144.315 441.015Z" fill="#42E8E0"/>
<path d="M144.315 470.481L118.797 455.741V426.275L144.315 441.015V470.481Z" fill="#42E8E0"/>
<path d="M169.819 455.741L144.315 470.481V441.015L169.819 426.275V455.741Z" fill="#2FD3C7"/>
<path d="M144.315 441.015L118.797 426.275L144.315 411.535L169.819 426.275L144.315 441.015Z" fill="#42E8E0"/>
<path d="M144.315 441.015L118.797 426.275V427.559L144.315 442.285L169.819 427.559V426.275L144.315 441.015Z" fill="white"/>
</g>
<path opacity="0.2" d="M144.315 423.15L118.797 408.41L144.315 393.684L169.819 408.41L144.315 423.15Z" fill="#03002D"/>
<path d="M144.315 371.367L118.797 356.627V386.093L144.315 400.833L169.819 386.093V356.627L144.315 371.367Z" fill="#42E8E0"/>
<path d="M144.315 400.833L118.797 386.093V356.627L144.315 371.367V400.833Z" fill="#42E8E0"/>
<path d="M169.819 386.093L144.315 400.833V371.367L169.819 356.627V386.093Z" fill="#2FD3C7"/>
<path d="M144.315 371.368L118.798 356.627L144.315 341.902L169.819 356.627L144.315 371.368Z" fill="#42E8E0"/>
<path d="M144.315 371.367L118.797 356.627V357.912L144.315 372.637L169.819 357.912V356.627L144.315 371.367Z" fill="white"/>
<path d="M490.484 570.812C409.95 617.325 279.385 617.325 198.831 570.812C118.298 524.298 118.298 448.88 198.831 402.367C279.365 355.854 409.93 355.854 490.484 402.367C571.017 448.88 571.017 524.298 490.484 570.812Z" fill="#10172D" fill-opacity="0.8"/>
<path d="M475.615 562.229C403.56 603.516 286.518 603.134 214.203 561.364C141.867 519.595 141.646 452.257 213.7 410.97C285.754 369.683 402.797 370.065 475.112 411.835C547.448 453.604 547.669 520.942 475.615 562.249V562.229Z" stroke="url(#paint0_linear_800_566)" stroke-width="4" stroke-miterlimit="10"/>
<path d="M347.541 424.902C251.041 420.402 226.541 453.402 220.041 474.402V354.402H470.541V476.902C453.541 422.902 381.541 424.902 347.541 424.902Z" fill="url(#paint1_linear_800_566)"/>
<path d="M434.162 538.289C384.733 566.832 304.581 566.832 255.152 538.289C205.723 509.745 205.723 463.453 255.152 434.91C304.581 406.367 384.713 406.367 434.162 434.91C483.591 463.453 483.591 509.745 434.162 538.289Z" fill="#22315F"/>
<path d="M255.152 454.227C304.581 425.684 384.733 425.684 434.162 454.227C456.566 467.172 468.28 478.046 470.37 494.971C474.609 473.584 462.574 451.312 434.162 434.91C384.733 406.367 304.581 406.367 255.152 434.91C228.127 450.508 215.91 471.433 218.442 491.836C221.576 476.016 234.134 466.368 255.152 454.227Z" fill="#42E8E0"/>
<g opacity="0.1">
<path d="M632.44 430.179L653.988 449.231L659.7 421.042L638.152 401.99L610.893 411.127L605.167 439.331L632.44 430.179Z" fill="#42E8E0"/>
<path d="M638.152 401.99L659.7 421.042L653.988 449.231L632.44 430.179L638.152 401.99Z" fill="#42E8E0"/>
<path d="M610.893 411.127L638.152 401.99L632.44 430.179L605.167 439.331L610.893 411.127Z" fill="#2FD3C7"/>
<path d="M632.44 430.179L653.988 449.231L626.714 458.382L605.167 439.33L632.44 430.179Z" fill="#42E8E0"/>
<path d="M632.44 430.179L653.988 449.231L654.228 448.015L632.681 428.963L605.421 438.1L605.167 439.33L632.44 430.179Z" fill="white"/>
</g>
<g opacity="0.5">
<path opacity="0.4" d="M636.852 419.218L611.939 404.833L636.852 390.449L661.75 404.833L636.852 419.218Z" fill="#03002D"/>
</g>
<path d="M636.101 443.458C620.035 443.349 604.066 439.763 591.898 432.727L591.897 432.726C579.865 425.784 573.426 416.626 573.426 407.04C573.426 397.454 579.878 388.31 591.898 381.353C604.255 374.214 620.533 370.622 636.851 370.622C653.17 370.622 669.447 374.214 681.805 381.353L681.805 381.353C693.837 388.295 700.277 397.453 700.277 407.04C700.277 416.626 693.824 425.77 681.804 432.727C669.447 439.858 653.17 443.446 636.851 443.446H636.101V443.458Z" stroke="#42E8E0" stroke-opacity="0.4" stroke-width="1.5"/>
<path d="M579.696 374.337L579.697 374.337C595.412 365.261 616.104 360.7 636.838 360.7C657.571 360.7 678.263 365.261 693.979 374.337L693.979 374.337C709.264 383.161 717.512 394.809 717.512 407.054C717.512 419.299 709.278 430.946 693.993 439.77L694.355 440.398L693.993 439.77C678.285 448.84 657.582 453.404 636.852 453.404C616.122 453.404 595.419 448.84 579.711 439.77L579.336 440.42L579.711 439.77C564.425 430.946 556.177 419.299 556.177 407.054C556.177 394.808 564.411 383.161 579.696 374.337Z" stroke="#42E8E0" stroke-opacity="0.2" stroke-width="1.5"/>
<path d="M601.498 386.912L601.498 386.911C611.205 381.307 624.004 378.483 636.847 378.483C649.689 378.483 662.491 381.307 672.205 386.911C681.665 392.383 686.704 399.561 686.704 407.054C686.704 414.547 681.665 421.724 672.206 427.182L672.58 427.831L672.206 427.182C662.492 432.786 649.692 435.61 636.852 435.61C624.012 435.61 611.212 432.786 601.499 427.182C592.039 421.71 586.999 414.533 586.999 407.04C586.999 399.546 592.039 392.369 601.498 386.912Z" stroke="#42E8E0" stroke-width="1.5"/>
<path d="M633.982 379.529L631.126 350.902L607.768 367.691L610.624 396.318L636.838 408.157L660.195 391.382L633.982 379.529Z" fill="#42E8E0"/>
<path d="M610.624 396.318L607.768 367.691L631.126 350.902L633.982 379.529L610.624 396.318Z" fill="#42E8E0"/>
<path d="M636.838 408.157L610.625 396.318L633.982 379.529L660.195 391.382L636.838 408.157Z" fill="#2FD3C7"/>
<path d="M633.981 379.529L631.125 350.902L657.339 362.74L660.195 391.382L633.981 379.529Z" fill="#42E8E0"/>
<path d="M633.981 379.529L631.125 350.902L630.107 351.637L632.963 380.265L659.177 392.104L660.195 391.382L633.981 379.529Z" fill="white"/>
<path opacity="0.4" d="M622.133 401.523H646.07L636.837 408.157L622.133 401.523Z" fill="#03002D"/>
<g opacity="0.1">
<path d="M26.999 536.683L0.155029 521.193V552.188L26.999 567.679L53.8281 552.188V521.193L26.999 536.683Z" fill="#42E8E0"/>
<path d="M26.999 567.679L0.155029 552.188V521.193L26.999 536.683V567.679Z" fill="#42E8E0"/>
<path d="M53.8282 552.188L26.9991 567.679V536.683L53.8282 521.193V552.188Z" fill="#2FD3C7"/>
<path d="M26.999 536.683L0.155029 521.193L26.9841 505.687L53.8281 521.193L26.999 536.683Z" fill="#42E8E0"/>
<path d="M26.999 536.683L0.155029 521.193V522.523L26.999 538.029L53.8281 522.523V521.193L26.999 536.683Z" fill="white"/>
</g>
<path opacity="0.2" d="M26.999 517.888L0.155029 502.398L26.9841 486.892L53.8281 502.398L26.999 517.888Z" fill="#03002D"/>
<path d="M26.999 463.417L0.155029 447.912V478.908L26.999 494.413L53.8281 478.908V447.912L26.999 463.417Z" fill="#42E8E0"/>
<path d="M26.999 494.413L0.155029 478.908V447.912L26.999 463.417V494.413Z" fill="#42E8E0"/>
<path d="M53.8282 478.908L26.9991 494.413V463.417L53.8282 447.912V478.908Z" fill="#2FD3C7"/>
<path d="M26.999 463.417L0.155029 447.912L26.9841 432.421L53.8281 447.912L26.999 463.417Z" fill="#42E8E0"/>
<path d="M26.999 463.417L0.155029 447.912V449.258L26.999 464.763L53.8281 449.258V447.912L26.999 463.417Z" fill="white"/>
<path opacity="0.1" d="M258.282 592.768C261.434 592.768 263.989 590.212 263.989 587.059C263.989 583.906 261.434 581.35 258.282 581.35C255.131 581.35 252.576 583.906 252.576 587.059C252.576 590.212 255.131 592.768 258.282 592.768Z" fill="#23E4A1"/>
<g filter="url(#filter0_d_800_566)">
<path d="M258.282 585.692C261.434 585.692 263.989 583.136 263.989 579.984C263.989 576.831 261.434 574.275 258.282 574.275C255.131 574.275 252.576 576.831 252.576 579.984C252.576 583.136 255.131 585.692 258.282 585.692Z" fill="#23E4A1"/>
</g>
<path opacity="0.1" d="M499.045 441.371C502.196 441.371 504.751 438.815 504.751 435.663C504.751 432.51 502.196 429.954 499.045 429.954C495.893 429.954 493.338 432.51 493.338 435.663C493.338 438.815 495.893 441.371 499.045 441.371Z" fill="#23E4A1"/>
<g filter="url(#filter1_d_800_566)">
<path d="M499.045 434.296C502.196 434.296 504.751 431.74 504.751 428.587C504.751 425.434 502.196 422.878 499.045 422.878C495.893 422.878 493.338 425.434 493.338 428.587C493.338 431.74 495.893 434.296 499.045 434.296Z" fill="#23E4A1"/>
</g>
<g opacity="0.8">
<path opacity="0.1" d="M275.104 596.973C278.256 596.973 280.811 594.417 280.811 591.265C280.811 588.112 278.256 585.556 275.104 585.556C271.953 585.556 269.398 588.112 269.398 591.265C269.398 594.417 271.953 596.973 275.104 596.973Z" fill="#23E4A1"/>
<path d="M275.104 589.898C278.256 589.898 280.811 587.342 280.811 584.189C280.811 581.036 278.256 578.48 275.104 578.48C271.953 578.48 269.398 581.036 269.398 584.189C269.398 587.342 271.953 589.898 275.104 589.898Z" fill="#23E4A1"/>
</g>
<g opacity="0.8">
<path opacity="0.1" d="M484.326 429.806C487.477 429.806 490.032 427.25 490.032 424.097C490.032 420.945 487.477 418.389 484.326 418.389C481.174 418.389 478.619 420.945 478.619 424.097C478.619 427.25 481.174 429.806 484.326 429.806Z" fill="#23E4A1"/>
<path d="M484.326 422.731C487.477 422.731 490.032 420.175 490.032 417.022C490.032 413.869 487.477 411.313 484.326 411.313C481.174 411.313 478.619 413.869 478.619 417.022C478.619 420.175 481.174 422.731 484.326 422.731Z" fill="#23E4A1"/>
</g>
<g opacity="0.5">
<path opacity="0.1" d="M291.926 601.179C295.078 601.179 297.633 598.623 297.633 595.47C297.633 592.317 295.078 589.761 291.926 589.761C288.775 589.761 286.22 592.317 286.22 595.47C286.22 598.623 288.775 601.179 291.926 601.179Z" fill="#23E4A1"/>
<path d="M291.926 594.103C295.078 594.103 297.633 591.547 297.633 588.394C297.633 585.242 295.078 582.686 291.926 582.686C288.775 582.686 286.22 585.242 286.22 588.394C286.22 591.547 288.775 594.103 291.926 594.103Z" fill="#23E4A1"/>
</g>
<g opacity="0.5">
<path opacity="0.1" d="M468.555 420.344C471.707 420.344 474.262 417.788 474.262 414.635C474.262 411.482 471.707 408.927 468.555 408.927C465.404 408.927 462.849 411.482 462.849 414.635C462.849 417.788 465.404 420.344 468.555 420.344Z" fill="#23E4A1"/>
<path d="M468.555 413.268C471.707 413.268 474.262 410.713 474.262 407.56C474.262 404.407 471.707 401.851 468.555 401.851C465.404 401.851 462.849 404.407 462.849 407.56C462.849 410.713 465.404 413.268 468.555 413.268Z" fill="#23E4A1"/>
</g>
<g opacity="0.2">
<path opacity="0.1" d="M308.748 603.281C311.9 603.281 314.454 600.725 314.454 597.573C314.454 594.42 311.9 591.864 308.748 591.864C305.596 591.864 303.042 594.42 303.042 597.573C303.042 600.725 305.596 603.281 308.748 603.281Z" fill="#23E4A1"/>
<path d="M308.748 596.206C311.9 596.206 314.454 593.65 314.454 590.497C314.454 587.344 311.9 584.789 308.748 584.789C305.596 584.789 303.042 587.344 303.042 590.497C303.042 593.65 305.596 596.206 308.748 596.206Z" fill="#23E4A1"/>
</g>
<g opacity="0.2">
<path opacity="0.1" d="M530.52 393.708C533.672 393.708 536.227 391.152 536.227 387.999C536.227 384.846 533.672 382.29 530.52 382.29C527.369 382.29 524.814 384.846 524.814 387.999C524.814 391.152 527.369 393.708 530.52 393.708Z" fill="#23E4A1"/>
<path d="M451.733 405.909C454.885 405.909 457.44 403.353 457.44 400.2C457.44 397.047 454.885 394.492 451.733 394.492C448.582 394.492 446.027 397.047 446.027 400.2C446.027 403.353 448.582 405.909 451.733 405.909Z" fill="#23E4A1"/>
</g>
<path d="M242.875 456.03L448.85 457.739V486.322C448.85 501.538 438.804 516.775 418.69 528.373C378.464 551.61 313.262 551.61 273.035 528.373C252.922 516.755 242.875 501.538 242.875 486.322V456.03V456.03Z" fill="url(#paint2_linear_800_566)"/>
<mask id="mask0_800_566" style="mask-type:alpha" maskUnits="userSpaceOnUse" x="242" y="456" width="207" height="90">
<path d="M242.875 456.03L448.85 457.739V486.322C448.85 501.538 438.804 516.775 418.69 528.373C378.464 551.61 313.262 551.61 273.035 528.373C252.922 516.755 242.875 501.538 242.875 486.322V456.03V456.03Z" fill="url(#paint3_linear_800_566)"/>
</mask>
<g mask="url(#mask0_800_566)">
<path d="M252.862 452.412H249.426V549.217H252.862V452.412Z" fill="#23E4A1"/>
<path d="M264.696 452.412H261.261V549.217H264.696V452.412Z" fill="#23E4A1"/>
<path d="M276.552 452.412H273.116V549.217H276.552V452.412Z" fill="#23E4A1"/>
<path d="M288.387 452.412H284.951V549.217H288.387V452.412Z" fill="#23E4A1"/>
<path d="M300.221 452.412H296.785V549.217H300.221V452.412Z" fill="#23E4A1"/>
<path d="M312.056 452.412H308.62V549.217H312.056V452.412Z" fill="#23E4A1"/>
<path d="M323.891 452.412H320.455V549.217H323.891V452.412Z" fill="#23E4A1"/>
<path d="M335.746 452.412H332.31V549.217H335.746V452.412Z" fill="#23E4A1"/>
<path d="M347.581 452.412H344.145V549.217H347.581V452.412Z" fill="#23E4A1"/>
<path d="M359.416 452.412H355.98V549.217H359.416V452.412Z" fill="#23E4A1"/>
<path d="M371.251 452.412H367.815V549.217H371.251V452.412Z" fill="#23E4A1"/>
<path d="M383.106 452.412H379.67V549.217H383.106V452.412Z" fill="#23E4A1"/>
<path d="M394.941 452.412H391.505V549.217H394.941V452.412Z" fill="#23E4A1"/>
<path d="M406.775 452.412H403.339V549.217H406.775V452.412Z" fill="#23E4A1"/>
<path d="M418.61 452.412H415.174V549.217H418.61V452.412Z" fill="#23E4A1"/>
<path d="M430.465 452.412H427.029V549.217H430.465V452.412Z" fill="#23E4A1"/>
<path d="M442.3 452.412H438.864V549.217H442.3V452.412Z" fill="#23E4A1"/>
</g>
<path d="M418.691 500.855C378.464 524.091 313.262 524.091 273.035 500.855C232.809 477.618 232.809 439.97 273.035 416.733C313.262 393.497 378.464 393.497 418.691 416.733C458.917 439.97 458.917 477.618 418.691 500.855V500.855Z" fill="url(#paint4_linear_800_566)"/>
<path d="M409.468 492.754C374.345 513.036 317.381 513.036 282.258 492.754C247.135 472.473 247.135 439.568 282.258 419.286C317.381 399.004 374.345 399.004 409.468 419.286C444.591 439.568 444.591 472.473 409.468 492.754V492.754Z" stroke="#23E4A1" stroke-width="1.19" stroke-miterlimit="10"/>
<path d="M335.043 423.768L322.022 416.251L310.107 423.125L322.022 430L310.107 436.874L298.192 430L286.277 436.874L298.192 443.749L286.277 450.623L345.853 485.036L357.768 478.161L369.683 485.036L381.599 478.161L369.683 471.287L381.599 464.412L393.514 471.287L405.429 464.412L392.409 456.895C396.106 452.513 395.724 447.347 391.404 443.166C387.084 438.985 379.408 436.331 370.989 436.11C370.628 431.246 366.026 426.804 358.793 424.311C351.539 421.819 342.618 421.598 335.023 423.728L335.043 423.768ZM310.107 450.663L339.905 433.457C343.201 431.547 348.525 431.547 351.82 433.457C355.116 435.367 355.116 438.442 351.82 440.331L322.022 457.538L310.107 450.663ZM375.651 454.101L345.853 471.307L333.938 464.432L363.736 447.226C367.031 445.317 372.356 445.317 375.651 447.226C378.946 449.136 378.946 452.211 375.651 454.101Z" fill="white"/>
<path d="M242.875 422.241L448.85 423.949V452.533C448.85 467.749 438.804 482.985 418.69 494.583C378.464 517.82 313.262 517.82 273.035 494.583C252.922 482.965 242.875 467.749 242.875 452.533V422.241V422.241Z" fill="url(#paint5_linear_800_566)"/>
<mask id="mask1_800_566" style="mask-type:alpha" maskUnits="userSpaceOnUse" x="242" y="422" width="207" height="91">
<path d="M242.875 422.241L448.85 423.949V452.533C448.85 467.749 438.804 482.985 418.69 494.583C378.464 517.82 313.262 517.82 273.035 494.583C252.922 482.965 242.875 467.749 242.875 452.533V422.241V422.241Z" fill="url(#paint6_linear_800_566)"/>
</mask>
<g mask="url(#mask1_800_566)">
<path d="M252.862 418.602H249.426V515.408H252.862V418.602Z" fill="#23E4A1"/>
<path d="M264.696 418.602H261.261V515.408H264.696V418.602Z" fill="#23E4A1"/>
<path d="M276.552 418.602H273.116V515.408H276.552V418.602Z" fill="#23E4A1"/>
<path d="M288.387 418.602H284.951V515.408H288.387V418.602Z" fill="#23E4A1"/>
<path d="M300.221 418.602H296.785V515.408H300.221V418.602Z" fill="#23E4A1"/>
<path d="M312.056 418.602H308.62V515.408H312.056V418.602Z" fill="#23E4A1"/>
<path d="M323.891 418.602H320.455V515.408H323.891V418.602Z" fill="#23E4A1"/>
<path d="M335.746 418.602H332.31V515.408H335.746V418.602Z" fill="#23E4A1"/>
<path d="M347.581 418.602H344.145V515.408H347.581V418.602Z" fill="#23E4A1"/>
<path d="M359.416 418.602H355.98V515.408H359.416V418.602Z" fill="#23E4A1"/>
<path d="M371.251 418.602H367.815V515.408H371.251V418.602Z" fill="#23E4A1"/>
<path d="M383.106 418.602H379.67V515.408H383.106V418.602Z" fill="#23E4A1"/>
<path d="M394.941 418.602H391.505V515.408H394.941V418.602Z" fill="#23E4A1"/>
<path d="M406.775 418.602H403.339V515.408H406.775V418.602Z" fill="#23E4A1"/>
<path d="M418.61 418.602H415.174V515.408H418.61V418.602Z" fill="#23E4A1"/>
<path d="M430.465 418.602H427.029V515.408H430.465V418.602Z" fill="#23E4A1"/>
<path d="M442.3 418.602H438.864V515.408H442.3V418.602Z" fill="#23E4A1"/>
</g>
<path d="M418.691 467.065C378.464 490.302 313.262 490.302 273.035 467.065C232.809 443.829 232.809 406.18 273.035 382.944C313.262 359.707 378.464 359.707 418.691 382.944C458.917 406.18 458.917 443.829 418.691 467.065V467.065Z" fill="url(#paint7_linear_800_566)"/>
<path d="M409.468 458.965C374.345 479.246 317.381 479.246 282.258 458.965C247.135 438.683 247.135 405.778 282.258 385.496C317.381 365.214 374.345 365.214 409.468 385.496C444.591 405.778 444.591 438.683 409.468 458.965V458.965Z" stroke="#23E4A1" stroke-width="1.19" stroke-miterlimit="10"/>
<path d="M335.043 389.959L322.022 382.441L310.107 389.315L322.022 396.19L310.107 403.064L298.192 396.19L286.277 403.064L298.192 409.939L286.277 416.813L345.853 451.226L357.768 444.351L369.683 451.226L381.599 444.351L369.683 437.477L381.599 430.602L393.514 437.477L405.429 430.602L392.409 423.085C396.106 418.703 395.724 413.537 391.404 409.356C387.084 405.175 379.408 402.522 370.989 402.301C370.628 397.436 366.026 392.994 358.793 390.501C351.539 388.009 342.618 387.788 335.023 389.918L335.043 389.959ZM310.107 416.854L339.905 399.647C343.201 397.738 348.525 397.738 351.82 399.647C355.116 401.557 355.116 404.632 351.82 406.522L322.022 423.728L310.107 416.854ZM375.651 420.291L345.853 437.497L333.938 430.623L363.736 413.416C367.031 411.507 372.356 411.507 375.651 413.416C378.946 415.326 378.946 418.401 375.651 420.291Z" fill="white"/>
<path d="M242.875 388.431L448.85 390.139V418.723C448.85 433.939 438.804 449.176 418.691 460.774C378.464 484.01 313.262 484.01 273.035 460.774C252.922 449.155 242.875 433.939 242.875 418.723V388.431V388.431Z" fill="url(#paint8_linear_800_566)"/>
<mask id="mask2_800_566" style="mask-type:alpha" maskUnits="userSpaceOnUse" x="242" y="388" width="207" height="91">
<path d="M242.875 388.431L448.85 390.139V418.723C448.85 433.939 438.804 449.176 418.691 460.774C378.464 484.01 313.262 484.01 273.035 460.774C252.922 449.155 242.875 433.939 242.875 418.723V388.431V388.431Z" fill="url(#paint9_linear_800_566)"/>
</mask>
<g mask="url(#mask2_800_566)">
<path d="M252.862 384.813H249.426V481.618H252.862V384.813Z" fill="#23E4A1"/>
<path d="M264.697 384.813H261.261V481.618H264.697V384.813Z" fill="#23E4A1"/>
<path d="M276.552 384.813H273.116V481.618H276.552V384.813Z" fill="#23E4A1"/>
<path d="M288.387 384.813H284.951V481.618H288.387V384.813Z" fill="#23E4A1"/>
<path d="M300.221 384.813H296.785V481.618H300.221V384.813Z" fill="#23E4A1"/>
<path d="M312.056 384.813H308.62V481.618H312.056V384.813Z" fill="#23E4A1"/>
<path d="M323.891 384.813H320.455V481.618H323.891V384.813Z" fill="#23E4A1"/>
<path d="M335.746 384.813H332.31V481.618H335.746V384.813Z" fill="#23E4A1"/>
<path d="M347.581 384.813H344.145V481.618H347.581V384.813Z" fill="#23E4A1"/>
<path d="M359.416 384.813H355.98V481.618H359.416V384.813Z" fill="#23E4A1"/>
<path d="M371.251 384.813H367.815V481.618H371.251V384.813Z" fill="#23E4A1"/>
<path d="M383.106 384.813H379.67V481.618H383.106V384.813Z" fill="#23E4A1"/>
<path d="M394.941 384.813H391.505V481.618H394.941V384.813Z" fill="#23E4A1"/>
<path d="M406.775 384.813H403.34V481.618H406.775V384.813Z" fill="#23E4A1"/>
<path d="M418.61 384.813H415.174V481.618H418.61V384.813Z" fill="#23E4A1"/>
<path d="M430.465 384.813H427.029V481.618H430.465V384.813Z" fill="#23E4A1"/>
<path d="M442.3 384.813H438.864V481.618H442.3V384.813Z" fill="#23E4A1"/>
</g>
<path d="M345.853 450.683C402.737 450.683 448.85 424.054 448.85 391.205C448.85 358.356 402.737 331.727 345.853 331.727C288.969 331.727 242.855 358.356 242.855 391.205C242.855 424.054 288.969 450.683 345.853 450.683Z" fill="url(#paint10_linear_800_566)"/>
<path d="M409.468 425.175C374.345 445.457 317.381 445.457 282.258 425.175C247.135 404.893 247.135 371.988 282.258 351.707C317.381 331.425 374.345 331.425 409.468 351.707C444.591 371.988 444.591 404.893 409.468 425.175V425.175Z" stroke="#23E4A1" stroke-width="1.19" stroke-miterlimit="10"/>
<path d="M335.043 356.169L322.022 348.651L310.107 355.526L322.022 362.4L310.107 369.275L298.192 362.4L286.277 369.275L298.192 376.149L286.277 383.024L345.853 417.436L357.768 410.562L369.683 417.436L381.599 410.562L369.683 403.687L381.599 396.813L393.514 403.687L405.429 396.813L392.409 389.295C396.106 384.913 395.724 379.747 391.404 375.566C387.084 371.385 379.408 368.732 370.989 368.511C370.628 363.647 366.026 359.204 358.793 356.712C351.539 354.219 342.618 353.998 335.023 356.129L335.043 356.169ZM310.107 383.064L339.905 365.858C343.201 363.948 348.525 363.948 351.821 365.858C355.116 367.767 355.116 370.843 351.821 372.732L322.022 389.938L310.107 383.064ZM375.651 386.501L345.853 403.707L333.938 396.833L363.736 379.627C367.031 377.717 372.356 377.717 375.651 379.627C378.946 381.536 378.946 384.612 375.651 386.501Z" fill="white"/>
<path d="M242.875 354.642L448.85 356.35V384.934C448.85 400.15 438.804 415.386 418.69 426.984C378.464 450.221 313.262 450.221 273.035 426.984C252.922 415.366 242.875 400.15 242.875 384.934V354.642V354.642Z" fill="url(#paint11_linear_800_566)"/>
<mask id="mask3_800_566" style="mask-type:alpha" maskUnits="userSpaceOnUse" x="242" y="354" width="207" height="91">
<path d="M242.875 354.642L448.85 356.35V384.934C448.85 400.15 438.804 415.386 418.69 426.984C378.464 450.221 313.262 450.221 273.035 426.984C252.922 415.366 242.875 400.15 242.875 384.934V354.642V354.642Z" fill="url(#paint12_linear_800_566)"/>
</mask>
<g mask="url(#mask3_800_566)">
<path d="M252.862 351.023H249.426V447.829H252.862V351.023Z" fill="#23E4A1"/>
<path d="M264.696 351.023H261.261V447.829H264.696V351.023Z" fill="#23E4A1"/>
<path d="M276.552 351.023H273.116V447.829H276.552V351.023Z" fill="#23E4A1"/>
<path d="M288.387 351.023H284.951V447.829H288.387V351.023Z" fill="#23E4A1"/>
<path d="M300.221 351.023H296.785V447.829H300.221V351.023Z" fill="#23E4A1"/>
<path d="M312.056 351.023H308.62V447.829H312.056V351.023Z" fill="#23E4A1"/>
<path d="M323.891 351.023H320.455V447.829H323.891V351.023Z" fill="#23E4A1"/>
<path d="M335.746 351.023H332.31V447.829H335.746V351.023Z" fill="#23E4A1"/>
<path d="M347.581 351.023H344.145V447.829H347.581V351.023Z" fill="#23E4A1"/>
<path d="M359.416 351.023H355.98V447.829H359.416V351.023Z" fill="#23E4A1"/>
<path d="M371.251 351.023H367.815V447.829H371.251V351.023Z" fill="#23E4A1"/>
<path d="M383.106 351.023H379.67V447.829H383.106V351.023Z" fill="#23E4A1"/>
<path d="M394.941 351.023H391.505V447.829H394.941V351.023Z" fill="#23E4A1"/>
<path d="M406.775 351.023H403.339V447.829H406.775V351.023Z" fill="#23E4A1"/>
<path d="M418.61 351.023H415.174V447.829H418.61V351.023Z" fill="#23E4A1"/>
<path d="M430.465 351.023H427.029V447.829H430.465V351.023Z" fill="#23E4A1"/>
<path d="M442.3 351.023H438.864V447.829H442.3V351.023Z" fill="#23E4A1"/>
</g>
<path d="M418.691 399.466C378.464 422.703 313.262 422.703 273.035 399.466C232.809 376.23 232.809 338.581 273.035 315.345C313.262 292.108 378.464 292.108 418.691 315.345C458.917 338.581 458.917 376.23 418.691 399.466V399.466Z" fill="url(#paint13_linear_800_566)"/>
<path d="M409.468 391.366C374.345 411.648 317.381 411.648 282.258 391.366C247.135 371.084 247.135 338.179 282.258 317.897C317.381 297.616 374.345 297.616 409.468 317.897C444.591 338.179 444.591 371.084 409.468 391.366V391.366Z" stroke="#23E4A1" stroke-width="1.19" stroke-miterlimit="10"/>
<path d="M335.043 322.38L322.022 314.862L310.107 321.737L322.022 328.611L310.107 335.485L298.192 328.611L286.277 335.485L298.192 342.36L286.277 349.234L345.853 383.647L357.768 376.773L369.683 383.647L381.599 376.773L369.683 369.898L381.599 363.024L393.514 369.898L405.429 363.024L392.409 355.506C396.106 351.124 395.724 345.958 391.404 341.777C387.084 337.596 379.408 334.943 370.989 334.722C370.628 329.857 366.026 325.415 358.793 322.922C351.539 320.43 342.618 320.209 335.023 322.34L335.043 322.38ZM310.107 349.275L339.905 332.068C343.201 330.159 348.525 330.159 351.82 332.068C355.116 333.978 355.116 337.053 351.82 338.943L322.022 356.149L310.107 349.275ZM375.651 352.712L345.853 369.918L333.938 363.044L363.736 345.837C367.031 343.928 372.356 343.928 375.651 345.837C378.946 347.747 378.946 350.822 375.651 352.712Z" fill="white"/>
<path d="M242.875 320.832L448.85 322.541V351.124C448.85 366.34 438.804 381.577 418.69 393.175C378.464 416.411 313.262 416.411 273.035 393.175C252.922 381.557 242.875 366.34 242.875 351.124V320.832V320.832Z" fill="url(#paint14_linear_800_566)"/>
<mask id="mask4_800_566" style="mask-type:alpha" maskUnits="userSpaceOnUse" x="242" y="320" width="207" height="91">
<path d="M242.875 320.832L448.85 322.541V351.124C448.85 366.34 438.804 381.577 418.69 393.175C378.464 416.411 313.262 416.411 273.035 393.175C252.922 381.557 242.875 366.34 242.875 351.124V320.832Z" fill="url(#paint15_linear_800_566)"/>
</mask>
<g mask="url(#mask4_800_566)">
<path d="M252.861 317.214H249.426V414.019H252.861V317.214Z" fill="#23E4A1"/>
<path d="M264.696 317.214H261.26V414.019H264.696V317.214Z" fill="#23E4A1"/>
<path d="M276.551 317.214H273.115V414.019H276.551V317.214Z" fill="#23E4A1"/>
<path d="M288.386 317.214H284.95V414.019H288.386V317.214Z" fill="#23E4A1"/>
<path d="M300.221 317.214H296.785V414.019H300.221V317.214Z" fill="#23E4A1"/>
<path d="M312.056 317.214H308.62V414.019H312.056V317.214Z" fill="#23E4A1"/>
<path d="M323.891 317.214H320.455V414.019H323.891V317.214Z" fill="#23E4A1"/>
<path d="M335.746 317.214H332.31V414.019H335.746V317.214Z" fill="#23E4A1"/>
<path d="M347.581 317.214H344.145V414.019H347.581V317.214Z" fill="#23E4A1"/>
<path d="M359.415 317.214H355.979V414.019H359.415V317.214Z" fill="#23E4A1"/>
<path d="M371.251 317.214H367.815V414.019H371.251V317.214Z" fill="#23E4A1"/>
<path d="M383.105 317.214H379.669V414.019H383.105V317.214Z" fill="#23E4A1"/>
<path d="M394.94 317.214H391.504V414.019H394.94V317.214Z" fill="#23E4A1"/>
<path d="M406.775 317.214H403.339V414.019H406.775V317.214Z" fill="#23E4A1"/>
<path d="M418.61 317.214H415.174V414.019H418.61V317.214Z" fill="#23E4A1"/>
<path d="M430.465 317.214H427.029V414.019H430.465V317.214Z" fill="#23E4A1"/>
<path d="M442.3 317.214H438.864V414.019H442.3V317.214Z" fill="#23E4A1"/>
</g>
<path d="M418.69 365.677C378.464 388.913 313.262 388.913 273.035 365.677C232.809 342.44 232.809 304.792 273.035 281.555C313.262 258.318 378.464 258.318 418.69 281.555C458.917 304.792 458.917 342.44 418.69 365.677V365.677Z" fill="url(#paint16_linear_800_566)"/>
<path d="M409.468 357.576C374.345 377.858 317.381 377.858 282.258 357.576C247.135 337.295 247.135 304.389 282.258 284.108C317.381 263.826 374.345 263.826 409.468 284.108C444.591 304.389 444.591 337.295 409.468 357.576V357.576Z" stroke="#23E4A1" stroke-width="2" stroke-miterlimit="10"/>
<path d="M361.827 357.094C360.822 357.235 359.757 357.214 358.732 357.033L306.309 347.425C304.219 347.043 302.592 345.998 302.049 344.692L288.547 311.947C288.004 310.661 288.627 309.294 290.174 308.39L329.195 285.475C330.742 284.57 333.013 284.248 335.103 284.651L360.46 289.193L350.092 295.344L335.163 292.409L301.145 312.37L312.92 340.913L358.632 349.295L392.569 329.556L382.543 305.234L350.735 322.902C349.128 323.787 346.857 324.068 344.788 323.626L321.861 318.802L331.606 313.053L345.109 315.887L381.799 295.505C383.366 294.641 385.577 294.339 387.626 294.741C389.676 295.143 391.243 296.168 391.765 297.455L405.188 329.978C405.73 331.284 405.087 332.631 403.54 333.536L364.62 356.189C363.856 356.631 362.912 356.933 361.907 357.094H361.827Z" fill="white"/>
<path d="M312.9 340.913L301.125 312.37L335.143 292.409L350.072 295.344L360.44 289.193L335.083 284.651C332.993 284.248 330.743 284.57 329.175 285.475L290.155 308.39C288.607 309.294 287.984 310.641 288.527 311.947L302.03 344.692C302.371 345.536 303.195 346.239 304.28 346.742L312.88 340.913H312.9Z" fill="white"/>
<path opacity="0.8" d="M417.866 366.293C377.76 389.449 312.738 389.449 272.632 366.293C251.695 354.192 241.689 338.172 242.613 322.333C217.457 274.432 180.927 229.427 113.796 108.842C223.625 -17.2908 396.386 -45.6731 562.959 88.6003C580.178 102.49 462.171 292.061 447.885 322.333C448.809 338.172 438.803 354.212 417.866 366.293V366.293Z" fill="url(#paint17_linear_800_566)"/>
<path d="M220.041 482.902L220.041 378.902" stroke="url(#paint18_linear_800_566)" stroke-width="3" stroke-miterlimit="10"/>
<path d="M233.041 467.902L233.041 406.902" stroke="url(#paint19_linear_800_566)" stroke-width="3" stroke-miterlimit="10"/>
<path d="M469.041 483.902L469.041 350.902" stroke="url(#paint20_linear_800_566)" stroke-width="3" stroke-miterlimit="10"/>
<path d="M458.041 465.902L458.041 372.902" stroke="url(#paint21_linear_800_566)" stroke-width="3" stroke-miterlimit="10"/>
<path d="M606.582 481.484C614.438 527.756 587.654 575.475 526.209 610.672C416.983 673.266 239.54 672.683 129.892 609.345C110.2 597.968 94.0454 585.345 81.4068 571.938" stroke="url(#paint22_linear_800_566)" stroke-opacity="0.5" stroke-width="6" stroke-linejoin="round"/>
<path opacity="0.1" d="M127.681 620.803C130.833 620.803 133.388 618.247 133.388 615.094C133.388 611.941 130.833 609.385 127.681 609.385C124.53 609.385 121.975 611.941 121.975 615.094C121.975 618.247 124.53 620.803 127.681 620.803Z" fill="#23E4A1"/>
<g filter="url(#filter2_d_800_566)">
<path d="M127.681 613.707C130.833 613.707 133.388 611.151 133.388 607.998C133.388 604.846 130.833 602.29 127.681 602.29C124.53 602.29 121.975 604.846 121.975 607.998C121.975 611.151 124.53 613.707 127.681 613.707Z" fill="#23E4A1"/>
</g>
<g opacity="0.8">
<path opacity="0.1" d="M140.742 627.999C143.893 627.999 146.448 625.443 146.448 622.29C146.448 619.137 143.893 616.581 140.742 616.581C137.59 616.581 135.035 619.137 135.035 622.29C135.035 625.443 137.59 627.999 140.742 627.999Z" fill="#23E4A1"/>
<path d="M140.742 620.923C143.893 620.923 146.448 618.367 146.448 615.215C146.448 612.062 143.893 609.506 140.742 609.506C137.59 609.506 135.035 612.062 135.035 615.215C135.035 618.367 137.59 620.923 140.742 620.923Z" fill="#23E4A1"/>
</g>
<g opacity="0.5">
<path opacity="0.1" d="M154.104 634.753C157.255 634.753 159.81 632.197 159.81 629.044C159.81 625.891 157.255 623.335 154.104 623.335C150.952 623.335 148.397 625.891 148.397 629.044C148.397 632.197 150.952 634.753 154.104 634.753Z" fill="#23E4A1"/>
<path d="M154.104 627.677C157.255 627.677 159.81 625.121 159.81 621.968C159.81 618.816 157.255 616.26 154.104 616.26C150.952 616.26 148.397 618.816 148.397 621.968C148.397 625.121 150.952 627.677 154.104 627.677Z" fill="#23E4A1"/>
</g>
<g opacity="0.2">
<path opacity="0.1" d="M168.51 640.783C171.662 640.783 174.217 638.227 174.217 635.074C174.217 631.921 171.662 629.365 168.51 629.365C165.359 629.365 162.804 631.921 162.804 635.074C162.804 638.227 165.359 640.783 168.51 640.783Z" fill="#23E4A1"/>
<path d="M168.51 633.707C171.662 633.707 174.217 631.152 174.217 627.999C174.217 624.846 171.662 622.29 168.51 622.29C165.359 622.29 162.804 624.846 162.804 627.999C162.804 631.152 165.359 633.707 168.51 633.707Z" fill="#23E4A1"/>
</g>
<path opacity="0.1" d="M510.697 631.878C513.849 631.878 516.404 629.322 516.404 626.17C516.404 623.017 513.849 620.461 510.697 620.461C507.546 620.461 504.991 623.017 504.991 626.17C504.991 629.322 507.546 631.878 510.697 631.878Z" fill="#23E4A1"/>
<g filter="url(#filter3_d_800_566)">
<path d="M510.697 624.803C513.849 624.803 516.404 622.247 516.404 619.094C516.404 615.941 513.849 613.385 510.697 613.385C507.546 613.385 504.991 615.941 504.991 619.094C504.991 622.247 507.546 624.803 510.697 624.803Z" fill="#23E4A1"/>
</g>
<g opacity="0.8">
<path opacity="0.1" d="M525.225 624.2C528.376 624.2 530.931 621.644 530.931 618.491C530.931 615.338 528.376 612.782 525.225 612.782C522.073 612.782 519.518 615.338 519.518 618.491C519.518 621.644 522.073 624.2 525.225 624.2Z" fill="#23E4A1"/>
<path d="M525.225 617.124C528.376 617.124 530.931 614.568 530.931 611.416C530.931 608.263 528.376 605.707 525.225 605.707C522.073 605.707 519.518 608.263 519.518 611.416C519.518 614.568 522.073 617.124 525.225 617.124Z" fill="#23E4A1"/>
</g>
<g opacity="0.5">
<path opacity="0.1" d="M539.069 615.717C542.22 615.717 544.775 613.161 544.775 610.008C544.775 606.856 542.22 604.3 539.069 604.3C535.917 604.3 533.362 606.856 533.362 610.008C533.362 613.161 535.917 615.717 539.069 615.717Z" fill="#23E4A1"/>
<path d="M539.069 608.642C542.22 608.642 544.775 606.086 544.775 602.933C544.775 599.78 542.22 597.224 539.069 597.224C535.917 597.224 533.362 599.78 533.362 602.933C533.362 606.086 535.917 608.642 539.069 608.642Z" fill="#23E4A1"/>
</g>
<g opacity="0.2">
<path opacity="0.1" d="M552.772 606.471C555.924 606.471 558.479 603.915 558.479 600.762C558.479 597.609 555.924 595.053 552.772 595.053C549.621 595.053 547.066 597.609 547.066 600.762C547.066 603.915 549.621 606.471 552.772 606.471Z" fill="#23E4A1"/>
<path d="M552.772 599.395C555.924 599.395 558.479 596.839 558.479 593.687C558.479 590.534 555.924 587.978 552.772 587.978C549.621 587.978 547.066 590.534 547.066 593.687C547.066 596.839 549.621 599.395 552.772 599.395Z" fill="#23E4A1"/>
</g>
<path d="M511.212 619.484L554.317 681.514L597.423 743.544" stroke="url(#paint23_linear_800_566)" stroke-width="2" stroke-miterlimit="10"/>
<path opacity="0.8" d="M524.879 611.073L567.985 673.103" stroke="url(#paint24_linear_800_566)" stroke-width="2" stroke-miterlimit="10"/>
<path d="M127.681 607.999L74.7157 685.166" stroke="url(#paint25_linear_800_566)" stroke-width="2" stroke-miterlimit="10"/>
<defs>
<filter id="filter0_d_800_566" x="244.636" y="566.335" width="27.2929" height="27.2972" filterUnits="userSpaceOnUse" color-interpolation-filters="sRGB">
<feFlood flood-opacity="0" result="BackgroundImageFix"/>
<feColorMatrix in="SourceAlpha" type="matrix" values="0 0 0 0 0 0 0 0 0 0 0 0 0 0 0 0 0 0 127 0" result="hardAlpha"/>
<feOffset/>
<feGaussianBlur stdDeviation="3.97"/>
<feColorMatrix type="matrix" values="0 0 0 0 0 0 0 0 0 1 0 0 0 0 0.615686 0 0 0 0.75 0"/>
<feBlend mode="normal" in2="BackgroundImageFix" result="effect1_dropShadow_800_566"/>
<feBlend mode="normal" in="SourceGraphic" in2="effect1_dropShadow_800_566" result="shape"/>
</filter>
<filter id="filter1_d_800_566" x="485.398" y="414.938" width="27.2929" height="27.2972" filterUnits="userSpaceOnUse" color-interpolation-filters="sRGB">
<feFlood flood-opacity="0" result="BackgroundImageFix"/>
<feColorMatrix in="SourceAlpha" type="matrix" values="0 0 0 0 0 0 0 0 0 0 0 0 0 0 0 0 0 0 127 0" result="hardAlpha"/>
<feOffset/>
<feGaussianBlur stdDeviation="3.97"/>
<feColorMatrix type="matrix" values="0 0 0 0 0 0 0 0 0 1 0 0 0 0 0.615686 0 0 0 0.75 0"/>
<feBlend mode="normal" in2="BackgroundImageFix" result="effect1_dropShadow_800_566"/>
<feBlend mode="normal" in="SourceGraphic" in2="effect1_dropShadow_800_566" result="shape"/>
</filter>
<filter id="filter2_d_800_566" x="114.035" y="594.35" width="27.2929" height="27.2974" filterUnits="userSpaceOnUse" color-interpolation-filters="sRGB">
<feFlood flood-opacity="0" result="BackgroundImageFix"/>
<feColorMatrix in="SourceAlpha" type="matrix" values="0 0 0 0 0 0 0 0 0 0 0 0 0 0 0 0 0 0 127 0" result="hardAlpha"/>
<feOffset/>
<feGaussianBlur stdDeviation="3.97"/>
<feColorMatrix type="matrix" values="0 0 0 0 0 0 0 0 0 1 0 0 0 0 0.615686 0 0 0 0.75 0"/>
<feBlend mode="normal" in2="BackgroundImageFix" result="effect1_dropShadow_800_566"/>
<feBlend mode="normal" in="SourceGraphic" in2="effect1_dropShadow_800_566" result="shape"/>
</filter>
<filter id="filter3_d_800_566" x="497.051" y="605.445" width="27.2929" height="27.2972" filterUnits="userSpaceOnUse" color-interpolation-filters="sRGB">
<feFlood flood-opacity="0" result="BackgroundImageFix"/>
<feColorMatrix in="SourceAlpha" type="matrix" values="0 0 0 0 0 0 0 0 0 0 0 0 0 0 0 0 0 0 127 0" result="hardAlpha"/>
<feOffset/>
<feGaussianBlur stdDeviation="3.97"/>
<feColorMatrix type="matrix" values="0 0 0 0 0 0 0 0 0 1 0 0 0 0 0.615686 0 0 0 0.75 0"/>
<feBlend mode="normal" in2="BackgroundImageFix" result="effect1_dropShadow_800_566"/>
<feBlend mode="normal" in="SourceGraphic" in2="effect1_dropShadow_800_566" result="shape"/>
</filter>
<linearGradient id="paint0_linear_800_566" x1="391.356" y1="593.195" x2="362.444" y2="379.768" gradientUnits="userSpaceOnUse">
<stop stop-color="#00A8B3"/>
<stop offset="0.609375" stop-color="#0D1424"/>
<stop offset="0.864583" stop-color="#6D8465"/>
<stop offset="1" stop-color="#FD5600"/>
</linearGradient>
<linearGradient id="paint1_linear_800_566" x1="345.041" y1="374.902" x2="345.291" y2="476.902" gradientUnits="userSpaceOnUse">
<stop stop-color="white" stop-opacity="0"/>
<stop offset="1" stop-color="#42E9E1" stop-opacity="0.1"/>
</linearGradient>
<linearGradient id="paint2_linear_800_566" x1="345.853" y1="492.272" x2="345.853" y2="579.972" gradientUnits="userSpaceOnUse">
<stop offset="0.09" stop-color="#23E4A1"/>
<stop offset="0.97" stop-color="#2B52DB"/>
</linearGradient>
<linearGradient id="paint3_linear_800_566" x1="345.853" y1="492.272" x2="345.853" y2="579.972" gradientUnits="userSpaceOnUse">
<stop offset="0.09" stop-color="#23E4A1"/>
<stop offset="0.97" stop-color="#2B52DB"/>
</linearGradient>
<linearGradient id="paint4_linear_800_566" x1="338.358" y1="394.059" x2="356.415" y2="549.819" gradientUnits="userSpaceOnUse">
<stop offset="0.09" stop-color="#23E4A1"/>
<stop offset="0.97" stop-color="#2B52DB"/>
</linearGradient>
<linearGradient id="paint5_linear_800_566" x1="-12.3683" y1="458.482" x2="-10.3574" y2="546.182" gradientUnits="userSpaceOnUse">
<stop offset="0.09" stop-color="#23E4A1"/>
<stop offset="0.97" stop-color="#2B52DB"/>
</linearGradient>
<linearGradient id="paint6_linear_800_566" x1="-12.3683" y1="458.482" x2="-10.3574" y2="546.182" gradientUnits="userSpaceOnUse">
<stop offset="0.09" stop-color="#23E4A1"/>
<stop offset="0.97" stop-color="#2B52DB"/>
</linearGradient>
<linearGradient id="paint7_linear_800_566" x1="338.358" y1="360.25" x2="356.415" y2="516.009" gradientUnits="userSpaceOnUse">
<stop offset="0.09" stop-color="#23E4A1"/>
<stop offset="0.97" stop-color="#2B52DB"/>
</linearGradient>
<linearGradient id="paint8_linear_800_566" x1="-12.3682" y1="424.673" x2="-10.3574" y2="512.372" gradientUnits="userSpaceOnUse">
<stop offset="0.09" stop-color="#23E4A1"/>
<stop offset="0.97" stop-color="#2B52DB"/>
</linearGradient>
<linearGradient id="paint9_linear_800_566" x1="-12.3682" y1="424.673" x2="-10.3574" y2="512.372" gradientUnits="userSpaceOnUse">
<stop offset="0.09" stop-color="#23E4A1"/>
<stop offset="0.97" stop-color="#2B52DB"/>
</linearGradient>
<linearGradient id="paint10_linear_800_566" x1="338.358" y1="326.46" x2="356.415" y2="482.22" gradientUnits="userSpaceOnUse">
<stop offset="0.09" stop-color="#23E4A1"/>
<stop offset="0.97" stop-color="#2B52DB"/>
</linearGradient>
<linearGradient id="paint11_linear_800_566" x1="-12.3683" y1="390.883" x2="-10.3574" y2="478.583" gradientUnits="userSpaceOnUse">
<stop offset="0.09" stop-color="#23E4A1"/>
<stop offset="0.97" stop-color="#2B52DB"/>
</linearGradient>
<linearGradient id="paint12_linear_800_566" x1="-12.3683" y1="390.883" x2="-10.3574" y2="478.583" gradientUnits="userSpaceOnUse">
<stop offset="0.09" stop-color="#23E4A1"/>
<stop offset="0.97" stop-color="#2B52DB"/>
</linearGradient>
<linearGradient id="paint13_linear_800_566" x1="338.358" y1="292.671" x2="356.415" y2="448.41" gradientUnits="userSpaceOnUse">
<stop offset="0.09" stop-color="#23E4A1"/>
<stop offset="0.97" stop-color="#2B52DB"/>
</linearGradient>
<linearGradient id="paint14_linear_800_566" x1="-12.3682" y1="357.094" x2="-10.3574" y2="444.774" gradientUnits="userSpaceOnUse">
<stop offset="0.09" stop-color="#23E4A1"/>
<stop offset="0.880208" stop-color="#2B52DB"/>
</linearGradient>
<linearGradient id="paint15_linear_800_566" x1="-12.3682" y1="357.094" x2="-10.3574" y2="444.774" gradientUnits="userSpaceOnUse">
<stop offset="0.09" stop-color="#23E4A1"/>
<stop offset="0.880208" stop-color="#2B52DB"/>
</linearGradient>
<linearGradient id="paint16_linear_800_566" x1="338.358" y1="258.861" x2="356.415" y2="414.621" gradientUnits="userSpaceOnUse">
<stop offset="0.09" stop-color="#23E4A1"/>
<stop offset="0.791667" stop-color="#2B52DB"/>
</linearGradient>
<linearGradient id="paint17_linear_800_566" x1="335.524" y1="32.519" x2="352.996" y2="396.062" gradientUnits="userSpaceOnUse">
<stop stop-color="#F3EBF9" stop-opacity="0"/>
<stop offset="0.286458" stop-color="#F0F1FA" stop-opacity="0.04"/>
<stop offset="0.765625" stop-color="#DEFFFF" stop-opacity="0.3"/>
<stop offset="0.98" stop-color="#DBFFFF" stop-opacity="0.96"/>
<stop offset="0.9801" stop-color="#DBFFFF" stop-opacity="0.2"/>
</linearGradient>
<linearGradient id="paint18_linear_800_566" x1="220.003" y1="486.597" x2="220.003" y2="379.287" gradientUnits="userSpaceOnUse">
<stop offset="0.125" stop-color="#42E8E0"/>
<stop offset="1" stop-color="#42E8E5" stop-opacity="0"/>
</linearGradient>
<linearGradient id="paint19_linear_800_566" x1="233.003" y1="470.069" x2="233.003" y2="407.128" gradientUnits="userSpaceOnUse">
<stop offset="0.276042" stop-color="#42E8E0"/>
<stop offset="1" stop-color="#42E8E5" stop-opacity="0"/>
</linearGradient>
<linearGradient id="paint20_linear_800_566" x1="469.003" y1="488.627" x2="469.003" y2="351.395" gradientUnits="userSpaceOnUse">
<stop offset="0.208333" stop-color="#42E8E0"/>
<stop offset="1" stop-color="#42E8E5" stop-opacity="0"/>
</linearGradient>
<linearGradient id="paint21_linear_800_566" x1="458.003" y1="469.206" x2="458.003" y2="373.246" gradientUnits="userSpaceOnUse">
<stop offset="0.161458" stop-color="#42E8E0"/>
<stop offset="1" stop-color="#42E8E5" stop-opacity="0"/>
</linearGradient>
<linearGradient id="paint22_linear_800_566" x1="81.2038" y1="572.172" x2="618.451" y2="409.211" gradientUnits="userSpaceOnUse">
<stop stop-color="#42E8E0" stop-opacity="0"/>
<stop offset="0.0912469" stop-color="#42E8E0" stop-opacity="0.8"/>
<stop offset="0.550089" stop-color="#42E8E0"/>
<stop offset="0.974701" stop-color="#42E8E0" stop-opacity="0"/>
</linearGradient>
<linearGradient id="paint23_linear_800_566" x1="510.181" y1="681.514" x2="598.454" y2="681.514" gradientUnits="userSpaceOnUse">
<stop stop-color="#23E4A1"/>
<stop offset="1" stop-color="#23E4A1" stop-opacity="0"/>
</linearGradient>
<linearGradient id="paint24_linear_800_566" x1="523.879" y1="642.088" x2="568.985" y2="642.088" gradientUnits="userSpaceOnUse">
<stop stop-color="#20C48E"/>
<stop offset="1" stop-color="#23E4A1" stop-opacity="0"/>
</linearGradient>
<linearGradient id="paint25_linear_800_566" x1="73.8718" y1="646.592" x2="128.505" y2="646.592" gradientUnits="userSpaceOnUse">
<stop stop-color="#23E4A1" stop-opacity="0"/>
<stop offset="1" stop-color="#23E4A1"/>
</linearGradient>
</defs>
</svg>
