<svg width="1440" height="2430" viewBox="0 0 1440 2430" fill="none" xmlns="http://www.w3.org/2000/svg">
<path d="M812.418 249.326C859.862 322.038 826.023 505.568 873.822 527.902C936.667 557.278 972.453 501.161 1099.56 500.815C1147.42 500.689 1215.71 500.494 1267.09 536.389C1378.46 614.184 1395.89 851.441 1294.43 968.902C1222.24 1052.5 1266.31 1010.01 1061.15 1089.17C836.178 1175.97 777 1158.52 656.159 1231.51C521.36 1312.93 365.452 1305.07 264.606 1186.58C192.85 1102.28 179.108 995.866 245.113 890.317C300.526 801.695 378.145 833.499 449.234 746.461C454.248 740.318 488.051 697.732 485.28 643.111C483.656 611.384 475.917 590.796 457.292 566.551C333.551 405.286 375.917 289.418 448.587 228.93C521.252 168.42 708.269 89.7275 812.418 249.326Z" fill="url(#paint0_linear_815_867)" fill-opacity="0.6"/>
<path d="M1389.41 1087.18C1355.05 1178.47 1166.27 1269.74 1177.79 1327.89C1192.92 1404.34 1267.54 1399.49 1352.3 1514.43C1384.21 1557.71 1429.75 1619.46 1431.36 1689.86C1434.86 1842.45 1231.46 2015.86 1057.63 2001.96C933.925 1992.08 1001.7 2003.79 793.674 1870.49C565.57 1724.31 542.072 1659.09 395.657 1598.09C232.335 1530.04 135.884 1383.55 176.249 1213.46C204.961 1092.44 292.255 1009.29 431.741 998.98C548.853 990.315 571.6 1081.77 697.691 1088.36C706.588 1088.83 767.631 1091.16 815.282 1052.37C842.951 1029.82 856.463 1009.13 866.059 976.147C929.975 756.893 1063.11 718.306 1166.19 743.968C1269.29 769.61 1464.84 886.788 1389.41 1087.18Z" fill="url(#paint1_linear_815_867)" fill-opacity="0.35"/>
<path d="M681.823 1548.04C723.342 1636.31 657.228 1835.3 706.955 1867.56C772.332 1909.99 820.856 1853.1 962.348 1872.42C1015.63 1879.7 1091.66 1890.08 1143.26 1937.99C1255.13 2041.83 1237.73 2308.54 1106.62 2423.52C1013.32 2505.35 1068.96 2464.9 828.374 2521.18C564.572 2582.89 501.426 2554.29 355.638 2616.77C193.011 2686.47 20.7378 2653.55 -73.1086 2506.06C-139.886 2401.13 -138.676 2280.58 -48.8605 2173.36C26.5442 2083.33 107.986 2130.76 200.589 2044.93C207.121 2038.87 251.34 1996.72 256.727 1935.51C259.839 1899.96 254.419 1875.85 237.454 1845.98C124.763 1647.34 189.874 1524.97 280.121 1468.93C370.364 1412.86 590.676 1354.3 681.823 1548.04Z" fill="url(#paint2_linear_815_867)" fill-opacity="0.35"/>
<g opacity="0.5">
<path d="M705.577 1161.07H704.219C703.982 1161.07 703.79 1161.27 703.79 1161.5V1162.86C703.79 1163.1 703.982 1163.29 704.219 1163.29H705.577C705.814 1163.29 706.006 1163.1 706.006 1162.86V1161.5C706.006 1161.27 705.814 1161.07 705.577 1161.07Z" fill="#42E8E0" fill-opacity="0.5"/>
<path d="M694.605 1313.93H693.247C693.01 1313.93 692.818 1314.12 692.818 1314.36V1315.72C692.818 1315.96 693.01 1316.15 693.247 1316.15H694.605C694.842 1316.15 695.034 1315.96 695.034 1315.72V1314.36C695.034 1314.12 694.842 1313.93 694.605 1313.93Z" fill="#42E8E0" fill-opacity="0.5"/>
<path d="M624.772 1280.81H623.414C623.177 1280.81 622.985 1281 622.985 1281.24V1282.6C622.985 1282.84 623.177 1283.03 623.414 1283.03H624.772C625.009 1283.03 625.201 1282.84 625.201 1282.6V1281.24C625.201 1281 625.009 1280.81 624.772 1280.81Z" fill="#42E8E0" fill-opacity="0.5"/>
<path d="M577.883 1291.62H576.525C576.288 1291.62 576.096 1291.81 576.096 1292.05V1293.41C576.096 1293.65 576.288 1293.84 576.525 1293.84H577.883C578.12 1293.84 578.312 1293.65 578.312 1293.41V1292.05C578.312 1291.81 578.12 1291.62 577.883 1291.62Z" fill="#42E8E0" fill-opacity="0.5"/>
<path d="M553.617 1245.47L552.366 1244.93L552.151 1244.36L552.687 1243.1L553.259 1242.89L554.51 1243.43C554.725 1243.53 554.832 1243.78 554.725 1244L554.188 1245.25C554.081 1245.47 553.831 1245.58 553.617 1245.47Z" fill="#42E8E0" fill-opacity="0.5"/>
<path d="M517.541 1335.9L516.295 1335.36C516.078 1335.27 515.825 1335.37 515.731 1335.58L515.19 1336.83C515.096 1337.05 515.196 1337.3 515.413 1337.4L516.659 1337.94C516.876 1338.03 517.129 1337.93 517.223 1337.72L517.764 1336.47C517.858 1336.25 517.758 1336 517.541 1335.9Z" fill="#42E8E0" fill-opacity="0.5"/>
<path d="M460.053 1204.79L458.802 1204.26C458.588 1204.15 458.481 1203.9 458.588 1203.68L459.124 1202.43C459.231 1202.22 459.481 1202.11 459.696 1202.21L460.947 1202.75L461.161 1203.32L460.625 1204.58L460.053 1204.79Z" fill="#42E8E0" fill-opacity="0.5"/>
<path d="M366.322 1244.71L365.076 1244.17C364.859 1244.08 364.606 1244.18 364.512 1244.39L363.971 1245.64C363.877 1245.86 363.976 1246.11 364.194 1246.21L365.439 1246.75C365.657 1246.84 365.909 1246.74 366.004 1246.52L366.544 1245.28C366.639 1245.06 366.539 1244.81 366.322 1244.71Z" fill="#42E8E0" fill-opacity="0.5"/>
<path d="M412.717 1383.56L411.471 1383.02C411.254 1382.92 411.001 1383.02 410.907 1383.24L410.366 1384.49C410.272 1384.71 410.372 1384.96 410.589 1385.05L411.834 1385.6C412.052 1385.69 412.304 1385.59 412.399 1385.37L412.94 1384.12C413.034 1383.91 412.934 1383.65 412.717 1383.56Z" fill="#42E8E0" fill-opacity="0.5"/>
<path d="M430.436 1288.83L429.19 1288.28C428.973 1288.19 428.72 1288.29 428.626 1288.51L428.085 1289.75C427.99 1289.97 428.09 1290.23 428.307 1290.32L429.553 1290.86C429.77 1290.96 430.023 1290.86 430.117 1290.64L430.658 1289.39C430.752 1289.17 430.653 1288.92 430.436 1288.83Z" fill="#42E8E0" fill-opacity="0.5"/>
<path d="M365.418 1176.44L364.167 1175.9L363.953 1175.33L364.489 1174.07L365.061 1173.86L366.312 1174.39C366.526 1174.5 366.633 1174.75 366.526 1174.97L365.99 1176.22C365.883 1176.44 365.633 1176.54 365.418 1176.44Z" fill="#42E8E0" fill-opacity="0.5"/>
<path d="M291.291 1266.84L290.045 1266.29C289.828 1266.2 289.575 1266.3 289.481 1266.52L288.94 1267.76C288.846 1267.98 288.946 1268.24 289.163 1268.33L290.409 1268.87C290.626 1268.97 290.879 1268.87 290.973 1268.65L291.514 1267.4C291.608 1267.18 291.508 1266.93 291.291 1266.84Z" fill="#42E8E0" fill-opacity="0.5"/>
<path d="M290.367 1198.53L289.116 1197.99C288.902 1197.88 288.795 1197.63 288.902 1197.42L289.438 1196.16C289.545 1195.95 289.795 1195.84 290.01 1195.95L291.261 1196.49L291.475 1197.06L290.939 1198.31C290.832 1198.53 290.582 1198.63 290.367 1198.53Z" fill="#42E8E0" fill-opacity="0.5"/>
<path d="M753.177 1243.39L751.931 1242.85C751.714 1242.75 751.461 1242.85 751.367 1243.07L750.826 1244.32C750.732 1244.54 750.832 1244.79 751.049 1244.89L752.295 1245.43C752.512 1245.52 752.765 1245.42 752.859 1245.2L753.399 1243.96C753.494 1243.74 753.394 1243.48 753.177 1243.39Z" fill="#42E8E0" fill-opacity="0.5"/>
<path d="M759.233 1196.69L757.988 1196.15C757.77 1196.06 757.518 1196.16 757.423 1196.38L756.883 1197.62C756.788 1197.84 756.888 1198.09 757.105 1198.19L758.351 1198.73C758.568 1198.82 758.821 1198.73 758.915 1198.51L759.456 1197.26C759.55 1197.04 759.451 1196.79 759.233 1196.69Z" fill="#42E8E0" fill-opacity="0.5"/>
<path d="M667.168 1262.9L665.922 1262.35C665.705 1262.26 665.452 1262.36 665.358 1262.58L664.817 1263.83C664.723 1264.04 664.823 1264.3 665.04 1264.39L666.286 1264.93C666.503 1265.03 666.756 1264.93 666.85 1264.71L667.39 1263.46C667.485 1263.24 667.385 1262.99 667.168 1262.9Z" fill="#42E8E0" fill-opacity="0.5"/>
<path d="M628.362 1181.18L627.116 1180.64C626.899 1180.54 626.646 1180.64 626.552 1180.86L626.011 1182.11C625.917 1182.32 626.017 1182.58 626.234 1182.67L627.48 1183.21C627.697 1183.31 627.95 1183.21 628.044 1182.99L628.585 1181.74C628.679 1181.53 628.579 1181.27 628.362 1181.18Z" fill="#42E8E0" fill-opacity="0.5"/>
<path d="M525.24 1419.48H523.882C523.645 1419.48 523.453 1419.67 523.453 1419.91V1421.27C523.453 1421.51 523.645 1421.7 523.882 1421.7H525.24C525.477 1421.7 525.669 1421.51 525.669 1421.27V1419.91C525.669 1419.67 525.477 1419.48 525.24 1419.48Z" fill="#42E8E0" fill-opacity="0.5"/>
<path d="M642.284 1345.58L641.033 1345.04L640.819 1344.47L641.355 1343.22L641.927 1343L643.178 1343.54C643.392 1343.65 643.499 1343.9 643.392 1344.11L642.856 1345.36L642.284 1345.58Z" fill="#42E8E0" fill-opacity="0.5"/>
<path d="M367.705 1307.8L366.454 1307.27L366.24 1306.69L366.776 1305.44C366.883 1305.23 367.133 1305.12 367.348 1305.23L368.598 1305.76L368.813 1306.34L368.277 1307.59C368.17 1307.8 367.919 1307.91 367.705 1307.8Z" fill="#42E8E0" fill-opacity="0.5"/>
<path d="M571.167 1390.74L569.921 1390.2C569.704 1390.11 569.451 1390.21 569.357 1390.42L568.816 1391.67C568.722 1391.89 568.822 1392.14 569.039 1392.24L570.285 1392.78C570.502 1392.87 570.755 1392.77 570.849 1392.56L571.389 1391.31C571.484 1391.09 571.384 1390.84 571.167 1390.74Z" fill="#42E8E0" fill-opacity="0.5"/>
<path d="M595.099 1213.27L593.853 1212.73C593.636 1212.63 593.383 1212.73 593.289 1212.95L592.748 1214.2C592.654 1214.42 592.753 1214.67 592.971 1214.76L594.217 1215.31C594.434 1215.4 594.686 1215.3 594.781 1215.08L595.321 1213.84C595.416 1213.62 595.316 1213.36 595.099 1213.27Z" fill="#42E8E0" fill-opacity="0.5"/>
</g>
<g opacity="0.5">
<path d="M571.379 907H570.021C569.784 907 569.592 907.192 569.592 907.43V908.79C569.592 909.028 569.784 909.22 570.021 909.22H571.379C571.616 909.22 571.808 909.028 571.808 908.79V907.43C571.808 907.192 571.616 907 571.379 907Z" fill="#42E8E0" fill-opacity="0.5"/>
<path d="M560.371 1059.85H559.013C558.776 1059.85 558.584 1060.05 558.584 1060.28V1061.64C558.584 1061.88 558.776 1062.07 559.013 1062.07H560.371C560.608 1062.07 560.8 1061.88 560.8 1061.64V1060.28C560.8 1060.05 560.608 1059.85 560.371 1059.85Z" fill="#42E8E0" fill-opacity="0.5"/>
<path d="M495.077 982.979H493.719C493.482 982.979 493.29 983.171 493.29 983.409V984.769C493.29 985.007 493.482 985.199 493.719 985.199H495.077C495.314 985.199 495.506 985.007 495.506 984.769V983.409C495.506 983.171 495.314 982.979 495.077 982.979Z" fill="#42E8E0" fill-opacity="0.5"/>
<path d="M443.685 1037.55H442.327C442.09 1037.55 441.898 1037.74 441.898 1037.98V1039.34C441.898 1039.57 442.09 1039.77 442.327 1039.77H443.685C443.922 1039.77 444.114 1039.57 444.114 1039.34V1037.98C444.114 1037.74 443.922 1037.55 443.685 1037.55Z" fill="#42E8E0" fill-opacity="0.5"/>
<path d="M401.35 942.388L400.105 941.846C399.887 941.751 399.635 941.851 399.54 942.069L399 943.317C398.905 943.535 399.005 943.788 399.222 943.882L400.468 944.424C400.686 944.518 400.938 944.419 401.032 944.201L401.573 942.953C401.667 942.735 401.568 942.482 401.35 942.388Z" fill="#42E8E0" fill-opacity="0.5"/>
<path d="M383.321 1081.85L382.075 1081.31C381.858 1081.22 381.605 1081.32 381.511 1081.53L380.97 1082.78C380.876 1083 380.975 1083.25 381.193 1083.35L382.438 1083.89C382.656 1083.98 382.908 1083.88 383.003 1083.67L383.543 1082.42C383.638 1082.2 383.538 1081.95 383.321 1081.85Z" fill="#42E8E0" fill-opacity="0.5"/>
<path d="M326.717 948.641L325.471 948.099C325.254 948.004 325.001 948.104 324.907 948.322L324.366 949.57C324.271 949.787 324.371 950.04 324.588 950.135L325.834 950.677C326.051 950.772 326.304 950.672 326.398 950.454L326.939 949.206C327.033 948.989 326.934 948.736 326.717 948.641Z" fill="#42E8E0" fill-opacity="0.5"/>
<path d="M277.68 1131.54L276.429 1131C276.215 1130.89 276.108 1130.64 276.215 1130.43L276.751 1129.17C276.858 1128.96 277.108 1128.85 277.323 1128.96L278.574 1129.49L278.788 1130.07L278.252 1131.32C278.145 1131.54 277.895 1131.64 277.68 1131.54Z" fill="#42E8E0" fill-opacity="0.5"/>
<path d="M295.335 1036.79L294.084 1036.26C293.869 1036.15 293.762 1035.9 293.869 1035.68L294.406 1034.43C294.513 1034.22 294.763 1034.11 294.977 1034.22L296.228 1034.75L296.443 1035.33L295.907 1036.58L295.335 1036.79Z" fill="#42E8E0" fill-opacity="0.5"/>
<path d="M618.053 991.393L616.802 990.856C616.587 990.749 616.48 990.498 616.587 990.283L617.124 989.03C617.231 988.815 617.481 988.708 617.695 988.815L618.946 989.352L619.161 989.925L618.625 991.178L618.053 991.393Z" fill="#42E8E0" fill-opacity="0.5"/>
<path d="M660.871 1083.79L659.625 1083.25C659.408 1083.16 659.155 1083.26 659.061 1083.47L658.52 1084.72C658.426 1084.94 658.526 1085.19 658.743 1085.29L659.989 1085.83C660.206 1085.92 660.459 1085.82 660.553 1085.6L661.094 1084.36C661.188 1084.14 661.088 1083.89 660.871 1083.79Z" fill="#42E8E0" fill-opacity="0.5"/>
<path d="M759.57 1074.97L758.324 1074.42C758.107 1074.33 757.854 1074.43 757.76 1074.65L757.22 1075.9C757.125 1076.11 757.225 1076.37 757.442 1076.46L758.688 1077C758.905 1077.1 759.158 1077 759.252 1076.78L759.793 1075.53C759.887 1075.31 759.787 1075.06 759.57 1074.97Z" fill="#42E8E0" fill-opacity="0.5"/>
<path d="M824.606 1045.79L823.361 1045.25C823.144 1045.15 822.891 1045.25 822.797 1045.47L822.256 1046.72C822.161 1046.94 822.261 1047.19 822.478 1047.28L823.724 1047.83C823.941 1047.92 824.193 1047.82 824.288 1047.6L824.829 1046.36C824.923 1046.14 824.824 1045.89 824.606 1045.79Z" fill="#42E8E0" fill-opacity="0.5"/>
<path d="M391.006 1165.37H389.648C389.411 1165.37 389.219 1165.56 389.219 1165.8V1167.16C389.219 1167.4 389.411 1167.59 389.648 1167.59H391.006C391.243 1167.59 391.435 1167.4 391.435 1167.16V1165.8C391.435 1165.56 391.243 1165.37 391.006 1165.37Z" fill="#42E8E0" fill-opacity="0.5"/>
<path d="M508.997 1089.45L507.751 1088.91C507.534 1088.81 507.281 1088.91 507.187 1089.13L506.647 1090.38C506.552 1090.59 506.652 1090.85 506.869 1090.94L508.115 1091.48C508.332 1091.58 508.585 1091.48 508.679 1091.26L509.22 1090.01C509.314 1089.8 509.214 1089.54 508.997 1089.45Z" fill="#42E8E0" fill-opacity="0.5"/>
<path d="M233.507 1053.69L232.256 1053.16C232.042 1053.05 231.935 1052.8 232.042 1052.58L232.578 1051.33C232.685 1051.12 232.935 1051.01 233.15 1051.12L234.401 1051.65L234.615 1052.23L234.079 1053.48L233.507 1053.69Z" fill="#42E8E0" fill-opacity="0.5"/>
<path d="M436.916 1136.65L435.67 1136.11C435.453 1136.02 435.201 1136.12 435.106 1136.33L434.565 1137.58C434.471 1137.8 434.57 1138.05 434.788 1138.15L436.033 1138.69C436.25 1138.78 436.503 1138.68 436.597 1138.47L437.139 1137.22C437.233 1137 437.133 1136.75 436.916 1136.65Z" fill="#42E8E0" fill-opacity="0.5"/>
<path d="M551.972 968.37L550.722 967.833C550.507 967.726 550.4 967.475 550.507 967.26L551.043 966.007C551.15 965.792 551.401 965.685 551.615 965.792L552.866 966.329C553.08 966.437 553.188 966.688 553.08 966.902L552.544 968.156L551.972 968.37Z" fill="#42E8E0" fill-opacity="0.5"/>
</g>
<g opacity="0.5">
<path d="M540.577 2175.07H539.219C538.982 2175.07 538.79 2175.27 538.79 2175.5V2176.86C538.79 2177.1 538.982 2177.29 539.219 2177.29H540.577C540.814 2177.29 541.006 2177.1 541.006 2176.86V2175.5C541.006 2175.27 540.814 2175.07 540.577 2175.07Z" fill="#42E8E0" fill-opacity="0.5"/>
<path d="M529.605 2327.93H528.247C528.01 2327.93 527.818 2328.12 527.818 2328.36V2329.72C527.818 2329.96 528.01 2330.15 528.247 2330.15H529.605C529.842 2330.15 530.034 2329.96 530.034 2329.72V2328.36C530.034 2328.12 529.842 2327.93 529.605 2327.93Z" fill="#42E8E0" fill-opacity="0.5"/>
<path d="M459.773 2294.81H458.414C458.178 2294.81 457.986 2295 457.986 2295.24V2296.6C457.986 2296.84 458.178 2297.03 458.414 2297.03H459.773C460.009 2297.03 460.201 2296.84 460.201 2296.6V2295.24C460.201 2295 460.009 2294.81 459.773 2294.81Z" fill="#42E8E0" fill-opacity="0.5"/>
<path d="M412.884 2305.62H411.526C411.289 2305.62 411.097 2305.81 411.097 2306.05V2307.41C411.097 2307.65 411.289 2307.84 411.526 2307.84H412.884C413.12 2307.84 413.312 2307.65 413.312 2307.41V2306.05C413.312 2305.81 413.12 2305.62 412.884 2305.62Z" fill="#42E8E0" fill-opacity="0.5"/>
<path d="M388.617 2259.47L387.366 2258.93L387.152 2258.36L387.688 2257.1L388.26 2256.89L389.511 2257.43C389.725 2257.53 389.832 2257.78 389.725 2258L389.189 2259.25C389.082 2259.47 388.832 2259.58 388.617 2259.47Z" fill="#42E8E0" fill-opacity="0.5"/>
<path d="M352.541 2349.9L351.296 2349.36C351.078 2349.27 350.826 2349.37 350.731 2349.58L350.191 2350.83C350.096 2351.05 350.196 2351.3 350.413 2351.4L351.659 2351.94C351.876 2352.03 352.129 2351.93 352.223 2351.72L352.764 2350.47C352.858 2350.25 352.759 2350 352.541 2349.9Z" fill="#42E8E0" fill-opacity="0.5"/>
<path d="M295.053 2218.79L293.803 2218.26C293.588 2218.15 293.481 2217.9 293.588 2217.68L294.124 2216.43C294.231 2216.22 294.482 2216.11 294.696 2216.21L295.947 2216.75L296.161 2217.32L295.625 2218.58L295.053 2218.79Z" fill="#42E8E0" fill-opacity="0.5"/>
<path d="M201.322 2258.71L200.076 2258.17C199.859 2258.08 199.606 2258.18 199.512 2258.39L198.971 2259.64C198.877 2259.86 198.977 2260.11 199.194 2260.21L200.44 2260.75C200.657 2260.84 200.91 2260.74 201.004 2260.53L201.545 2259.28C201.639 2259.06 201.539 2258.81 201.322 2258.71Z" fill="#42E8E0" fill-opacity="0.5"/>
<path d="M247.717 2397.56L246.472 2397.02C246.254 2396.92 246.002 2397.02 245.907 2397.24L245.366 2398.49C245.272 2398.71 245.372 2398.96 245.589 2399.05L246.835 2399.6C247.052 2399.69 247.305 2399.59 247.399 2399.37L247.94 2398.12C248.034 2397.91 247.934 2397.65 247.717 2397.56Z" fill="#42E8E0" fill-opacity="0.5"/>
<path d="M265.436 2302.83L264.19 2302.28C263.973 2302.19 263.72 2302.29 263.626 2302.51L263.085 2303.75C262.991 2303.97 263.09 2304.23 263.307 2304.32L264.553 2304.86C264.77 2304.96 265.023 2304.86 265.117 2304.64L265.658 2303.39C265.753 2303.17 265.653 2302.92 265.436 2302.83Z" fill="#42E8E0" fill-opacity="0.5"/>
<path d="M200.418 2190.44L199.168 2189.9L198.953 2189.33L199.489 2188.07L200.061 2187.86L201.312 2188.39C201.526 2188.5 201.634 2188.75 201.526 2188.97L200.99 2190.22C200.883 2190.44 200.633 2190.54 200.418 2190.44Z" fill="#42E8E0" fill-opacity="0.5"/>
<path d="M126.291 2280.83L125.045 2280.29C124.828 2280.2 124.575 2280.3 124.481 2280.52L123.94 2281.76C123.846 2281.98 123.946 2282.24 124.163 2282.33L125.409 2282.87C125.626 2282.97 125.879 2282.87 125.973 2282.65L126.514 2281.4C126.608 2281.18 126.508 2280.93 126.291 2280.83Z" fill="#42E8E0" fill-opacity="0.5"/>
<path d="M125.367 2212.53L124.117 2211.99C123.902 2211.88 123.795 2211.63 123.902 2211.42L124.438 2210.16C124.545 2209.95 124.796 2209.84 125.01 2209.95L126.261 2210.49L126.475 2211.06L125.939 2212.31C125.832 2212.53 125.582 2212.63 125.367 2212.53Z" fill="#42E8E0" fill-opacity="0.5"/>
<path d="M588.177 2257.39L586.931 2256.85C586.714 2256.75 586.461 2256.85 586.367 2257.07L585.826 2258.32C585.732 2258.54 585.832 2258.79 586.049 2258.89L587.295 2259.43C587.512 2259.52 587.765 2259.42 587.859 2259.2L588.4 2257.96C588.494 2257.74 588.394 2257.48 588.177 2257.39Z" fill="#42E8E0" fill-opacity="0.5"/>
<path d="M594.234 2210.69L592.988 2210.15C592.771 2210.06 592.518 2210.16 592.424 2210.38L591.883 2211.62C591.788 2211.84 591.888 2212.09 592.105 2212.19L593.351 2212.73C593.568 2212.83 593.821 2212.73 593.915 2212.51L594.456 2211.26C594.55 2211.04 594.451 2210.79 594.234 2210.69Z" fill="#42E8E0" fill-opacity="0.5"/>
<path d="M502.168 2276.9L500.922 2276.35C500.705 2276.26 500.452 2276.36 500.358 2276.58L499.817 2277.83C499.723 2278.04 499.823 2278.3 500.04 2278.39L501.286 2278.93C501.503 2279.03 501.756 2278.93 501.85 2278.71L502.391 2277.46C502.485 2277.24 502.385 2276.99 502.168 2276.9Z" fill="#42E8E0" fill-opacity="0.5"/>
<path d="M463.362 2195.18L462.116 2194.64C461.899 2194.54 461.646 2194.64 461.552 2194.86L461.012 2196.11C460.917 2196.32 461.017 2196.58 461.234 2196.67L462.48 2197.21C462.697 2197.31 462.95 2197.21 463.044 2196.99L463.585 2195.74C463.679 2195.53 463.579 2195.27 463.362 2195.18Z" fill="#42E8E0" fill-opacity="0.5"/>
<path d="M477.284 2359.58L476.034 2359.04L475.819 2358.47L476.355 2357.22L476.927 2357L478.178 2357.54C478.392 2357.65 478.499 2357.9 478.392 2358.11L477.856 2359.36L477.284 2359.58Z" fill="#42E8E0" fill-opacity="0.5"/>
<path d="M202.705 2321.8L201.454 2321.27L201.24 2320.69L201.776 2319.44C201.883 2319.23 202.133 2319.12 202.348 2319.23L203.599 2319.76L203.813 2320.34L203.277 2321.59C203.17 2321.8 202.92 2321.91 202.705 2321.8Z" fill="#42E8E0" fill-opacity="0.5"/>
<path d="M406.167 2404.74L404.921 2404.2C404.704 2404.11 404.451 2404.21 404.357 2404.42L403.816 2405.67C403.722 2405.89 403.822 2406.14 404.039 2406.24L405.285 2406.78C405.502 2406.87 405.755 2406.77 405.849 2406.56L406.39 2405.31C406.484 2405.09 406.384 2404.84 406.167 2404.74Z" fill="#42E8E0" fill-opacity="0.5"/>
<path d="M430.099 2227.27L428.853 2226.73C428.636 2226.63 428.383 2226.73 428.289 2226.95L427.748 2228.2C427.654 2228.42 427.754 2228.67 427.971 2228.76L429.217 2229.31C429.434 2229.4 429.687 2229.3 429.781 2229.08L430.322 2227.84C430.416 2227.62 430.316 2227.36 430.099 2227.27Z" fill="#42E8E0" fill-opacity="0.5"/>
</g>
<g opacity="0.5">
<path d="M406.379 1921H405.021C404.784 1921 404.592 1921.19 404.592 1921.43V1922.79C404.592 1923.03 404.784 1923.22 405.021 1923.22H406.379C406.616 1923.22 406.808 1923.03 406.808 1922.79V1921.43C406.808 1921.19 406.616 1921 406.379 1921Z" fill="#42E8E0" fill-opacity="0.5"/>
<path d="M395.371 2073.85H394.013C393.776 2073.85 393.584 2074.05 393.584 2074.28V2075.64C393.584 2075.88 393.776 2076.07 394.013 2076.07H395.371C395.608 2076.07 395.8 2075.88 395.8 2075.64V2074.28C395.8 2074.05 395.608 2073.85 395.371 2073.85Z" fill="#42E8E0" fill-opacity="0.5"/>
<path d="M330.077 1996.98H328.719C328.482 1996.98 328.29 1997.17 328.29 1997.41V1998.77C328.29 1999.01 328.482 1999.2 328.719 1999.2H330.077C330.314 1999.2 330.506 1999.01 330.506 1998.77V1997.41C330.506 1997.17 330.314 1996.98 330.077 1996.98Z" fill="#42E8E0" fill-opacity="0.5"/>
<path d="M278.685 2051.55H277.327C277.09 2051.55 276.898 2051.74 276.898 2051.98V2053.34C276.898 2053.57 277.09 2053.77 277.327 2053.77H278.685C278.922 2053.77 279.114 2053.57 279.114 2053.34V2051.98C279.114 2051.74 278.922 2051.55 278.685 2051.55Z" fill="#42E8E0" fill-opacity="0.5"/>
<path d="M236.351 1956.39L235.105 1955.85C234.888 1955.75 234.635 1955.85 234.541 1956.07L234 1957.32C233.906 1957.53 234.005 1957.79 234.223 1957.88L235.469 1958.42C235.686 1958.52 235.938 1958.42 236.033 1958.2L236.573 1956.95C236.668 1956.74 236.568 1956.48 236.351 1956.39Z" fill="#42E8E0" fill-opacity="0.5"/>
<path d="M218.321 2095.85L217.075 2095.31C216.858 2095.22 216.605 2095.32 216.511 2095.53L215.97 2096.78C215.876 2097 215.976 2097.25 216.193 2097.35L217.439 2097.89C217.656 2097.98 217.909 2097.88 218.003 2097.67L218.544 2096.42C218.638 2096.2 218.538 2095.95 218.321 2095.85Z" fill="#42E8E0" fill-opacity="0.5"/>
<path d="M161.717 1962.64L160.471 1962.1C160.254 1962 160.001 1962.1 159.907 1962.32L159.366 1963.57C159.272 1963.79 159.371 1964.04 159.588 1964.14L160.834 1964.68C161.051 1964.77 161.304 1964.67 161.398 1964.45L161.939 1963.21C162.034 1962.99 161.934 1962.74 161.717 1962.64Z" fill="#42E8E0" fill-opacity="0.5"/>
<path d="M112.68 2145.54L111.43 2145C111.215 2144.89 111.108 2144.64 111.215 2144.43L111.751 2143.17C111.858 2142.96 112.109 2142.85 112.323 2142.96L113.574 2143.49L113.788 2144.07L113.252 2145.32C113.145 2145.54 112.895 2145.64 112.68 2145.54Z" fill="#42E8E0" fill-opacity="0.5"/>
<path d="M130.335 2050.79L129.084 2050.26C128.87 2050.15 128.762 2049.9 128.87 2049.68L129.406 2048.43C129.513 2048.22 129.763 2048.11 129.978 2048.22L131.228 2048.75L131.443 2049.33L130.907 2050.58L130.335 2050.79Z" fill="#42E8E0" fill-opacity="0.5"/>
<path d="M453.053 2005.39L451.802 2004.86C451.588 2004.75 451.481 2004.5 451.588 2004.28L452.124 2003.03C452.231 2002.82 452.481 2002.71 452.696 2002.82L453.947 2003.35L454.161 2003.93L453.625 2005.18L453.053 2005.39Z" fill="#42E8E0" fill-opacity="0.5"/>
<path d="M495.871 2097.79L494.625 2097.25C494.408 2097.16 494.155 2097.26 494.061 2097.47L493.521 2098.72C493.426 2098.94 493.526 2099.19 493.743 2099.29L494.989 2099.83C495.206 2099.92 495.459 2099.82 495.553 2099.6L496.094 2098.36C496.188 2098.14 496.088 2097.89 495.871 2097.79Z" fill="#42E8E0" fill-opacity="0.5"/>
<path d="M594.57 2088.97L593.325 2088.42C593.107 2088.33 592.855 2088.43 592.76 2088.65L592.22 2089.9C592.125 2090.11 592.225 2090.37 592.442 2090.46L593.688 2091C593.906 2091.1 594.158 2091 594.252 2090.78L594.793 2089.53C594.887 2089.31 594.788 2089.06 594.57 2088.97Z" fill="#42E8E0" fill-opacity="0.5"/>
<path d="M659.607 2059.79L658.361 2059.25C658.144 2059.15 657.891 2059.25 657.797 2059.47L657.256 2060.72C657.161 2060.94 657.261 2061.19 657.478 2061.28L658.724 2061.83C658.941 2061.92 659.194 2061.82 659.288 2061.6L659.829 2060.36C659.924 2060.14 659.824 2059.88 659.607 2059.79Z" fill="#42E8E0" fill-opacity="0.5"/>
<path d="M226.007 2179.37H224.649C224.412 2179.37 224.22 2179.56 224.22 2179.8V2181.16C224.22 2181.4 224.412 2181.59 224.649 2181.59H226.007C226.244 2181.59 226.436 2181.4 226.436 2181.16V2179.8C226.436 2179.56 226.244 2179.37 226.007 2179.37Z" fill="#42E8E0" fill-opacity="0.5"/>
<path d="M343.997 2103.45L342.752 2102.91C342.534 2102.81 342.282 2102.91 342.187 2103.13L341.647 2104.38C341.552 2104.59 341.652 2104.85 341.869 2104.94L343.115 2105.48C343.333 2105.58 343.585 2105.48 343.679 2105.26L344.22 2104.01C344.314 2103.8 344.215 2103.54 343.997 2103.45Z" fill="#42E8E0" fill-opacity="0.5"/>
<path d="M68.5073 2067.69L67.2565 2067.16C67.0421 2067.05 66.9348 2066.8 67.0421 2066.58L67.5781 2065.33C67.6854 2065.12 67.9355 2065.01 68.15 2065.12L69.4008 2065.65L69.6152 2066.23L69.0792 2067.48L68.5073 2067.69Z" fill="#42E8E0" fill-opacity="0.5"/>
<path d="M271.916 2150.65L270.671 2150.11C270.453 2150.02 270.201 2150.12 270.106 2150.33L269.565 2151.58C269.471 2151.8 269.571 2152.05 269.788 2152.15L271.033 2152.69C271.251 2152.78 271.503 2152.68 271.598 2152.47L272.139 2151.22C272.233 2151 272.134 2150.75 271.916 2150.65Z" fill="#42E8E0" fill-opacity="0.5"/>
<path d="M386.973 1982.37L385.722 1981.83C385.507 1981.73 385.4 1981.47 385.507 1981.26L386.043 1980.01C386.151 1979.79 386.401 1979.68 386.615 1979.79L387.866 1980.33C388.081 1980.44 388.188 1980.69 388.081 1980.9L387.544 1982.16L386.973 1982.37Z" fill="#42E8E0" fill-opacity="0.5"/>
</g>
<defs>
<linearGradient id="paint0_linear_815_867" x1="814.5" y1="144.5" x2="582.313" y2="947.167" gradientUnits="userSpaceOnUse">
<stop stop-color="#42E8E0" stop-opacity="0"/>
<stop offset="0.423721" stop-color="#00A8B3" stop-opacity="0"/>
<stop offset="1" stop-opacity="0.6"/>
</linearGradient>
<linearGradient id="paint1_linear_815_867" x1="1008.01" y1="816.5" x2="416.425" y2="1503.96" gradientUnits="userSpaceOnUse">
<stop stop-opacity="0"/>
<stop offset="0.614583" stop-color="#00A8B3" stop-opacity="0.3"/>
<stop offset="1" stop-color="#42E8E0" stop-opacity="0"/>
</linearGradient>
<linearGradient id="paint2_linear_815_867" x1="820" y1="1477.5" x2="302.632" y2="2536.37" gradientUnits="userSpaceOnUse">
<stop stop-opacity="0"/>
<stop offset="0.614583" stop-color="#00A8B3" stop-opacity="0.3"/>
<stop offset="1" stop-color="#42E8E0" stop-opacity="0"/>
</linearGradient>
</defs>
</svg>
