<svg width="190" height="47" viewBox="0 0 190 47" fill="none" xmlns="http://www.w3.org/2000/svg">
<path d="M68.7048 7.03479C68.7048 7.30863 68.4268 7.58669 68.1487 7.58669C68.056 7.58669 67.8707 7.494 67.778 7.40132C66.2023 5.74984 64.0748 4.83142 61.4796 4.55757C61.0162 4.46489 60.5528 4.46489 60.0894 4.46489C55.4045 4.46489 50.1805 6.75674 45.6221 10.4599L52.4976 10.5231H56.1081C59.4406 10.5231 61.7577 10.7085 63.2364 10.9823C65.2755 11.4415 66.6616 12.2673 67.5884 13.3711C68.4226 14.5633 68.6079 15.941 67.9591 17.4998C67.5884 18.5109 66.9396 19.5178 66.0128 20.3435C65.0859 21.1692 63.8852 21.995 62.3096 22.7323C64.256 23.558 65.4567 24.4764 66.1054 25.6687C66.6616 26.8609 66.6616 28.2386 66.1054 29.7974C65.5493 31.3562 64.5298 32.7338 62.9584 34.0188C61.4754 35.3037 59.7186 36.2221 57.8649 36.8625C56.0112 37.5071 53.5129 37.7809 50.6439 37.7809H46.2035C46.056 37.8357 45.9001 37.8736 45.7358 37.8736L40.3896 37.8062L40.3643 37.8736V37.8062L38.3294 37.7809C37.588 37.7809 36.9392 37.1363 36.9392 36.4033C36.9392 35.6702 37.588 35.0257 38.3294 35.0257L41.3923 35.0636L49.3716 13.2447L42.6814 13.1815C42.6814 13.1815 42.6519 13.1815 42.6393 13.1773C40.2169 15.6587 38.1104 18.5446 36.5389 21.6664L40.6466 21.7169C41.4807 21.7169 42.0368 22.3615 42.0368 23.0946C42.0368 23.8276 41.3881 24.4722 40.6466 24.4722L35.3003 24.409C34.4283 26.6545 33.9395 28.9084 33.7921 30.9896H28.9767C29.2547 28.0532 30.0889 25.0241 31.5677 21.8096C36.8507 10.3377 48.4237 1.70962 58.3326 1.70962C58.8887 1.70962 59.4448 1.70962 60.0009 1.8023C63.7041 2.16883 66.6658 3.82031 68.6122 6.66826C68.7048 6.76095 68.7975 6.85363 68.7048 7.03479ZM61.0204 18.2328C61.2985 17.4071 61.2058 16.674 60.557 16.2148C60.0009 15.7556 58.8887 15.4818 57.3172 15.4818H54.0775L51.9457 21.2661H54.9074C56.5757 21.2661 57.9618 20.9923 58.9813 20.4404C60.0009 19.8885 60.6497 19.1555 61.0204 18.237V18.2328ZM47.6864 32.8265H50.9262C53.7952 32.8265 55.8343 32.5526 57.035 32.0008C58.2357 31.4489 58.9813 30.6231 59.4406 29.612C59.904 28.4197 59.6259 27.5013 58.6991 26.8567C57.7722 26.2122 55.9227 25.8456 53.2349 25.8456H50.2732L47.6822 32.8223L47.6864 32.8265ZM48.2425 2.26151C43.8905 2.81341 39.1678 5.19794 35.0939 8.87164C33.5183 10.2493 32.1322 11.8081 30.8346 13.4595H26.4826C32.128 5.83831 40.4654 0.698509 48.1498 0.972351C48.5206 0.972351 48.7986 1.24619 48.7986 1.61693C48.7986 1.89077 48.6133 2.26151 48.2425 2.2573V2.26151ZM21.8526 12.3558C19.4428 15.4775 17.5006 19.0543 16.4811 22.8207C15.0908 27.6867 15.0908 32.46 16.3884 36.496C17.1299 38.792 18.2421 40.7174 19.7208 42.2761C19.9989 42.55 19.9989 43.0092 19.7208 43.2873C19.6281 43.4726 19.3501 43.5611 19.1647 43.5611C18.9794 43.5611 18.8867 43.5611 18.7013 43.4684C16.6243 42.036 15.0234 40.1065 13.8985 37.8483C13.8353 37.8568 13.7679 37.8694 13.7005 37.8694L7.86558 37.7767C7.1241 37.7767 6.47531 37.1321 6.47531 36.3991C6.47531 35.666 7.1241 35.0214 7.86558 35.0214L12.82 35.0973C11.6657 31.2087 11.7246 26.6503 13.1444 21.9866C14.0839 18.8521 15.5584 15.9115 17.4332 13.3079L15.8323 13.2657C15.0908 13.2657 14.442 12.6254 14.442 11.8881C14.442 11.1508 15.0908 10.5105 15.8323 10.5105L19.3501 10.6032C19.4428 10.6032 19.5355 10.6116 19.6239 10.6327C22.4256 7.58669 25.8254 5.20216 29.537 3.81188C30.0004 3.63072 30.3712 3.81188 30.5565 4.17841C30.6492 4.54494 30.5565 5.00415 30.3712 5.27799C27.2241 6.83678 24.2582 9.31821 21.8526 12.3473V12.3558ZM8.98202 23.5538L1.57564 23.6465C0.74148 23.6465 0 22.9134 0 22.0877C0 21.2619 0.74148 20.5289 1.57564 20.5289L8.88933 20.4362C9.81618 20.4362 10.5577 21.1692 10.5577 21.995C10.5577 22.8207 9.81618 23.5538 8.98202 23.5538ZM21.2965 24.1057C21.5745 23.1873 21.8526 22.1761 22.2233 21.2619C22.8721 19.4251 23.7063 17.7736 24.7216 16.2148H28.9809C27.8687 18.1443 26.8534 20.0697 26.0192 22.1804C25.8338 22.8249 25.5558 23.4653 25.3704 24.1099H21.2965V24.1057ZM24.5362 26.7683C23.7948 30.1639 23.7948 33.4669 24.4436 36.3148C25.3704 40.1697 27.4053 43.0134 30.3712 44.6691C30.6492 44.8545 30.7419 45.221 30.6492 45.4948C30.5565 45.6802 30.3712 45.8614 30.0931 45.8614H29.9078C26.2973 44.8503 23.5209 42.5584 21.8526 39.2512C20.0916 35.7629 19.7208 31.3562 20.555 26.7683H24.5362ZM33.9817 33.6522C34.1671 35.5775 34.6305 37.2332 35.4646 38.6993C37.0403 41.4546 39.7239 43.1061 43.1491 43.4726C43.6125 43.5653 44.0759 43.5653 44.5393 43.5653C47.0376 43.5653 49.7255 42.9207 52.5018 41.6358C52.7799 41.5431 53.1506 41.6358 53.2433 41.9096C53.4287 42.1835 53.336 42.4615 53.0579 42.6427C49.1694 44.846 45.2808 46.0383 41.6703 46.0383C41.1142 46.0383 40.5581 46.0383 40.002 45.9456C35.9281 45.4864 32.781 43.5611 30.8346 40.2539C29.7224 38.3286 29.0736 36.1252 29.0736 33.6438H33.9817V33.6522Z" fill="white"/>
<path d="M179.565 34.4024C175.011 34.4024 172.2 31.3986 172.2 27.3036C172.2 21.4771 176.456 16.4216 182.598 16.4216C187.447 16.4216 190 19.7414 190 23.5583C190 29.389 185.707 34.4024 179.565 34.4024ZM182.08 19.6023C178.638 19.6023 176.641 23.9838 176.641 27.1983C176.641 29.566 177.972 31.2259 180.159 31.2259C183.377 31.2259 185.526 26.9876 185.526 23.5625C185.526 21.7973 184.713 19.6066 182.084 19.6066L182.08 19.6023ZM172.31 20.4491C169.239 20.4491 167.276 23.4151 166.572 27.0888L165.203 34.0149H160.91C160.91 34.0149 163.724 18.3637 163.943 16.8134H167.979C167.731 17.9719 167.461 19.181 167.276 20.4534H167.385C168.607 18.1236 170.566 16.4258 173.047 16.4258C173.342 16.4258 173.675 16.4595 173.974 16.4974L173.123 20.525C172.9 20.4913 172.605 20.4534 172.31 20.4534V20.4491ZM151.73 25.1845C150.841 25.1845 150.066 25.0792 149.4 25.0076L147.622 34.0149H143.367L148.031 10.595C149.547 10.2412 151.806 10.0305 154.064 10.0305C156.322 10.0305 158.837 10.4897 160.429 11.7241C161.912 12.7858 162.726 14.3404 162.726 16.4595C162.726 19.2864 161.318 21.5487 159.545 22.9264C157.548 24.443 154.696 25.1887 151.734 25.1887L151.73 25.1845ZM154.06 13.3503C152.985 13.3503 152.172 13.4219 151.692 13.561L150.066 21.6161C150.769 21.7594 151.397 21.8268 152.324 21.8268C155.989 21.8268 158.395 19.6023 158.395 16.7754C158.395 14.2687 156.507 13.3503 154.064 13.3503H154.06ZM131.794 34.4024C127.206 34.4024 124.135 31.5419 124.135 27.2657C124.135 21.2622 128.504 16.3499 134.941 16.3499C139.79 16.3499 142.6 19.5307 142.6 23.4488C142.6 29.7724 138.084 34.3982 131.794 34.3982V34.4024ZM134.238 20.2006C131.166 20.2006 129.612 24.4767 129.65 27.1604C129.65 29.1742 130.686 30.5181 132.536 30.5181C135.459 30.5181 137.086 26.4568 137.086 23.4867C137.086 21.8984 136.382 20.2006 134.238 20.2006ZM124.097 20.5882H120.246L119.025 26.4526C118.877 27.1225 118.73 28.0409 118.73 28.6433C118.73 29.4901 119.1 30.0926 120.246 30.0926C120.727 30.0926 121.245 30.0926 121.729 30.021L121.102 34.0106C120.436 34.2592 119.105 34.3982 117.955 34.3982C114.774 34.3982 113.253 32.8099 113.253 30.6529C113.253 29.7008 113.362 28.7824 113.624 27.4384L116.476 13.4851L121.953 12.0359L121.026 16.7333H124.876L124.101 20.584L124.097 20.5882ZM109.625 14.5805H109.588C108.143 14.5805 107.035 13.6284 107.035 12.1075C107.072 10.376 108.48 9.20898 110.106 9.20898C111.732 9.20898 112.773 10.199 112.773 11.7157C112.773 13.5188 111.328 14.5763 109.625 14.5763V14.5805ZM108.18 34.0106H102.851L106.293 16.7375H111.622L108.18 34.0106ZM97.6691 21.4013C100.075 22.109 101.591 23.9796 101.591 26.5958C101.591 29.2121 100.146 31.011 98.1873 32.2496C96.0766 33.5936 92.9296 34.1918 88.7882 34.1918C85.974 34.1918 83.7158 33.9811 82.4983 33.7326L87.0862 10.595C88.8641 10.2791 91.1559 10.0305 93.6373 10.0305C96.1188 10.0305 98.1536 10.3465 99.8177 11.3028C101.482 12.1159 102.704 13.6326 102.704 15.6464C102.704 18.6502 100.374 20.5545 97.6691 21.3002V21.4055V21.4013ZM88.4175 30.0926C89.0452 30.1642 89.6772 30.1979 90.4523 30.1979C93.3382 30.1979 95.9671 29.1026 95.9671 26.4526C95.9671 24.0849 93.8943 23.3814 91.4129 23.3814H89.7488L88.4175 30.0926ZM93.7469 13.9823C92.82 13.9823 92.0828 14.0539 91.6741 14.1592L90.5661 19.6697H92.344C95.2678 19.6697 97.2647 18.4691 97.2647 16.4553C97.2647 14.7237 95.7859 13.9823 93.7469 13.9823Z" fill="white"/>
</svg>
