<svg width="570" height="515" viewBox="0 0 570 515" fill="none" xmlns="http://www.w3.org/2000/svg">
<g opacity="0.15">
<g opacity="0.4">
<path d="M280.502 397.408L250.574 380.096V414.703L280.502 432.015L310.446 414.703V380.096L280.502 397.408Z" fill="#42E8E0"/>
<path d="M280.502 432.015L250.574 414.703V380.096L280.502 397.408V432.015Z" fill="#42E8E0"/>
<path d="M310.446 414.703L280.502 432.015V397.408L310.446 380.096V414.703Z" fill="#2FD3C7"/>
<path d="M280.502 397.408L250.574 380.096L280.502 362.785L310.446 380.096L280.502 397.408Z" fill="#42E8E0"/>
<path d="M280.502 397.408L250.574 380.096V381.599L280.502 398.91L310.446 381.599V380.096L280.502 397.408Z" fill="white"/>
</g>
<path opacity="0.2" d="M280.502 376.424L250.574 359.112L280.502 341.817L310.446 359.112L280.502 376.424Z" fill="#03002D"/>
<path d="M280.502 315.59L250.574 298.295V332.902L280.502 350.214L310.446 332.902V298.295L280.502 315.59Z" fill="#42E8E0"/>
<path d="M280.502 350.214L250.574 332.902V298.295L280.502 315.59V350.214Z" fill="#42E8E0"/>
<path d="M310.446 332.902L280.502 350.214V315.59L310.446 298.295V332.902Z" fill="#2FD3C7"/>
<path d="M280.502 315.591L250.574 298.296L280.502 280.984L310.446 298.296L280.502 315.591Z" fill="#42E8E0"/>
<path d="M280.502 315.59L250.574 298.295V299.798L280.502 317.093L310.446 299.798V298.295L280.502 315.59Z" fill="white"/>
<g opacity="0.4">
<path d="M420.813 305.641L390.885 288.329V322.936L420.813 340.247L450.757 322.936V288.329L420.813 305.641Z" fill="#42E8E0"/>
<path d="M420.829 340.247L390.885 322.936V288.329L420.829 305.641V340.247Z" fill="#42E8E0"/>
<path d="M450.757 322.936L420.829 340.247V305.641L450.757 288.329V322.936Z" fill="#2FD3C7"/>
<path d="M420.829 305.641L390.885 288.329L420.813 271.034L450.757 288.329L420.829 305.641Z" fill="#42E8E0"/>
<path d="M420.813 305.641L390.885 288.329V289.832L420.813 307.143L450.757 289.832V288.329L420.813 305.641Z" fill="white"/>
</g>
<path opacity="0.2" d="M420.829 284.657L390.885 267.345L420.813 250.05L450.757 267.345L420.829 284.657Z" fill="#03002D"/>
<path d="M420.502 296.894L369 267.112L420.502 237.347L472.003 267.112L420.502 296.894Z" stroke="#42E8E0" stroke-width="2" stroke-miterlimit="10"/>
<path d="M420.813 223.623L390.885 206.312V240.918L420.813 258.23L450.757 240.918V206.312L420.813 223.623Z" fill="#42E8E0"/>
<path d="M420.829 258.23L390.885 240.918V206.312L420.829 223.607V258.23Z" fill="#42E8E0"/>
<path d="M450.757 240.918L420.829 258.23V223.607L450.757 206.312V240.918Z" fill="#2FD3C7"/>
<path d="M420.829 223.607L390.885 206.312L420.813 189L450.757 206.312L420.829 223.607Z" fill="#42E8E0"/>
<path d="M420.813 223.623L390.885 206.312V207.814L420.813 225.109L450.757 207.814V206.312L420.813 223.623Z" fill="white"/>
</g>
<g opacity="0.5">
<path d="M473.577 254.075H472.219C471.982 254.075 471.79 254.267 471.79 254.504V255.865C471.79 256.102 471.982 256.295 472.219 256.295H473.577C473.814 256.295 474.006 256.102 474.006 255.865V254.504C474.006 254.267 473.814 254.075 473.577 254.075Z" fill="#42E8E0" fill-opacity="0.5"/>
<path d="M462.605 406.928H461.247C461.01 406.928 460.818 407.12 460.818 407.357V408.718C460.818 408.955 461.01 409.148 461.247 409.148H462.605C462.842 409.148 463.034 408.955 463.034 408.718V407.357C463.034 407.12 462.842 406.928 462.605 406.928Z" fill="#42E8E0" fill-opacity="0.5"/>
<path d="M392.773 373.808H391.414C391.178 373.808 390.986 374 390.986 374.237V375.598C390.986 375.835 391.178 376.028 391.414 376.028H392.773C393.009 376.028 393.201 375.835 393.201 375.598V374.237C393.201 374 393.009 373.808 392.773 373.808Z" fill="#42E8E0" fill-opacity="0.5"/>
<path d="M345.884 384.621H344.526C344.289 384.621 344.097 384.813 344.097 385.051V386.411C344.097 386.649 344.289 386.841 344.526 386.841H345.884C346.12 386.841 346.312 386.649 346.312 386.411V385.051C346.312 384.813 346.12 384.621 345.884 384.621Z" fill="#42E8E0" fill-opacity="0.5"/>
<path d="M321.617 338.468L320.366 337.931L320.152 337.358L320.688 336.104L321.26 335.89L322.511 336.427C322.725 336.534 322.832 336.785 322.725 337L322.189 338.253C322.082 338.468 321.832 338.575 321.617 338.468Z" fill="#42E8E0" fill-opacity="0.5"/>
<path d="M285.541 428.903L284.296 428.361C284.078 428.267 283.826 428.366 283.731 428.584L283.191 429.832C283.096 430.05 283.196 430.303 283.413 430.397L284.659 430.939C284.876 431.034 285.129 430.934 285.223 430.716L285.764 429.468C285.858 429.25 285.759 428.997 285.541 428.903Z" fill="#42E8E0" fill-opacity="0.5"/>
<path d="M228.053 297.793L226.803 297.256C226.588 297.148 226.481 296.898 226.588 296.683L227.124 295.43C227.231 295.215 227.482 295.108 227.696 295.215L228.947 295.752L229.161 296.325L228.625 297.578L228.053 297.793V297.793Z" fill="#42E8E0" fill-opacity="0.5"/>
<path d="M134.322 337.711L133.076 337.17C132.859 337.075 132.606 337.175 132.512 337.393L131.971 338.641C131.877 338.858 131.977 339.112 132.194 339.206L133.44 339.748C133.657 339.842 133.91 339.742 134.004 339.525L134.545 338.276C134.639 338.059 134.539 337.806 134.322 337.711Z" fill="#42E8E0" fill-opacity="0.5"/>
<path d="M180.717 476.56L179.472 476.018C179.254 475.923 179.002 476.023 178.907 476.241L178.366 477.489C178.272 477.706 178.372 477.96 178.589 478.054L179.835 478.596C180.052 478.69 180.305 478.591 180.399 478.373L180.94 477.125C181.034 476.907 180.934 476.654 180.717 476.56Z" fill="#42E8E0" fill-opacity="0.5"/>
<path d="M198.436 381.826L197.19 381.283C196.973 381.189 196.72 381.289 196.626 381.506L196.085 382.754C195.991 382.972 196.09 383.225 196.307 383.32L197.553 383.862C197.77 383.956 198.023 383.856 198.117 383.639L198.658 382.391C198.753 382.173 198.653 381.92 198.436 381.826Z" fill="#42E8E0" fill-opacity="0.5"/>
<path d="M133.418 269.435L132.168 268.898L131.953 268.325L132.489 267.072L133.061 266.857L134.312 267.395C134.526 267.502 134.634 267.753 134.526 267.967L133.99 269.221C133.883 269.435 133.633 269.543 133.418 269.435Z" fill="#42E8E0" fill-opacity="0.5"/>
<path d="M59.2911 359.835L58.0453 359.293C57.828 359.199 57.5754 359.299 57.4811 359.516L56.9405 360.764C56.8462 360.982 56.9459 361.235 57.1631 361.33L58.4089 361.871C58.6262 361.966 58.8788 361.866 58.9731 361.648L59.5138 360.4C59.608 360.182 59.5083 359.929 59.2911 359.835Z" fill="#42E8E0" fill-opacity="0.5"/>
<path d="M58.3674 291.527L57.1166 290.99C56.9022 290.882 56.795 290.632 56.9022 290.417L57.4382 289.164C57.5455 288.949 57.7956 288.841 58.0101 288.949L59.2609 289.486L59.4753 290.059L58.9393 291.312C58.832 291.527 58.5819 291.634 58.3674 291.527Z" fill="#42E8E0" fill-opacity="0.5"/>
<path d="M521.177 336.39L519.931 335.849C519.714 335.754 519.461 335.854 519.367 336.072L518.826 337.32C518.732 337.538 518.832 337.791 519.049 337.885L520.295 338.427C520.512 338.521 520.765 338.421 520.859 338.204L521.4 336.956C521.494 336.738 521.394 336.485 521.177 336.39Z" fill="#42E8E0" fill-opacity="0.5"/>
<path d="M527.234 289.694L525.988 289.153C525.771 289.058 525.518 289.158 525.424 289.376L524.883 290.624C524.788 290.841 524.888 291.094 525.105 291.189L526.351 291.731C526.568 291.825 526.821 291.725 526.915 291.508L527.456 290.26C527.55 290.042 527.451 289.789 527.234 289.694Z" fill="#42E8E0" fill-opacity="0.5"/>
<path d="M435.168 355.896L433.922 355.355C433.705 355.26 433.452 355.36 433.358 355.578L432.817 356.826C432.723 357.044 432.823 357.297 433.04 357.391L434.286 357.933C434.503 358.027 434.756 357.927 434.85 357.71L435.391 356.462C435.485 356.244 435.385 355.991 435.168 355.896Z" fill="#42E8E0" fill-opacity="0.5"/>
<path d="M396.362 274.178L395.116 273.636C394.899 273.541 394.646 273.641 394.552 273.859L394.012 275.107C393.917 275.325 394.017 275.578 394.234 275.672L395.48 276.214C395.697 276.308 395.95 276.209 396.044 275.991L396.585 274.743C396.679 274.525 396.579 274.272 396.362 274.178Z" fill="#42E8E0" fill-opacity="0.5"/>
<path d="M293.241 512.482H291.882C291.646 512.482 291.454 512.674 291.454 512.912V514.272C291.454 514.509 291.646 514.702 291.882 514.702H293.241C293.477 514.702 293.669 514.509 293.669 514.272V512.912C293.669 512.674 293.477 512.482 293.241 512.482Z" fill="#42E8E0" fill-opacity="0.5"/>
<path d="M410.284 438.579L409.034 438.042L408.819 437.469L409.355 436.216L409.927 436.001L411.178 436.539C411.392 436.646 411.499 436.897 411.392 437.111L410.856 438.365L410.284 438.579Z" fill="#42E8E0" fill-opacity="0.5"/>
<path d="M135.705 400.805L134.454 400.268L134.24 399.695L134.776 398.442C134.883 398.227 135.133 398.119 135.348 398.227L136.599 398.764L136.813 399.337L136.277 400.59C136.17 400.805 135.92 400.912 135.705 400.805Z" fill="#42E8E0" fill-opacity="0.5"/>
<path d="M339.167 483.742L337.921 483.2C337.704 483.106 337.451 483.206 337.357 483.423L336.816 484.672C336.722 484.889 336.822 485.142 337.039 485.237L338.285 485.778C338.502 485.873 338.755 485.773 338.849 485.555L339.39 484.307C339.484 484.09 339.384 483.836 339.167 483.742Z" fill="#42E8E0" fill-opacity="0.5"/>
<path d="M363.099 306.27L361.853 305.728C361.636 305.634 361.383 305.734 361.289 305.951L360.748 307.199C360.654 307.417 360.754 307.67 360.971 307.765L362.217 308.306C362.434 308.401 362.687 308.301 362.781 308.083L363.322 306.835C363.416 306.617 363.316 306.364 363.099 306.27Z" fill="#42E8E0" fill-opacity="0.5"/>
</g>
<g opacity="0.5">
<path d="M339.379 0H338.021C337.784 0 337.592 0.192367 337.592 0.429664V1.79027C337.592 2.02756 337.784 2.21993 338.021 2.21993H339.379C339.616 2.21993 339.808 2.02756 339.808 1.79027V0.429664C339.808 0.192367 339.616 0 339.379 0Z" fill="#42E8E0" fill-opacity="0.5"/>
<path d="M328.371 152.853H327.013C326.776 152.853 326.584 153.045 326.584 153.283V154.643C326.584 154.881 326.776 155.073 327.013 155.073H328.371C328.608 155.073 328.8 154.881 328.8 154.643V153.283C328.8 153.045 328.608 152.853 328.371 152.853Z" fill="#42E8E0" fill-opacity="0.5"/>
<path d="M263.077 75.979H261.719C261.482 75.979 261.29 76.1714 261.29 76.4087V77.7693C261.29 78.0066 261.482 78.1989 261.719 78.1989H263.077C263.314 78.1989 263.506 78.0066 263.506 77.7693V76.4087C263.506 76.1714 263.314 75.979 263.077 75.979Z" fill="#42E8E0" fill-opacity="0.5"/>
<path d="M211.685 130.546H210.327C210.09 130.546 209.898 130.739 209.898 130.976V132.337C209.898 132.574 210.09 132.766 210.327 132.766H211.685C211.922 132.766 212.114 132.574 212.114 132.337V130.976C212.114 130.739 211.922 130.546 211.685 130.546Z" fill="#42E8E0" fill-opacity="0.5"/>
<path d="M169.351 35.3875L168.105 34.8459C167.888 34.7514 167.635 34.8513 167.541 35.069L167 36.3171C166.906 36.5348 167.005 36.7878 167.223 36.8823L168.469 37.424C168.686 37.5184 168.938 37.4185 169.033 37.2009L169.573 35.9527C169.668 35.735 169.568 35.482 169.351 35.3875Z" fill="#42E8E0" fill-opacity="0.5"/>
<path d="M151.321 174.852L150.075 174.31C149.858 174.216 149.605 174.316 149.511 174.533L148.97 175.781C148.876 175.999 148.976 176.252 149.193 176.347L150.439 176.888C150.656 176.983 150.909 176.883 151.003 176.665L151.544 175.417C151.638 175.199 151.538 174.946 151.321 174.852Z" fill="#42E8E0" fill-opacity="0.5"/>
<path d="M94.7168 41.641L93.4712 41.0989C93.254 41.0044 93.0014 41.1042 92.907 41.3218L92.3659 42.5698C92.2715 42.7874 92.3712 43.0405 92.5884 43.135L93.834 43.6771C94.0513 43.7717 94.3039 43.6719 94.3982 43.4543L94.9393 42.2063C95.0337 41.9887 94.9341 41.7356 94.7168 41.641Z" fill="#42E8E0" fill-opacity="0.5"/>
<path d="M45.6804 224.535L44.4296 223.998C44.2152 223.891 44.1079 223.64 44.2152 223.425L44.7512 222.172C44.8585 221.957 45.1086 221.85 45.3231 221.957L46.5739 222.494L46.7883 223.067L46.2522 224.32C46.145 224.535 45.8949 224.643 45.6804 224.535Z" fill="#42E8E0" fill-opacity="0.5"/>
<path d="M63.335 129.794L62.0841 129.257C61.8697 129.15 61.7625 128.899 61.8697 128.684L62.4058 127.431C62.513 127.216 62.7632 127.109 62.9776 127.216L64.2284 127.754L64.4429 128.326L63.9068 129.58L63.335 129.794Z" fill="#42E8E0" fill-opacity="0.5"/>
<path d="M386.053 84.3931L384.802 83.856C384.588 83.7486 384.481 83.4979 384.588 83.2831L385.124 82.0299C385.231 81.8151 385.481 81.7077 385.696 81.8151L386.947 82.3522L387.161 82.9251L386.625 84.1782L386.053 84.3931Z" fill="#42E8E0" fill-opacity="0.5"/>
<path d="M428.871 176.791L427.625 176.25C427.408 176.155 427.155 176.255 427.061 176.473L426.521 177.721C426.426 177.939 426.526 178.192 426.743 178.286L427.989 178.828C428.206 178.922 428.459 178.822 428.553 178.605L429.094 177.357C429.188 177.139 429.088 176.886 428.871 176.791Z" fill="#42E8E0" fill-opacity="0.5"/>
<path d="M527.57 167.966L526.325 167.424C526.107 167.33 525.855 167.429 525.76 167.647L525.22 168.895C525.125 169.113 525.225 169.366 525.442 169.46L526.688 170.002C526.906 170.097 527.158 169.997 527.252 169.779L527.793 168.531C527.887 168.313 527.788 168.06 527.57 167.966Z" fill="#42E8E0" fill-opacity="0.5"/>
<path d="M159.007 258.372H157.649C157.412 258.372 157.22 258.564 157.22 258.801V260.162C157.22 260.399 157.412 260.591 157.649 260.591H159.007C159.244 260.591 159.436 260.399 159.436 260.162V258.801C159.436 258.564 159.244 258.372 159.007 258.372Z" fill="#42E8E0" fill-opacity="0.5"/>
<path d="M276.997 182.448L275.752 181.906C275.534 181.811 275.282 181.911 275.187 182.129L274.647 183.377C274.552 183.595 274.652 183.848 274.869 183.942L276.115 184.484C276.333 184.578 276.585 184.479 276.679 184.261L277.22 183.013C277.314 182.795 277.215 182.542 276.997 182.448Z" fill="#42E8E0" fill-opacity="0.5"/>
<path d="M1.50734 146.694L0.256492 146.157C0.0420611 146.05 -0.0651543 145.799 0.0420611 145.584L0.578138 144.331C0.685354 144.116 0.935523 144.009 1.14995 144.116L2.4008 144.653L2.61523 145.226L2.07915 146.48L1.50734 146.694V146.694Z" fill="#42E8E0" fill-opacity="0.5"/>
<path d="M204.916 229.654L203.671 229.112C203.453 229.017 203.201 229.117 203.106 229.335L202.565 230.582C202.471 230.8 202.571 231.053 202.788 231.148L204.033 231.69C204.251 231.784 204.503 231.685 204.598 231.467L205.139 230.219C205.233 230.001 205.134 229.748 204.916 229.654Z" fill="#42E8E0" fill-opacity="0.5"/>
<path d="M319.973 61.3701L318.722 60.833C318.507 60.7256 318.4 60.475 318.507 60.2602L319.043 59.007C319.151 58.7921 319.401 58.6847 319.615 58.7921L320.866 59.3292C321.081 59.4366 321.188 59.6873 321.081 59.9021L320.544 61.1553L319.973 61.3701Z" fill="#42E8E0" fill-opacity="0.5"/>
</g>
</svg>
