<svg width="130" height="38" viewBox="0 0 130 38" fill="none" xmlns="http://www.w3.org/2000/svg">
<path d="M122.999 21.6218H106.804V36.5718H99.803V0.803223H106.804V15.9389H122.999V0.803223H130V36.5718H122.999V21.2132V21.6218Z" fill="white"/>
<path d="M54.9341 0.803223H51.9441H48.9541L33.7441 36.5718H41.0799L51.7584 10.7389H52.1113L62.697 36.5718H70.1441L54.9341 0.803223Z" fill="white"/>
<path d="M69.0667 28.7157L69.1409 28.9015C69.6424 30.2015 72.5395 37.0543 82.1224 37.4258C97.4624 38.0015 97.1838 28.1029 97.1838 26.0786C97.1838 24.7415 96.441 20.6743 91.9652 18.3157C86.2081 15.27 76.4209 15.6415 76.4209 9.77289C76.4209 7.97146 78.0181 5.46431 82.7724 5.37146C87.3595 5.2786 89.7738 8.2686 90.0895 9.9586L95.3452 8.41717C94.4167 6.37431 92.4109 0.635742 82.5309 0.635742C80.5995 0.635742 78.8352 0.858599 77.3309 1.36003C71.1838 3.44003 70.0695 8.19432 70.0695 10.5715C70.1624 24.2772 90.4981 20.7115 90.2752 27.7872C90.2009 30.3872 87.6567 32.43 82.5495 32.2257C77.2567 32.0029 75.4552 28.7529 74.6009 26.8586L69.0852 28.7343L69.0667 28.7157Z" fill="white"/>
<path d="M18.33 5.96584C22.9357 5.87299 25.6657 8.25013 26.1486 9.84727L31.7572 8.30584C30.8286 6.26299 27.5971 0.914414 18.5157 0.524414C1.3 0.524414 0 16.663 0 18.2973C0 35.3087 12.6471 37.203 17.55 37.4259C21.9329 37.6301 28.6929 37.1844 31.98 36.4973V15.9387H14.2257V21.6216H25.3314C25.3314 21.6216 25.4243 21.6773 25.4243 21.733V31.6873C25.4243 31.6873 25.3871 31.8173 25.3314 31.8173C25.3314 31.8173 22.5829 32.3744 18.6271 32.2444C17.0671 32.1887 7.31714 31.7987 7.31714 19.0216C7.31714 10.813 11.4214 6.04013 18.33 5.96584Z" fill="white"/>
</svg>
