<svg width="59" height="153" viewBox="0 0 59 153" fill="none" xmlns="http://www.w3.org/2000/svg">
<g opacity="0.2">
<g opacity="0.4">
<path d="M29.5082 118.712L0 101.674V135.733L29.5082 152.771L59 135.733V101.674L29.5082 118.712Z" fill="#42E8E0"/>
<path d="M29.5082 152.771L0 135.733V101.674L29.5082 118.712V152.771Z" fill="#42E8E0"/>
<path d="M58.9998 135.733L29.5081 152.771V118.712L58.9998 101.674V135.733Z" fill="#2FD3C7"/>
<path d="M29.5082 118.712L0 101.674L29.4918 84.6362L59 101.674L29.5082 118.712Z" fill="#42E8E0"/>
<path d="M29.5082 118.712L0 101.674V103.153L29.5082 120.19L59 103.153V101.674L29.5082 118.712Z" fill="white"/>
</g>
<path opacity="0.2" d="M29.5082 98.0593L0 81.0214L29.4918 64L59 81.0214L29.5082 98.0593Z" fill="#03002D"/>
<path d="M29.5082 34.0593L0 17.0378V51.0972L29.5082 68.135L59 51.0972V17.0378L29.5082 34.0593Z" fill="#42E8E0"/>
<path d="M29.5082 68.135L0 51.0972V17.0378L29.5082 34.0593V68.135Z" fill="#42E8E0"/>
<path d="M58.9998 51.0972L29.5081 68.135V34.0593L58.9998 17.0378V51.0972Z" fill="#2FD3C7"/>
<path d="M29.5082 34.0593L0 17.0379L29.4918 0L59 17.0379L29.5082 34.0593Z" fill="#42E8E0"/>
<path d="M29.5082 34.0593L0 17.0378V18.5165L29.5082 35.538L59 18.5165V17.0378L29.5082 34.0593Z" fill="white"/>
</g>
</svg>
